<svg xmlns="http://www.w3.org/2000/svg" width="41.946" height="25.813" viewBox="0 0 41.946 25.813">
  <path id="Google_Plus" data-name="Google Plus" d="M66.273,272.374a13.433,13.433,0,0,1-9.41-3.78,12.633,12.633,0,0,1-.39-17.862c.127-.133.257-.264.39-.391a13.607,13.607,0,0,1,18.39-.4l-3.925,3.724a7.981,7.981,0,0,0-5.054-1.8,7.6,7.6,0,1,0,0,15.193,7.875,7.875,0,0,0,7.325-4.9H66.105v-5.388H79.287A12.638,12.638,0,0,1,75.68,268.6,13.432,13.432,0,0,1,66.273,272.374Zm24.006-7.434H86.906v-4.493H82.278v-3.265h4.628v-4.5h3.369v4.5h4.635v3.267H90.279v4.491Z" transform="translate(-52.965 -246.562)" fill="#fff"/>
</svg>
