<svg xmlns="http://www.w3.org/2000/svg" width="36.569" height="36.569" viewBox="0 0 36.569 36.569">
  <path id="Instagram" d="M474.014,275.061H459.233a10.906,10.906,0,0,1-10.894-10.894V249.385a10.906,10.906,0,0,1,10.894-10.893h14.781a10.906,10.906,0,0,1,10.894,10.893v14.781A10.905,10.905,0,0,1,474.014,275.061Zm-14.781-32.89a7.224,7.224,0,0,0-7.216,7.215v14.781a7.223,7.223,0,0,0,7.216,7.214h14.781a7.222,7.222,0,0,0,7.214-7.214V249.385a7.223,7.223,0,0,0-7.214-7.215Zm7.388,24.063a9.458,9.458,0,1,1,9.46-9.457,9.457,9.457,0,0,1-9.46,9.457Zm0-15.239a5.78,5.78,0,1,0,5.78,5.78h0A5.786,5.786,0,0,0,466.624,251Zm9.476-1.341a2.266,2.266,0,1,1,2.267-2.266,2.266,2.266,0,0,1-2.267,2.266Z" transform="translate(-448.339 -238.492)" fill="#fff"/>
</svg>
