<svg xmlns="http://www.w3.org/2000/svg" width="30.116" height="30.104" viewBox="0 0 30.116 30.104">
  <path id="Linkedin" d="M271.652,273.224v-9.78c0-2.336-.034-5.338-3.24-5.338-3.25,0-3.738,2.547-3.738,5.164v9.953H258.44V253.108h5.968v2.756h.082a6.555,6.555,0,0,1,5.908-3.244c6.316,0,7.488,4.162,7.488,9.581v11.023Zm-17.149,0h-6.244V253.108H254.5v20.114h0Zm3.925-20.116h0Zm-10.657-6.372a3.622,3.622,0,1,1,3.622,3.627A3.622,3.622,0,0,1,247.771,246.737Z" transform="translate(-247.771 -243.12)" fill="#fff"/>
</svg>
