<svg id="Groupe_195" data-name="Groupe 195" xmlns="http://www.w3.org/2000/svg" xmlns:xlink="http://www.w3.org/1999/xlink" width="266.621" height="54.667" viewBox="0 0 266.621 54.667">
  <defs>
    <clipPath id="clip-path">
      <path id="Tracé_350" data-name="Tracé 350" d="M51.4,2.786a5.439,5.439,0,0,1-5.438,5.438H15.68V2.786H5.438A5.439,5.439,0,0,1,0,8.224v8.421H5.963V30.836q0,6.22,3.528,9.686t9.947,3.466a22.55,22.55,0,0,0,2.334-.128c.821-.089,1.556-.175,2.2-.261V35.372c-.432.043-.84.086-1.229.128a9.656,9.656,0,0,1-1.039.066,8.56,8.56,0,0,1-3.369-.583A3.982,3.982,0,0,1,16.33,33.2a6.3,6.3,0,0,1-.65-3.015V16.646H51.93V30.836q0,6.22,3.528,9.686T65.4,43.988a22.55,22.55,0,0,0,2.334-.128q1.231-.134,2.2-.261V35.372c-.432.043-.84.086-1.229.128a9.67,9.67,0,0,1-1.039.066,8.56,8.56,0,0,1-3.368-.583A3.982,3.982,0,0,1,62.3,33.2a6.3,6.3,0,0,1-.65-3.015V16.646h8.534V8.224H61.647V2.786Z" transform="translate(0 -2.786)" fill="none"/>
    </clipPath>
    <linearGradient id="linear-gradient" y1="1.3" x2="0.006" y2="1.3" gradientUnits="objectBoundingBox">
      <stop offset="0" stop-color="#1a9f97"/>
      <stop offset="1" stop-color="#1f817a"/>
    </linearGradient>
    <clipPath id="clip-path-2">
      <rect id="Rectangle_55" data-name="Rectangle 55" width="266.621" height="54.667" fill="none"/>
    </clipPath>
  </defs>
  <g id="Groupe_192" data-name="Groupe 192" transform="translate(0 1.084)">
    <g id="Groupe_191" data-name="Groupe 191" clip-path="url(#clip-path)">
      <rect id="Rectangle_50" data-name="Rectangle 50" width="70.181" height="41.202" transform="translate(0 0)" fill="url(#linear-gradient)"/>
    </g>
  </g>
  <g id="Groupe_194" data-name="Groupe 194">
    <g id="Groupe_193" data-name="Groupe 193" clip-path="url(#clip-path-2)">
      <path id="Tracé_351" data-name="Tracé 351" d="M228.606,25.918a16.448,16.448,0,0,0-3.4-5.539,15.313,15.313,0,0,0-5.473-3.723,19.508,19.508,0,0,0-7.453-1.33,17.4,17.4,0,0,0-9.071,2.4,17.677,17.677,0,0,0-6.38,6.547,18.713,18.713,0,0,0-2.365,9.456,19.348,19.348,0,0,0,2.268,9.332,17.22,17.22,0,0,0,6.415,6.706,18.629,18.629,0,0,0,9.783,2.493,20.03,20.03,0,0,0,6.671-1.07,16.046,16.046,0,0,0,5.283-3.011,11.787,11.787,0,0,0,3.271-4.536l-7.776-3.7a7.413,7.413,0,0,1-2.882,2.851,9.985,9.985,0,0,1-9.3-.226,7.589,7.589,0,0,1-2.98-3.532,9.424,9.424,0,0,1-.673-2.525h24.775a7.031,7.031,0,0,0,.354-1.719c.066-.669.1-1.35.1-2.042a19.591,19.591,0,0,0-1.163-6.835M204.8,29.384a10.466,10.466,0,0,1,.42-1.424,7.366,7.366,0,0,1,2.719-3.629,7.545,7.545,0,0,1,4.341-1.229,7.37,7.37,0,0,1,4.376,1.264,6.6,6.6,0,0,1,2.493,3.431,7.562,7.562,0,0,1,.327,1.587Z" transform="translate(-118.816 -9.364)" fill="#272727"/>
      <path id="Tracé_352" data-name="Tracé 352" d="M312.688,43.385,329.6,24.207V16.432H300.056v8.423h16.562l-17.4,19.178v7.775h30.452V43.385Z" transform="translate(-182.821 -10.04)" fill="#272727"/>
      <path id="Tracé_353" data-name="Tracé 353" d="M421.639,20.559a12.819,12.819,0,0,0-5.345-4.5,18.37,18.37,0,0,0-7.9-1.618,20.035,20.035,0,0,0-6.932,1.163,15.651,15.651,0,0,0-5.442,3.306,12.622,12.622,0,0,0-3.306,5.119l7.776,3.692a8.152,8.152,0,0,1,2.882-3.758,7.613,7.613,0,0,1,4.567-1.424,6.4,6.4,0,0,1,4.31,1.358,4.272,4.272,0,0,1,1.587,3.373v.941l-9.783,1.583a21.247,21.247,0,0,0-7.029,2.2,10.739,10.739,0,0,0-4.182,3.855,10.192,10.192,0,0,0-1.358,5.283,9.821,9.821,0,0,0,1.49,5.473,9.482,9.482,0,0,0,4.275,3.532,16.253,16.253,0,0,0,6.609,1.233,17.043,17.043,0,0,0,5.181-.747,12.843,12.843,0,0,0,4.213-2.268,14.4,14.4,0,0,0,1.229-1.124v3.361h9.071V27.265a11.863,11.863,0,0,0-1.91-6.706m-7.807,16.034a7.855,7.855,0,0,1-1,3.921,7.374,7.374,0,0,1-2.82,2.816,8.327,8.327,0,0,1-4.209,1.039,5.006,5.006,0,0,1-3.046-.906,2.966,2.966,0,0,1-1.233-2.528,3.346,3.346,0,0,1,1.1-2.688,6.773,6.773,0,0,1,3.178-1.33l8.033-1.432Z" transform="translate(-239.196 -8.82)" fill="#272727"/>
      <path id="Tracé_354" data-name="Tracé 354" d="M518.614,20.808a11.988,11.988,0,0,0-4.7-4.7,14.168,14.168,0,0,0-7.03-1.685,13.117,13.117,0,0,0-6.447,1.523,8.539,8.539,0,0,0-3.466,3.576V15.2H487.9V50.579h9.719V29.911a7.355,7.355,0,0,1,.81-3.563,5.825,5.825,0,0,1,2.3-2.332,7.225,7.225,0,0,1,6.77,0,5.9,5.9,0,0,1,2.268,2.332,7.369,7.369,0,0,1,.81,3.563V50.579H520.3V27.838a14.173,14.173,0,0,0-1.685-7.03" transform="translate(-298.111 -8.814)" fill="#272727"/>
      <path id="Tracé_355" data-name="Tracé 355" d="M615.323,20.529a12.806,12.806,0,0,0-5.349-4.5,18.345,18.345,0,0,0-7.9-1.618,20.035,20.035,0,0,0-6.932,1.163,15.782,15.782,0,0,0-5.442,3.306,12.573,12.573,0,0,0-3.3,5.119l7.772,3.692a8.206,8.206,0,0,1,2.886-3.758,7.6,7.6,0,0,1,4.567-1.424,6.4,6.4,0,0,1,4.306,1.358,4.277,4.277,0,0,1,1.587,3.373v.945l-9.783,1.579a21.278,21.278,0,0,0-7.029,2.2,10.7,10.7,0,0,0-4.178,3.855A10.2,10.2,0,0,0,585.16,41.1a9.853,9.853,0,0,0,1.49,5.473,9.514,9.514,0,0,0,4.279,3.532,16.234,16.234,0,0,0,6.605,1.233,16.95,16.95,0,0,0,5.185-.747,12.881,12.881,0,0,0,4.213-2.268,14.99,14.99,0,0,0,1.229-1.124v3.361h9.071V27.235a11.873,11.873,0,0,0-1.91-6.706m-7.811,16.046a7.855,7.855,0,0,1-1,3.921,7.337,7.337,0,0,1-2.816,2.816,8.332,8.332,0,0,1-4.213,1.039,5.005,5.005,0,0,1-3.046-.906,2.963,2.963,0,0,1-1.229-2.528,3.333,3.333,0,0,1,1.1-2.688,6.775,6.775,0,0,1,3.174-1.33l8.033-1.432Z" transform="translate(-357.536 -8.802)" fill="#272727"/>
      <path id="Tracé_356" data-name="Tracé 356" d="M676.572,2.167V.218h-.6V0h1.42V.218H676.8v1.95Z" transform="translate(-413.024 0)" fill="#272727"/>
      <path id="Tracé_357" data-name="Tracé 357" d="M680.491,2.167V0h.2l.812,1.181h-.113L682.2,0h.2V2.167h-.232V.314l.076.029L681.453,1.5h-.012L680.651.343l.072-.029V2.167Z" transform="translate(-415.783 0)" fill="#272727"/>
      <path id="Tracé_358" data-name="Tracé 358" d="M3.617,123.5V120l-2.64-4.035h.9l2.306,3.51H3.86l2.3-3.51h.9L4.426,120v3.5Z" transform="translate(-0.597 -70.854)" fill="#272727"/>
      <path id="Tracé_359" data-name="Tracé 359" d="M17.361,126.748a2.7,2.7,0,0,1-1.4-.369,2.727,2.727,0,0,1-1-1.012,3.062,3.062,0,0,1-.005-2.907,2.82,2.82,0,0,1,3.808-1.011,2.64,2.64,0,0,1,.981,1,2.913,2.913,0,0,1,.359,1.457,2.867,2.867,0,0,1-.374,1.472,2.746,2.746,0,0,1-1,1.006,2.683,2.683,0,0,1-1.381.364m0-.758a1.833,1.833,0,0,0,.986-.273,1.967,1.967,0,0,0,.7-.748,2.19,2.19,0,0,0,.258-1.062,2.135,2.135,0,0,0-.258-1.052,1.988,1.988,0,0,0-.7-.738,1.917,1.917,0,0,0-1.972,0,2.031,2.031,0,0,0-.7.738,2.105,2.105,0,0,0-.263,1.052,2.159,2.159,0,0,0,.263,1.062,2.008,2.008,0,0,0,.7.748,1.831,1.831,0,0,0,.986.273" transform="translate(-8.921 -73.984)" fill="#272727"/>
      <path id="Tracé_360" data-name="Tracé 360" d="M32.831,126.939a2.029,2.029,0,0,1-1.032-.268,1.929,1.929,0,0,1-.733-.748,2.234,2.234,0,0,1-.268-1.108V121.4h.759v3.327a1.584,1.584,0,0,0,.177.764,1.261,1.261,0,0,0,.5.51,1.556,1.556,0,0,0,1.472-.005,1.29,1.29,0,0,0,.506-.536,1.775,1.775,0,0,0,.182-.834V121.4h.759v5.421h-.759v-1.052l.172.041a1.635,1.635,0,0,1-.657.829,1.922,1.922,0,0,1-1.072.3" transform="translate(-18.818 -74.174)" fill="#272727"/>
      <path id="Tracé_361" data-name="Tracé 361" d="M46.239,124.909a1.456,1.456,0,0,1-1.123-.425,1.717,1.717,0,0,1-.394-1.214v-3.085h-1v-.758h.253a.693.693,0,0,0,.546-.228.826.826,0,0,0,.2-.571v-.455h.759v1.254h1.193v.758H45.481v3.085a1.309,1.309,0,0,0,.081.48.659.659,0,0,0,.278.329,1.007,1.007,0,0,0,.531.121c.054,0,.118,0,.192-.01s.138-.013.192-.02v.678a1.92,1.92,0,0,1-.273.046c-.1.01-.182.015-.243.015" transform="translate(-26.714 -72.204)" fill="#272727"/>
      <path id="Tracé_362" data-name="Tracé 362" d="M53.834,123.307v-7.656h.759v3.287l-.172-.04a1.7,1.7,0,0,1,.662-.829,1.894,1.894,0,0,1,1.067-.3,2.055,2.055,0,0,1,1.037.263,1.951,1.951,0,0,1,.728.723,2.023,2.023,0,0,1,.268,1.037v3.52h-.759v-3.226a1.777,1.777,0,0,0-.182-.839,1.314,1.314,0,0,0-.5-.531,1.4,1.4,0,0,0-.723-.187,1.428,1.428,0,0,0-.728.187,1.329,1.329,0,0,0-.511.536,1.741,1.741,0,0,0-.187.834v3.226Z" transform="translate(-32.893 -70.663)" fill="#272727"/>
      <path id="Tracé_363" data-name="Tracé 363" d="M73.034,126.748a2.6,2.6,0,0,1-1.37-.369,2.645,2.645,0,0,1-.966-1.017,3.223,3.223,0,0,1-.01-2.918,2.605,2.605,0,0,1,.935-1,2.487,2.487,0,0,1,1.33-.364A2.426,2.426,0,0,1,74,121.3a2.388,2.388,0,0,1,.784.587,2.652,2.652,0,0,1,.5.829,2.685,2.685,0,0,1,.172.945c0,.068,0,.143-.01.228s-.017.171-.03.258H70.829v-.708h4.147l-.364.3a1.611,1.611,0,0,0-.127-1,1.707,1.707,0,0,0-.622-.7,1.654,1.654,0,0,0-.91-.258,1.757,1.757,0,0,0-.935.263,1.814,1.814,0,0,0-.673.733,2.049,2.049,0,0,0-.192,1.118,2.008,2.008,0,0,0,.207,1.128,1.862,1.862,0,0,0,.708.743,1.882,1.882,0,0,0,.965.263,1.7,1.7,0,0,0,1-.284,2.273,2.273,0,0,0,.658-.708l.647.344a2.056,2.056,0,0,1-.5.672,2.6,2.6,0,0,1-.794.5,2.68,2.68,0,0,1-1.016.187" transform="translate(-42.981 -73.983)" fill="#272727"/>
      <path id="Tracé_364" data-name="Tracé 364" d="M85.788,126.627v-5.421h.759v1.032l-.121-.152a1.661,1.661,0,0,1,.662-.738,1.851,1.851,0,0,1,.966-.263,1.974,1.974,0,0,1,1.851,1.274l-.212.01a1.738,1.738,0,0,1,.7-.956,2.043,2.043,0,0,1,2.114-.066,2.027,2.027,0,0,1,.738.723,1.967,1.967,0,0,1,.278,1.037v3.52h-.759V123.4a1.821,1.821,0,0,0-.177-.839,1.272,1.272,0,0,0-1.178-.718,1.334,1.334,0,0,0-.7.187,1.318,1.318,0,0,0-.5.536,1.783,1.783,0,0,0-.182.834v3.226h-.759V123.4a1.821,1.821,0,0,0-.177-.839,1.272,1.272,0,0,0-1.178-.718,1.294,1.294,0,0,0-1.193.723,1.783,1.783,0,0,0-.182.834v3.226Z" transform="translate(-52.417 -73.984)" fill="#272727"/>
      <path id="Tracé_365" data-name="Tracé 365" d="M108.278,128.65v-7.444h.759v1.213l-.122-.212a2.373,2.373,0,0,1,.865-.819,2.484,2.484,0,0,1,1.239-.3,2.567,2.567,0,0,1,1.37.369,2.649,2.649,0,0,1,.95,1.006,3.2,3.2,0,0,1,0,2.907,2.636,2.636,0,0,1-.95,1.012,2.567,2.567,0,0,1-1.37.369,2.507,2.507,0,0,1-1.26-.318,2.032,2.032,0,0,1-.845-.905l.122-.111v3.236Zm2.7-2.66a1.782,1.782,0,0,0,.976-.273,1.931,1.931,0,0,0,.678-.743,2.39,2.39,0,0,0,0-2.119,1.94,1.94,0,0,0-.678-.738,1.779,1.779,0,0,0-.976-.273,1.828,1.828,0,0,0-.986.273,1.969,1.969,0,0,0-.7.743,2.294,2.294,0,0,0,0,2.114,1.975,1.975,0,0,0,.7.743,1.831,1.831,0,0,0,.986.273" transform="translate(-66.158 -73.984)" fill="#272727"/>
      <path id="Tracé_366" data-name="Tracé 366" d="M126.69,126.748a2.7,2.7,0,0,1-1.4-.369,2.727,2.727,0,0,1-1-1.012,3.062,3.062,0,0,1-.005-2.907,2.82,2.82,0,0,1,3.808-1.011,2.64,2.64,0,0,1,.981,1,2.913,2.913,0,0,1,.359,1.457,2.867,2.867,0,0,1-.374,1.472,2.746,2.746,0,0,1-1,1.006,2.683,2.683,0,0,1-1.381.364m0-.758a1.833,1.833,0,0,0,.986-.273,1.967,1.967,0,0,0,.7-.748,2.19,2.19,0,0,0,.258-1.062,2.135,2.135,0,0,0-.258-1.052,1.988,1.988,0,0,0-.7-.738,1.917,1.917,0,0,0-1.972,0,2.031,2.031,0,0,0-.7.738,2.105,2.105,0,0,0-.263,1.052,2.159,2.159,0,0,0,.263,1.062,2.008,2.008,0,0,0,.7.748,1.831,1.831,0,0,0,.986.273" transform="translate(-75.721 -73.984)" fill="#272727"/>
      <path id="Tracé_367" data-name="Tracé 367" d="M140.3,126.818l-1.861-5.421h.86l1.537,4.743h-.3l1.446-4.743h.759l1.446,4.743h-.3l1.547-4.743h.849l-1.861,5.421h-.759l-1.406-4.642h.212l-1.406,4.642Z" transform="translate(-84.586 -74.174)" fill="#272727"/>
      <path id="Tracé_368" data-name="Tracé 368" d="M161.615,126.748a2.6,2.6,0,0,1-1.37-.369,2.645,2.645,0,0,1-.966-1.017,3.223,3.223,0,0,1-.01-2.918,2.605,2.605,0,0,1,.935-1,2.487,2.487,0,0,1,1.33-.364,2.426,2.426,0,0,1,1.047.217,2.388,2.388,0,0,1,.784.587,2.652,2.652,0,0,1,.5.829,2.685,2.685,0,0,1,.172.945c0,.068,0,.143-.01.228s-.017.171-.03.258H159.41v-.708h4.147l-.364.3a1.611,1.611,0,0,0-.127-1,1.707,1.707,0,0,0-.622-.7,1.655,1.655,0,0,0-.91-.258,1.757,1.757,0,0,0-.935.263,1.814,1.814,0,0,0-.673.733,2.049,2.049,0,0,0-.192,1.118,2.008,2.008,0,0,0,.207,1.128,1.862,1.862,0,0,0,.708.743,1.882,1.882,0,0,0,.965.263,1.7,1.7,0,0,0,1-.284,2.273,2.273,0,0,0,.658-.708l.647.344a2.056,2.056,0,0,1-.5.672,2.6,2.6,0,0,1-.794.5,2.68,2.68,0,0,1-1.016.187" transform="translate(-97.104 -73.983)" fill="#272727"/>
      <path id="Tracé_369" data-name="Tracé 369" d="M174.37,126.707v-5.421h.759v.89l-.1-.131a1.423,1.423,0,0,1,.582-.607,1.879,1.879,0,0,1,.946-.223h.344v.759h-.475a1.252,1.252,0,0,0-.941.364,1.418,1.418,0,0,0-.354,1.032v3.338Z" transform="translate(-106.541 -74.063)" fill="#272727"/>
      <path id="Tracé_370" data-name="Tracé 370" d="M182.04,126.627v-5.421h.759v1.032l-.121-.152a1.661,1.661,0,0,1,.662-.738,1.85,1.85,0,0,1,.966-.263,1.974,1.974,0,0,1,1.851,1.274l-.212.01a1.738,1.738,0,0,1,.7-.956,2.043,2.043,0,0,1,2.114-.066,2.027,2.027,0,0,1,.738.723,1.967,1.967,0,0,1,.278,1.037v3.52h-.759V123.4a1.821,1.821,0,0,0-.177-.839,1.272,1.272,0,0,0-1.178-.718,1.334,1.334,0,0,0-.7.187,1.318,1.318,0,0,0-.5.536,1.783,1.783,0,0,0-.182.834v3.226h-.759V123.4a1.821,1.821,0,0,0-.177-.839,1.272,1.272,0,0,0-1.178-.718,1.294,1.294,0,0,0-1.193.723,1.783,1.783,0,0,0-.182.834v3.226Z" transform="translate(-111.227 -73.984)" fill="#272727"/>
      <path id="Tracé_371" data-name="Tracé 371" d="M206.647,126.748a2.6,2.6,0,0,1-1.37-.369,2.645,2.645,0,0,1-.966-1.017,3.223,3.223,0,0,1-.01-2.918,2.6,2.6,0,0,1,.935-1,2.487,2.487,0,0,1,1.33-.364,2.426,2.426,0,0,1,1.047.217,2.388,2.388,0,0,1,.784.587,2.653,2.653,0,0,1,.5.829,2.685,2.685,0,0,1,.172.945c0,.068,0,.143-.01.228s-.017.171-.03.258h-4.582v-.708h4.147l-.364.3a1.611,1.611,0,0,0-.127-1,1.707,1.707,0,0,0-.622-.7,1.654,1.654,0,0,0-.91-.258,1.757,1.757,0,0,0-.935.263,1.814,1.814,0,0,0-.673.733,2.049,2.049,0,0,0-.192,1.118,2.008,2.008,0,0,0,.207,1.128,1.862,1.862,0,0,0,.708.743,1.882,1.882,0,0,0,.965.263,1.7,1.7,0,0,0,1-.284,2.273,2.273,0,0,0,.658-.708l.647.344a2.056,2.056,0,0,1-.5.672,2.6,2.6,0,0,1-.794.5,2.68,2.68,0,0,1-1.016.187" transform="translate(-124.619 -73.983)" fill="#272727"/>
      <path id="Tracé_372" data-name="Tracé 372" d="M219.4,126.627v-5.421h.759v1.052l-.172-.04a1.7,1.7,0,0,1,.662-.829,1.894,1.894,0,0,1,1.067-.3,2.055,2.055,0,0,1,1.037.263,1.95,1.95,0,0,1,.728.723,2.023,2.023,0,0,1,.268,1.037v3.52h-.759V123.4a1.821,1.821,0,0,0-.177-.839,1.28,1.28,0,0,0-.5-.531,1.42,1.42,0,0,0-.733-.187,1.446,1.446,0,0,0-.738.187,1.3,1.3,0,0,0-.506.536,1.783,1.783,0,0,0-.182.834v3.226Z" transform="translate(-134.055 -73.984)" fill="#272727"/>
      <path id="Tracé_373" data-name="Tracé 373" d="M234.555,124.909a1.456,1.456,0,0,1-1.123-.425,1.717,1.717,0,0,1-.394-1.214v-3.085h-1v-.758h.253a.693.693,0,0,0,.546-.228.826.826,0,0,0,.2-.571v-.455h.759v1.254h1.193v.758H233.8v3.085a1.309,1.309,0,0,0,.081.48.659.659,0,0,0,.278.329,1.007,1.007,0,0,0,.531.121c.054,0,.118,0,.192-.01s.138-.013.192-.02v.678a1.921,1.921,0,0,1-.273.046c-.1.01-.182.015-.243.015" transform="translate(-141.776 -72.204)" fill="#272727"/>
      <path id="Tracé_374" data-name="Tracé 374" d="M242.228,134.9v-.354a.708.708,0,0,0,.445-.314,1.245,1.245,0,0,0,.142-.647h-.384v-1.113h.809v.85a1.955,1.955,0,0,1-.253,1.057,1.182,1.182,0,0,1-.759.521" transform="translate(-148.002 -80.942)" fill="#272727"/>
      <path id="Tracé_375" data-name="Tracé 375" d="M252.711,126.748a2.388,2.388,0,0,1-1.365-.394,2.228,2.228,0,0,1-.85-1.072l.637-.3a1.951,1.951,0,0,0,.652.789,1.581,1.581,0,0,0,.925.293,1.374,1.374,0,0,0,.819-.238.729.729,0,0,0,.334-.622.62.62,0,0,0-.162-.45,1.143,1.143,0,0,0-.374-.258,2.613,2.613,0,0,0-.374-.131l-.779-.222a2.192,2.192,0,0,1-1.082-.6,1.318,1.318,0,0,1-.334-.89,1.43,1.43,0,0,1,.243-.829,1.585,1.585,0,0,1,.657-.546,2.159,2.159,0,0,1,.92-.193,2.271,2.271,0,0,1,1.249.359,1.938,1.938,0,0,1,.794,1l-.647.3a1.652,1.652,0,0,0-.582-.713,1.472,1.472,0,0,0-.845-.258,1.085,1.085,0,0,0-.728.233.737.737,0,0,0-.273.586.638.638,0,0,0,.142.435.917.917,0,0,0,.329.243,2.7,2.7,0,0,0,.329.121l.9.263a2.186,2.186,0,0,1,1.027.6,1.411,1.411,0,0,1,.121,1.75,1.634,1.634,0,0,1-.683.551,2.4,2.4,0,0,1-1,.2" transform="translate(-153.054 -73.983)" fill="#272727"/>
      <path id="Tracé_376" data-name="Tracé 376" d="M263.47,128.65v-7.444h.759v1.213l-.122-.212a2.373,2.373,0,0,1,.865-.819,2.484,2.484,0,0,1,1.239-.3,2.567,2.567,0,0,1,1.37.369,2.649,2.649,0,0,1,.95,1.006,3.2,3.2,0,0,1,0,2.907,2.637,2.637,0,0,1-.95,1.012,2.567,2.567,0,0,1-1.37.369,2.507,2.507,0,0,1-1.26-.318,2.032,2.032,0,0,1-.845-.905l.122-.111v3.236Zm2.7-2.66a1.782,1.782,0,0,0,.976-.273,1.931,1.931,0,0,0,.678-.743,2.39,2.39,0,0,0,0-2.119,1.94,1.94,0,0,0-.678-.738,1.779,1.779,0,0,0-.976-.273,1.828,1.828,0,0,0-.986.273,1.969,1.969,0,0,0-.7.743,2.295,2.295,0,0,0,0,2.114,1.974,1.974,0,0,0,.7.743,1.831,1.831,0,0,0,.986.273" transform="translate(-160.981 -73.984)" fill="#272727"/>
      <path id="Tracé_377" data-name="Tracé 377" d="M281.882,126.748a2.7,2.7,0,0,1-1.4-.369,2.727,2.727,0,0,1-1-1.012,3.062,3.062,0,0,1-.005-2.907,2.82,2.82,0,0,1,3.808-1.011,2.64,2.64,0,0,1,.981,1,2.913,2.913,0,0,1,.359,1.457,2.867,2.867,0,0,1-.374,1.472,2.746,2.746,0,0,1-1,1.006,2.683,2.683,0,0,1-1.381.364m0-.758a1.833,1.833,0,0,0,.986-.273,1.967,1.967,0,0,0,.7-.748,2.19,2.19,0,0,0,.258-1.062,2.135,2.135,0,0,0-.258-1.052,1.988,1.988,0,0,0-.7-.738,1.917,1.917,0,0,0-1.972,0,2.03,2.03,0,0,0-.7.738,2.1,2.1,0,0,0-.263,1.052,2.159,2.159,0,0,0,.263,1.062,2.007,2.007,0,0,0,.7.748,1.831,1.831,0,0,0,.986.273" transform="translate(-170.544 -73.984)" fill="#272727"/>
      <path id="Tracé_378" data-name="Tracé 378" d="M295.605,126.707v-5.421h.759v.89l-.1-.131a1.423,1.423,0,0,1,.582-.607,1.879,1.879,0,0,1,.946-.223h.344v.759h-.475a1.252,1.252,0,0,0-.941.364,1.418,1.418,0,0,0-.354,1.032v3.338Z" transform="translate(-180.616 -74.063)" fill="#272727"/>
      <path id="Tracé_379" data-name="Tracé 379" d="M304.649,124.909a1.456,1.456,0,0,1-1.123-.425,1.717,1.717,0,0,1-.394-1.214v-3.085h-1v-.758h.253a.693.693,0,0,0,.546-.228.826.826,0,0,0,.2-.571v-.455h.759v1.254h1.193v.758h-1.193v3.085a1.31,1.31,0,0,0,.081.48.659.659,0,0,0,.278.329,1.007,1.007,0,0,0,.531.121c.054,0,.118,0,.192-.01s.138-.013.192-.02v.678a1.921,1.921,0,0,1-.273.046c-.1.01-.182.015-.243.015" transform="translate(-184.603 -72.204)" fill="#272727"/>
      <path id="Tracé_380" data-name="Tracé 380" d="M313.6,126.748a2.388,2.388,0,0,1-1.365-.394,2.228,2.228,0,0,1-.85-1.072l.637-.3a1.951,1.951,0,0,0,.652.789,1.581,1.581,0,0,0,.925.293,1.374,1.374,0,0,0,.819-.238.729.729,0,0,0,.334-.622.62.62,0,0,0-.162-.45,1.143,1.143,0,0,0-.374-.258,2.613,2.613,0,0,0-.374-.131l-.779-.222a2.192,2.192,0,0,1-1.082-.6,1.318,1.318,0,0,1-.334-.89,1.429,1.429,0,0,1,.243-.829,1.584,1.584,0,0,1,.657-.546,2.159,2.159,0,0,1,.92-.193,2.271,2.271,0,0,1,1.249.359,1.938,1.938,0,0,1,.794,1l-.647.3a1.652,1.652,0,0,0-.582-.713,1.472,1.472,0,0,0-.845-.258,1.084,1.084,0,0,0-.728.233.737.737,0,0,0-.273.586.638.638,0,0,0,.142.435.917.917,0,0,0,.329.243,2.7,2.7,0,0,0,.329.121l.9.263a2.186,2.186,0,0,1,1.027.6,1.411,1.411,0,0,1,.121,1.75,1.634,1.634,0,0,1-.683.551,2.4,2.4,0,0,1-1,.2" transform="translate(-190.259 -73.983)" fill="#272727"/>
      <path id="Tracé_381" data-name="Tracé 381" d="M329.78,126.748a2.6,2.6,0,0,1-1.37-.369,2.645,2.645,0,0,1-.966-1.017,3.223,3.223,0,0,1-.01-2.918,2.605,2.605,0,0,1,.935-1,2.487,2.487,0,0,1,1.33-.364,2.427,2.427,0,0,1,1.047.217,2.388,2.388,0,0,1,.784.587,2.653,2.653,0,0,1,.5.829,2.686,2.686,0,0,1,.172.945c0,.068,0,.143-.01.228s-.017.171-.03.258h-4.582v-.708h4.147l-.364.3a1.611,1.611,0,0,0-.127-1,1.707,1.707,0,0,0-.622-.7,1.654,1.654,0,0,0-.91-.258,1.757,1.757,0,0,0-.935.263,1.814,1.814,0,0,0-.673.733,2.049,2.049,0,0,0-.192,1.118,2.007,2.007,0,0,0,.207,1.128,1.862,1.862,0,0,0,.708.743,1.882,1.882,0,0,0,.965.263,1.7,1.7,0,0,0,1-.284,2.273,2.273,0,0,0,.658-.708l.647.344a2.055,2.055,0,0,1-.5.672,2.6,2.6,0,0,1-.794.5,2.68,2.68,0,0,1-1.016.187" transform="translate(-199.854 -73.983)" fill="#272727"/>
      <path id="Tracé_382" data-name="Tracé 382" d="M342.672,126.818l-2.114-5.421h.85l1.78,4.754h-.273l1.791-4.754h.86l-2.134,5.421Z" transform="translate(-208.083 -74.174)" fill="#272727"/>
      <path id="Tracé_383" data-name="Tracé 383" d="M356.527,126.748a2.7,2.7,0,0,1-1.4-.369,2.727,2.727,0,0,1-1-1.012,3.062,3.062,0,0,1-.005-2.907,2.82,2.82,0,0,1,3.808-1.011,2.64,2.64,0,0,1,.981,1,2.913,2.913,0,0,1,.359,1.457,2.867,2.867,0,0,1-.374,1.472,2.746,2.746,0,0,1-1,1.006,2.683,2.683,0,0,1-1.381.364m0-.758a1.833,1.833,0,0,0,.986-.273,1.967,1.967,0,0,0,.7-.748,2.19,2.19,0,0,0,.258-1.062,2.135,2.135,0,0,0-.258-1.052,1.988,1.988,0,0,0-.7-.738,1.917,1.917,0,0,0-1.972,0,2.031,2.031,0,0,0-.7.738,2.1,2.1,0,0,0-.263,1.052,2.159,2.159,0,0,0,.263,1.062,2.008,2.008,0,0,0,.7.748,1.831,1.831,0,0,0,.986.273" transform="translate(-216.153 -73.984)" fill="#272727"/>
      <rect id="Rectangle_51" data-name="Rectangle 51" width="0.759" height="7.656" transform="translate(144.025 44.988)" fill="#272727"/>
      <path id="Tracé_384" data-name="Tracé 384" d="M376.833,126.939a2.029,2.029,0,0,1-1.032-.268,1.93,1.93,0,0,1-.733-.748,2.234,2.234,0,0,1-.268-1.108V121.4h.759v3.327a1.585,1.585,0,0,0,.177.764,1.262,1.262,0,0,0,.5.51,1.556,1.556,0,0,0,1.472-.005,1.29,1.29,0,0,0,.506-.536,1.775,1.775,0,0,0,.182-.834V121.4h.759v5.421h-.759v-1.052l.172.041a1.635,1.635,0,0,1-.657.829,1.922,1.922,0,0,1-1.072.3" transform="translate(-229.005 -74.174)" fill="#272727"/>
      <path id="Tracé_385" data-name="Tracé 385" d="M390.241,124.909a1.456,1.456,0,0,1-1.123-.425,1.717,1.717,0,0,1-.394-1.214v-3.085h-1v-.758h.253a.693.693,0,0,0,.546-.228.826.826,0,0,0,.2-.571v-.455h.759v1.254h1.193v.758h-1.193v3.085a1.31,1.31,0,0,0,.081.48.659.659,0,0,0,.278.329,1.007,1.007,0,0,0,.531.121c.054,0,.118,0,.192-.01s.138-.013.192-.02v.678a1.92,1.92,0,0,1-.273.046c-.1.01-.182.015-.243.015" transform="translate(-236.901 -72.204)" fill="#272727"/>
      <path id="Tracé_386" data-name="Tracé 386" d="M397.835,115.963h.759v1.113h-.759Zm0,2.114h.759V123.5h-.759Z" transform="translate(-243.079 -70.854)" fill="#272727"/>
      <path id="Tracé_387" data-name="Tracé 387" d="M404.86,126.748a2.7,2.7,0,0,1-1.4-.369,2.727,2.727,0,0,1-1-1.012,3.063,3.063,0,0,1-.005-2.907,2.82,2.82,0,0,1,3.808-1.011,2.64,2.64,0,0,1,.981,1,2.913,2.913,0,0,1,.359,1.457,2.867,2.867,0,0,1-.374,1.472,2.746,2.746,0,0,1-1,1.006,2.683,2.683,0,0,1-1.381.364m0-.758a1.833,1.833,0,0,0,.986-.273,1.967,1.967,0,0,0,.7-.748,2.19,2.19,0,0,0,.257-1.062,2.135,2.135,0,0,0-.257-1.052,1.988,1.988,0,0,0-.7-.738,1.917,1.917,0,0,0-1.972,0,2.03,2.03,0,0,0-.7.738,2.1,2.1,0,0,0-.263,1.052,2.159,2.159,0,0,0,.263,1.062,2.007,2.007,0,0,0,.7.748,1.831,1.831,0,0,0,.986.273" transform="translate(-245.684 -73.984)" fill="#272727"/>
      <path id="Tracé_388" data-name="Tracé 388" d="M418.583,126.627v-5.421h.759v1.052l-.172-.04a1.7,1.7,0,0,1,.662-.829,1.894,1.894,0,0,1,1.067-.3,2.055,2.055,0,0,1,1.037.263,1.95,1.95,0,0,1,.728.723,2.023,2.023,0,0,1,.268,1.037v3.52h-.759V123.4a1.821,1.821,0,0,0-.177-.839,1.28,1.28,0,0,0-.5-.531,1.42,1.42,0,0,0-.733-.187,1.446,1.446,0,0,0-.738.187,1.3,1.3,0,0,0-.506.536,1.783,1.783,0,0,0-.182.834v3.226Z" transform="translate(-255.756 -73.984)" fill="#272727"/>
      <path id="Tracé_389" data-name="Tracé 389" d="M432.442,134.9v-.354a.708.708,0,0,0,.445-.314,1.245,1.245,0,0,0,.142-.647h-.384v-1.113h.809v.85a1.955,1.955,0,0,1-.253,1.057,1.182,1.182,0,0,1-.759.521" transform="translate(-264.224 -80.942)" fill="#272727"/>
      <path id="Tracé_390" data-name="Tracé 390" d="M443.685,126.748a2.6,2.6,0,0,1-1.37-.369,2.645,2.645,0,0,1-.966-1.017,3.223,3.223,0,0,1-.01-2.918,2.6,2.6,0,0,1,.935-1,2.487,2.487,0,0,1,1.33-.364,2.426,2.426,0,0,1,1.047.217,2.388,2.388,0,0,1,.784.587,2.653,2.653,0,0,1,.5.829,2.685,2.685,0,0,1,.172.945c0,.068,0,.143-.01.228s-.017.171-.03.258H441.48v-.708h4.147l-.364.3a1.611,1.611,0,0,0-.127-1,1.707,1.707,0,0,0-.622-.7,1.654,1.654,0,0,0-.91-.258,1.757,1.757,0,0,0-.935.263,1.814,1.814,0,0,0-.673.733,2.049,2.049,0,0,0-.192,1.118,2.008,2.008,0,0,0,.207,1.128,1.862,1.862,0,0,0,.708.743,1.882,1.882,0,0,0,.965.263,1.7,1.7,0,0,0,1-.284,2.273,2.273,0,0,0,.658-.708l.647.344a2.056,2.056,0,0,1-.5.672,2.6,2.6,0,0,1-.794.5,2.68,2.68,0,0,1-1.016.187" transform="translate(-269.45 -73.983)" fill="#272727"/>
      <path id="Tracé_391" data-name="Tracé 391" d="M456.439,126.627v-5.421h.759v1.052l-.172-.04a1.7,1.7,0,0,1,.662-.829,1.894,1.894,0,0,1,1.067-.3,2.055,2.055,0,0,1,1.037.263,1.951,1.951,0,0,1,.728.723,2.023,2.023,0,0,1,.268,1.037v3.52h-.759V123.4a1.821,1.821,0,0,0-.177-.839,1.28,1.28,0,0,0-.5-.531,1.42,1.42,0,0,0-.733-.187,1.446,1.446,0,0,0-.738.187,1.3,1.3,0,0,0-.506.536,1.783,1.783,0,0,0-.182.834v3.226Z" transform="translate(-278.886 -73.984)" fill="#272727"/>
      <path id="Tracé_392" data-name="Tracé 392" d="M472.317,123.428a2.574,2.574,0,0,1-1.365-.369,2.624,2.624,0,0,1-.956-1.012,3.2,3.2,0,0,1,0-2.907,2.647,2.647,0,0,1,.951-1.006,2.564,2.564,0,0,1,1.37-.369,2.515,2.515,0,0,1,1.244.3,2.287,2.287,0,0,1,.86.819l-.122.212v-3.448h.759v7.656H474.3v-1.214l.122.111a2.033,2.033,0,0,1-.845.905,2.505,2.505,0,0,1-1.259.318m.04-.758a1.831,1.831,0,0,0,.986-.273,1.975,1.975,0,0,0,.7-.743,2.294,2.294,0,0,0,0-2.114,1.969,1.969,0,0,0-.7-.743,1.827,1.827,0,0,0-.986-.273,1.784,1.784,0,0,0-.971.273,1.919,1.919,0,0,0-.683.738,2.386,2.386,0,0,0,0,2.119,1.927,1.927,0,0,0,.677.743,1.783,1.783,0,0,0,.976.273" transform="translate(-286.957 -70.663)" fill="#272727"/>
      <rect id="Rectangle_52" data-name="Rectangle 52" width="0.759" height="7.656" transform="translate(189.224 44.988)" fill="#272727"/>
      <path id="Tracé_393" data-name="Tracé 393" d="M493.4,126.748a2.6,2.6,0,0,1-1.37-.369,2.645,2.645,0,0,1-.966-1.017,3.223,3.223,0,0,1-.01-2.918,2.605,2.605,0,0,1,.935-1,2.487,2.487,0,0,1,1.33-.364,2.426,2.426,0,0,1,1.047.217,2.387,2.387,0,0,1,.784.587,2.652,2.652,0,0,1,.5.829,2.685,2.685,0,0,1,.172.945c0,.068,0,.143-.01.228s-.017.171-.03.258h-4.582v-.708h4.147l-.364.3a1.611,1.611,0,0,0-.127-1,1.708,1.708,0,0,0-.622-.7,1.654,1.654,0,0,0-.91-.258,1.757,1.757,0,0,0-.935.263,1.814,1.814,0,0,0-.673.733,2.049,2.049,0,0,0-.192,1.118,2.007,2.007,0,0,0,.207,1.128,1.862,1.862,0,0,0,.708.743,1.883,1.883,0,0,0,.966.263,1.7,1.7,0,0,0,1-.284,2.273,2.273,0,0,0,.658-.708l.647.344a2.056,2.056,0,0,1-.5.672,2.6,2.6,0,0,1-.794.5,2.68,2.68,0,0,1-1.016.187" transform="translate(-299.824 -73.983)" fill="#272727"/>
      <path id="Tracé_394" data-name="Tracé 394" d="M507.507,126.748a2.388,2.388,0,0,1-1.365-.394,2.228,2.228,0,0,1-.85-1.072l.637-.3a1.951,1.951,0,0,0,.652.789,1.581,1.581,0,0,0,.925.293,1.374,1.374,0,0,0,.819-.238.729.729,0,0,0,.334-.622.62.62,0,0,0-.162-.45,1.143,1.143,0,0,0-.374-.258,2.615,2.615,0,0,0-.374-.131l-.779-.222a2.192,2.192,0,0,1-1.082-.6,1.319,1.319,0,0,1-.334-.89,1.429,1.429,0,0,1,.243-.829,1.585,1.585,0,0,1,.657-.546,2.159,2.159,0,0,1,.92-.193,2.271,2.271,0,0,1,1.249.359,1.938,1.938,0,0,1,.794,1l-.647.3a1.652,1.652,0,0,0-.582-.713,1.472,1.472,0,0,0-.845-.258,1.085,1.085,0,0,0-.728.233.737.737,0,0,0-.273.586.638.638,0,0,0,.142.435.917.917,0,0,0,.329.243,2.692,2.692,0,0,0,.329.121l.9.263a2.186,2.186,0,0,1,1.027.6,1.411,1.411,0,0,1,.121,1.75,1.633,1.633,0,0,1-.683.551,2.4,2.4,0,0,1-1,.2" transform="translate(-308.736 -73.983)" fill="#272727"/>
      <path id="Tracé_395" data-name="Tracé 395" d="M519.623,126.748a2.388,2.388,0,0,1-1.365-.394,2.227,2.227,0,0,1-.85-1.072l.637-.3a1.951,1.951,0,0,0,.652.789,1.581,1.581,0,0,0,.925.293,1.374,1.374,0,0,0,.819-.238.729.729,0,0,0,.334-.622.62.62,0,0,0-.162-.45,1.144,1.144,0,0,0-.374-.258,2.618,2.618,0,0,0-.374-.131l-.779-.222a2.192,2.192,0,0,1-1.082-.6,1.318,1.318,0,0,1-.334-.89,1.429,1.429,0,0,1,.243-.829,1.585,1.585,0,0,1,.657-.546,2.159,2.159,0,0,1,.92-.193,2.27,2.27,0,0,1,1.249.359,1.938,1.938,0,0,1,.794,1l-.647.3a1.652,1.652,0,0,0-.581-.713,1.472,1.472,0,0,0-.845-.258,1.084,1.084,0,0,0-.728.233.737.737,0,0,0-.273.586.638.638,0,0,0,.142.435.917.917,0,0,0,.329.243,2.7,2.7,0,0,0,.329.121l.9.263a2.185,2.185,0,0,1,1.027.6,1.411,1.411,0,0,1,.121,1.75,1.634,1.634,0,0,1-.683.551,2.4,2.4,0,0,1-1,.2" transform="translate(-316.139 -73.983)" fill="#272727"/>
      <path id="Tracé_396" data-name="Tracé 396" d="M533.683,128.65v-7.444h.759v1.213l-.122-.212a2.373,2.373,0,0,1,.865-.819,2.484,2.484,0,0,1,1.239-.3,2.567,2.567,0,0,1,1.37.369,2.649,2.649,0,0,1,.95,1.006,3.2,3.2,0,0,1,0,2.907,2.637,2.637,0,0,1-.95,1.012,2.567,2.567,0,0,1-1.37.369,2.507,2.507,0,0,1-1.26-.318,2.033,2.033,0,0,1-.844-.905l.122-.111v3.236Zm2.7-2.66a1.782,1.782,0,0,0,.976-.273,1.931,1.931,0,0,0,.678-.743,2.389,2.389,0,0,0,0-2.119,1.94,1.94,0,0,0-.678-.738,1.779,1.779,0,0,0-.976-.273,1.827,1.827,0,0,0-.986.273,1.968,1.968,0,0,0-.7.743,2.294,2.294,0,0,0,0,2.114,1.974,1.974,0,0,0,.7.743,1.831,1.831,0,0,0,.986.273" transform="translate(-326.083 -73.984)" fill="#272727"/>
      <path id="Tracé_397" data-name="Tracé 397" d="M552.1,126.748a2.7,2.7,0,0,1-1.4-.369,2.727,2.727,0,0,1-1-1.012,3.063,3.063,0,0,1-.005-2.907,2.82,2.82,0,0,1,3.808-1.011,2.64,2.64,0,0,1,.981,1,2.913,2.913,0,0,1,.359,1.457,2.867,2.867,0,0,1-.374,1.472,2.746,2.746,0,0,1-1,1.006,2.683,2.683,0,0,1-1.381.364m0-.758a1.833,1.833,0,0,0,.986-.273,1.967,1.967,0,0,0,.7-.748,2.19,2.19,0,0,0,.258-1.062,2.136,2.136,0,0,0-.258-1.052,1.989,1.989,0,0,0-.7-.738,1.917,1.917,0,0,0-1.972,0,2.029,2.029,0,0,0-.7.738,2.105,2.105,0,0,0-.263,1.052,2.159,2.159,0,0,0,.263,1.062,2.007,2.007,0,0,0,.7.748,1.831,1.831,0,0,0,.986.273" transform="translate(-335.646 -73.984)" fill="#272727"/>
      <path id="Tracé_398" data-name="Tracé 398" d="M567.176,126.748a2.388,2.388,0,0,1-1.365-.394,2.228,2.228,0,0,1-.85-1.072l.637-.3a1.951,1.951,0,0,0,.652.789,1.581,1.581,0,0,0,.925.293,1.374,1.374,0,0,0,.819-.238.729.729,0,0,0,.334-.622.62.62,0,0,0-.162-.45,1.144,1.144,0,0,0-.374-.258,2.615,2.615,0,0,0-.374-.131l-.779-.222a2.192,2.192,0,0,1-1.082-.6,1.318,1.318,0,0,1-.334-.89,1.429,1.429,0,0,1,.243-.829,1.585,1.585,0,0,1,.657-.546,2.159,2.159,0,0,1,.92-.193,2.271,2.271,0,0,1,1.249.359,1.938,1.938,0,0,1,.794,1l-.647.3a1.652,1.652,0,0,0-.582-.713,1.472,1.472,0,0,0-.845-.258,1.085,1.085,0,0,0-.728.233.737.737,0,0,0-.273.586.638.638,0,0,0,.142.435.917.917,0,0,0,.329.243,2.7,2.7,0,0,0,.329.121l.9.263a2.186,2.186,0,0,1,1.027.6,1.411,1.411,0,0,1,.121,1.75,1.633,1.633,0,0,1-.683.551,2.4,2.4,0,0,1-1,.2" transform="translate(-345.194 -73.983)" fill="#272727"/>
      <path id="Tracé_399" data-name="Tracé 399" d="M579.292,126.748a2.388,2.388,0,0,1-1.365-.394,2.228,2.228,0,0,1-.85-1.072l.637-.3a1.952,1.952,0,0,0,.652.789,1.581,1.581,0,0,0,.925.293,1.374,1.374,0,0,0,.819-.238.729.729,0,0,0,.334-.622.62.62,0,0,0-.162-.45,1.143,1.143,0,0,0-.374-.258,2.612,2.612,0,0,0-.374-.131l-.779-.222a2.192,2.192,0,0,1-1.082-.6,1.318,1.318,0,0,1-.334-.89,1.43,1.43,0,0,1,.243-.829,1.585,1.585,0,0,1,.657-.546,2.159,2.159,0,0,1,.92-.193,2.271,2.271,0,0,1,1.249.359,1.938,1.938,0,0,1,.794,1l-.647.3a1.652,1.652,0,0,0-.582-.713,1.472,1.472,0,0,0-.844-.258,1.085,1.085,0,0,0-.728.233.737.737,0,0,0-.273.586.638.638,0,0,0,.142.435.917.917,0,0,0,.329.243,2.692,2.692,0,0,0,.329.121l.9.263a2.185,2.185,0,0,1,1.027.6,1.411,1.411,0,0,1,.121,1.75,1.633,1.633,0,0,1-.683.551,2.4,2.4,0,0,1-1,.2" transform="translate(-352.597 -73.983)" fill="#272727"/>
      <path id="Tracé_400" data-name="Tracé 400" d="M590.05,115.963h.758v1.113h-.758Zm0,2.114h.758V123.5h-.758Z" transform="translate(-360.523 -70.854)" fill="#272727"/>
      <path id="Tracé_401" data-name="Tracé 401" d="M597.628,123.428a2.507,2.507,0,0,1-1.26-.318,2.033,2.033,0,0,1-.844-.905l.122-.111v1.214h-.758v-7.656h.758V119.1l-.122-.212a2.372,2.372,0,0,1,.865-.819,2.484,2.484,0,0,1,1.239-.3,2.567,2.567,0,0,1,1.37.369,2.649,2.649,0,0,1,.95,1.006,3.2,3.2,0,0,1,0,2.907,2.636,2.636,0,0,1-.95,1.012,2.567,2.567,0,0,1-1.37.369m-.04-.758a1.783,1.783,0,0,0,.976-.273,1.931,1.931,0,0,0,.678-.743,2.389,2.389,0,0,0,0-2.119,1.94,1.94,0,0,0-.678-.738,1.779,1.779,0,0,0-.976-.273,1.827,1.827,0,0,0-.986.273,1.969,1.969,0,0,0-.7.743,2.294,2.294,0,0,0,0,2.114,1.974,1.974,0,0,0,.7.743,1.831,1.831,0,0,0,.986.273" transform="translate(-363.479 -70.663)" fill="#272727"/>
      <path id="Tracé_402" data-name="Tracé 402" d="M611.11,115.963h.759v1.113h-.759Zm0,2.114h.759V123.5h-.759Z" transform="translate(-373.391 -70.854)" fill="#272727"/>
      <rect id="Rectangle_53" data-name="Rectangle 53" width="0.759" height="7.656" transform="translate(239.6 44.988)" fill="#272727"/>
      <path id="Tracé_403" data-name="Tracé 403" d="M620.782,115.963h.759v1.113h-.759Zm0,2.114h.759V123.5h-.759Z" transform="translate(-379.301 -70.854)" fill="#272727"/>
      <path id="Tracé_404" data-name="Tracé 404" d="M626.991,124.909a1.456,1.456,0,0,1-1.123-.425,1.717,1.717,0,0,1-.394-1.214v-3.085h-1v-.758h.253a.693.693,0,0,0,.546-.228.826.826,0,0,0,.2-.571v-.455h.759v1.254h1.193v.758h-1.193v3.085a1.309,1.309,0,0,0,.081.48.659.659,0,0,0,.278.329,1.007,1.007,0,0,0,.531.121c.054,0,.118,0,.192-.01s.138-.013.192-.02v.678a1.922,1.922,0,0,1-.273.046c-.1.01-.182.015-.243.015" transform="translate(-381.556 -72.204)" fill="#272727"/>
      <path id="Tracé_405" data-name="Tracé 405" d="M634.586,115.963h.759v1.113h-.759Zm0,2.114h.759V123.5h-.759Z" transform="translate(-387.735 -70.854)" fill="#272727"/>
      <path id="Tracé_406" data-name="Tracé 406" d="M641.54,126.748a2.6,2.6,0,0,1-1.37-.369,2.645,2.645,0,0,1-.966-1.017,3.223,3.223,0,0,1-.01-2.918,2.605,2.605,0,0,1,.935-1,2.487,2.487,0,0,1,1.33-.364,2.426,2.426,0,0,1,1.047.217,2.387,2.387,0,0,1,.784.587,2.652,2.652,0,0,1,.5.829,2.685,2.685,0,0,1,.172.945c0,.068,0,.143-.01.228s-.017.171-.03.258h-4.582v-.708h4.147l-.364.3a1.611,1.611,0,0,0-.127-1,1.708,1.708,0,0,0-.622-.7,1.655,1.655,0,0,0-.91-.258,1.757,1.757,0,0,0-.935.263,1.815,1.815,0,0,0-.673.733,2.049,2.049,0,0,0-.192,1.118,2.007,2.007,0,0,0,.207,1.128,1.861,1.861,0,0,0,.708.743,1.883,1.883,0,0,0,.966.263,1.7,1.7,0,0,0,1-.284,2.274,2.274,0,0,0,.658-.708l.647.344a2.055,2.055,0,0,1-.5.672,2.6,2.6,0,0,1-.794.5,2.681,2.681,0,0,1-1.016.187" transform="translate(-390.34 -73.983)" fill="#272727"/>
      <path id="Tracé_407" data-name="Tracé 407" d="M655.651,126.748a2.388,2.388,0,0,1-1.365-.394,2.228,2.228,0,0,1-.85-1.072l.637-.3a1.952,1.952,0,0,0,.652.789,1.581,1.581,0,0,0,.925.293,1.374,1.374,0,0,0,.819-.238.729.729,0,0,0,.334-.622.62.62,0,0,0-.162-.45,1.144,1.144,0,0,0-.374-.258,2.615,2.615,0,0,0-.374-.131l-.779-.222a2.192,2.192,0,0,1-1.082-.6,1.318,1.318,0,0,1-.334-.89,1.429,1.429,0,0,1,.243-.829,1.584,1.584,0,0,1,.657-.546,2.159,2.159,0,0,1,.92-.193,2.27,2.27,0,0,1,1.249.359,1.938,1.938,0,0,1,.794,1l-.647.3a1.652,1.652,0,0,0-.582-.713,1.472,1.472,0,0,0-.845-.258,1.085,1.085,0,0,0-.728.233.737.737,0,0,0-.273.586.638.638,0,0,0,.142.435.917.917,0,0,0,.329.243,2.692,2.692,0,0,0,.329.121l.9.263a2.186,2.186,0,0,1,1.027.6,1.411,1.411,0,0,1,.121,1.75,1.634,1.634,0,0,1-.683.551,2.4,2.4,0,0,1-1,.2" transform="translate(-399.252 -73.983)" fill="#272727"/>
      <rect id="Rectangle_54" data-name="Rectangle 54" width="0.809" height="1.113" transform="translate(259.493 51.531)" fill="#272727"/>
    </g>
  </g>
</svg>
