<?xml version="1.0" encoding="utf-8"?>
<!-- Generator: Adobe Illustrator 23.0.1, SVG Export Plug-In . SVG Version: 6.00 Build 0)  -->
<svg version="1.1" id="Calque_1" xmlns="http://www.w3.org/2000/svg" xmlns:xlink="http://www.w3.org/1999/xlink" x="0px" y="0px"
	 width="486px" height="111.8px" viewBox="0 0 486 111.8" style="enable-background:new 0 0 486 111.8;" xml:space="preserve">
<style type="text/css">
	.st0{fill:#161615;}
	.st1{clip-path:url(#SVGID_2_);}
	.st2{fill:#FFFFFF;}
	.st3{font-family:'ArialMT';}
	.st4{font-size:11px;}
	.st5{clip-path:url(#SVGID_4_);}
	.st6{fill:none;stroke:#FFFFFF;stroke-width:0.763;}
	.st7{fill:none;stroke:#FFFFFF;stroke-width:0.816;}
	.st8{fill:none;stroke:#FFFFFF;stroke-width:0.833;}
	.st9{fill:none;stroke:#FFFFFF;stroke-width:0.921;}
</style>
<g id="Groupe_294" transform="translate(0)">
	<rect id="Rectangle_136" x="96.5" y="32.5" class="st0" width="0.7" height="13.9"/>
	<g id="Groupe_291" transform="translate(0)">
		<g>
			<defs>
				<rect id="SVGID_1_" y="0" width="486" height="111.8"/>
			</defs>
			<clipPath id="SVGID_2_">
				<use xlink:href="#SVGID_1_"  style="overflow:visible;"/>
			</clipPath>
			<g id="Groupe_290" class="st1">
				<path id="Tracé_520" class="st2" d="M46.3,46.4v22.3c-0.1,1.7,0.3,3.4,1.1,5c0.7,1.3,1.9,2.4,3.3,2.9c1.8,0.7,3.7,1,5.5,1
					c0.6,0,1.1,0,1.7-0.1c0.6-0.1,1.3-0.1,2-0.2v13.5c-1.1,0.1-2.3,0.3-3.6,0.4c-1.3,0.1-2.6,0.2-3.8,0.2c-7,0-12.5-1.9-16.4-5.7
					s-5.8-9.1-5.8-15.9V46.4h-9.8V32.5c4.9,0,9-4,9-9h16.9v9h50.3v13.9H46.3z"/>
				<path id="Tracé_521" class="st2" d="M122,46.4v22.3c-0.1,1.7,0.3,3.4,1.1,5c0.7,1.3,1.9,2.4,3.3,2.9c1.8,0.7,3.7,1,5.5,1
					c0.6,0,1.1,0,1.7-0.1c0.6-0.1,1.3-0.1,2-0.2v13.5c-1.1,0.1-2.3,0.3-3.6,0.4c-1.3,0.1-2.6,0.2-3.8,0.2c-7,0-12.5-1.9-16.4-5.7
					c-3.9-3.8-5.8-9.1-5.8-15.9V46.4h-9.8V32.5c4.9,0,9-4,9-9H122v9h14v13.9H122z"/>
				<path id="Tracé_522" class="st2" d="M201.2,49.1c-1.2-3.4-3.1-6.5-5.6-9.1c-2.5-2.7-5.6-4.8-9-6.1c-3.9-1.5-8.1-2.3-12.3-2.2
					c-5.2-0.1-10.4,1.3-14.9,3.9c-4.4,2.6-8,6.3-10.5,10.8c-2.6,4.8-4,10.1-3.9,15.6c-0.1,5.4,1.2,10.6,3.7,15.4
					c2.4,4.6,6.1,8.4,10.6,11c4.9,2.8,10.5,4.2,16.1,4.1c3.7,0,7.4-0.6,11-1.8c3.2-1.1,6.1-2.8,8.7-5c2.4-2,4.2-4.6,5.4-7.5
					l-12.8-6.1c-1.1,2-2.8,3.6-4.7,4.7c-4.8,2.4-10.6,2.3-15.3-0.4c-2.2-1.4-3.9-3.4-4.9-5.8c-0.6-1.3-0.9-2.7-1.1-4.2h40.8
					c0.3-0.9,0.5-1.9,0.6-2.8c0.1-1.1,0.2-2.2,0.2-3.4C203.2,56.5,202.5,52.7,201.2,49.1 M162,54.8c0.2-0.8,0.4-1.6,0.7-2.3
					c0.8-2.4,2.4-4.5,4.5-6c2.1-1.4,4.6-2.1,7.1-2c2.6-0.1,5.1,0.6,7.2,2.1c2,1.4,3.4,3.4,4.1,5.6c0.3,0.8,0.5,1.7,0.5,2.6H162z"/>
				<path id="Tracé_523" class="st2" d="M234.2,76.7l27.8-31.6V32.3h-48.6v13.9h27.3l-28.6,31.6v12.8h50.1V76.7H234.2z"/>
				<path id="Tracé_524" class="st2" d="M320.8,41.1c-2.2-3.2-5.2-5.8-8.8-7.4c-4.1-1.8-8.5-2.8-13-2.7c-3.9,0-7.7,0.6-11.4,1.9
					c-3.3,1.2-6.4,3-9,5.4c-2.5,2.3-4.3,5.2-5.4,8.4l12.8,6.1c0.9-2.5,2.6-4.6,4.7-6.2c2.2-1.6,4.8-2.4,7.5-2.3
					c2.6-0.1,5.1,0.7,7.1,2.2c1.7,1.4,2.6,3.4,2.6,5.6v1.5l-16.1,2.6c-4,0.5-8,1.8-11.6,3.6c-2.8,1.5-5.2,3.6-6.9,6.3
					c-1.5,2.6-2.3,5.7-2.2,8.7c-0.1,3.2,0.8,6.3,2.5,9c1.7,2.6,4.2,4.6,7,5.8c3.4,1.4,7.2,2.1,10.9,2c2.9,0,5.8-0.4,8.5-1.2
					c2.5-0.8,4.9-2.1,6.9-3.7c0.7-0.6,1.4-1.2,2-1.8v5.5h14.9V52.2C324,48.3,322.9,44.4,320.8,41.1 M307.9,67.5
					c0,2.3-0.5,4.5-1.7,6.5c-1.1,1.9-2.7,3.5-4.6,4.6c-2.1,1.2-4.5,1.8-6.9,1.7c-1.8,0.1-3.5-0.5-5-1.5c-1.3-1-2.1-2.5-2-4.2
					c-0.1-1.7,0.6-3.3,1.8-4.4c1.5-1.2,3.3-1.9,5.2-2.2l13.2-2.4V67.5z"/>
				<path id="Tracé_525" class="st2" d="M383.4,41.6c-1.8-3.3-4.5-5.9-7.7-7.7c-3.6-1.9-7.5-2.9-11.6-2.8
					c-3.7-0.1-7.3,0.8-10.6,2.5c-2.4,1.4-4.4,3.4-5.7,5.9v-7.1h-14.9v58.2h16v-34c-0.1-2,0.4-4.1,1.3-5.9c0.9-1.6,2.2-2.9,3.8-3.8
					c3.5-1.8,7.7-1.8,11.1,0c1.6,0.9,2.9,2.2,3.7,3.8c0.9,1.8,1.4,3.8,1.3,5.9v34h16V53.1C386.3,49.1,385.3,45.1,383.4,41.6"/>
				<path id="Tracé_526" class="st2" d="M444.8,41.1c-2.2-3.2-5.2-5.8-8.8-7.4c-4.1-1.8-8.5-2.8-13-2.7c-3.9,0-7.7,0.6-11.4,1.9
					c-3.3,1.2-6.4,3-9,5.4c-2.5,2.3-4.3,5.2-5.4,8.4l12.8,6.1c0.9-2.5,2.6-4.6,4.8-6.2c2.2-1.6,4.8-2.4,7.5-2.3
					c2.6-0.1,5.1,0.7,7.1,2.2C431,48,432,50,432,52.1v1.6l-16.1,2.6c-4,0.5-8,1.8-11.6,3.6c-2.8,1.5-5.2,3.6-6.9,6.3
					c-1.5,2.6-2.3,5.7-2.2,8.7c-0.1,3.2,0.8,6.3,2.5,9c1.7,2.6,4.2,4.6,7,5.8c3.4,1.4,7.1,2.1,10.9,2c2.9,0,5.8-0.4,8.5-1.2
					c2.5-0.8,4.9-2.1,6.9-3.7c0.7-0.6,1.4-1.2,2-1.8v5.5H448V52.2C448,48.2,446.9,44.4,444.8,41.1 M431.9,67.5
					c0,2.3-0.5,4.5-1.7,6.5c-1.1,1.9-2.7,3.5-4.6,4.6c-2.1,1.2-4.5,1.8-6.9,1.7c-1.8,0.1-3.5-0.5-5-1.5c-1.3-1-2.1-2.5-2-4.2
					c-0.1-1.7,0.6-3.3,1.8-4.4c1.5-1.2,3.3-1.9,5.2-2.2l13.2-2.4L431.9,67.5z"/>
			</g>
		</g>
	</g>
	<text transform="matrix(1 0 0 1 456.9 30.102)" class="st2 st3 st4">T</text>
	<text transform="matrix(1 0 0 1 463.8063 30.102)" class="st2 st3 st4">M</text>
	<g id="Groupe_293" transform="translate(0)">
		<g>
			<defs>
				<rect id="SVGID_3_" y="0" width="486" height="111.8"/>
			</defs>
			<clipPath id="SVGID_4_">
				<use xlink:href="#SVGID_3_"  style="overflow:visible;"/>
			</clipPath>
			<g id="Groupe_292" class="st5">
				<path id="Tracé_527" class="st2" d="M25.5,108.5v-5.8l-4.3-6.6h1.5l3.8,5.8h-0.5l3.8-5.8h1.5l-4.3,6.6v5.8H25.5z"/>
				<path id="Tracé_528" class="st2" d="M34.4,108.7c-0.8,0-1.6-0.2-2.3-0.6c-0.7-0.4-1.2-1-1.6-1.7c-0.8-1.5-0.8-3.3,0-4.8
					c1.3-2.2,4.1-2.9,6.3-1.7c0.7,0.4,1.2,1,1.6,1.6c0.4,0.7,0.6,1.6,0.6,2.4c0,0.8-0.2,1.7-0.6,2.4c-0.4,0.7-1,1.3-1.6,1.7
					C36,108.5,35.2,108.7,34.4,108.7 M34.4,107.4c0.6,0,1.1-0.1,1.6-0.4c0.5-0.3,0.9-0.7,1.1-1.2c0.3-0.5,0.4-1.1,0.4-1.7
					c0-0.6-0.1-1.2-0.4-1.7c-0.3-0.5-0.7-0.9-1.1-1.2c-1-0.6-2.2-0.6-3.2,0c-0.5,0.3-0.9,0.7-1.2,1.2c-0.3,0.5-0.4,1.1-0.4,1.7
					c0,0.6,0.1,1.2,0.4,1.7c0.3,0.5,0.7,0.9,1.2,1.2C33.2,107.3,33.8,107.4,34.4,107.4"/>
				<path id="Tracé_529" class="st2" d="M43.6,108.7c-0.6,0-1.2-0.1-1.7-0.4c-0.5-0.3-0.9-0.7-1.2-1.2c-0.3-0.6-0.5-1.2-0.4-1.8
					v-5.6h1.2v5.5c0,0.4,0.1,0.9,0.3,1.3c0.2,0.4,0.5,0.6,0.8,0.8c0.8,0.4,1.7,0.4,2.4,0c0.4-0.2,0.6-0.5,0.8-0.9
					c0.2-0.4,0.3-0.9,0.3-1.4v-5.3h1.2v8.9h-1.2v-1.7l0.3,0.1c-0.2,0.6-0.6,1-1.1,1.4C44.8,108.5,44.2,108.7,43.6,108.7"/>
				<path id="Tracé_530" class="st2" d="M52.6,108.6c-0.7,0-1.4-0.2-1.8-0.7c-0.5-0.6-0.7-1.3-0.6-2v-5.1h-1.6v-1.3h0.4
					c0.3,0,0.7-0.1,0.9-0.4c0.2-0.3,0.3-0.6,0.3-0.9v-0.7h1.2v2.1h2v1.2h-2v5.1c0,0.3,0,0.5,0.1,0.8c0.1,0.2,0.2,0.4,0.5,0.5
					c0.3,0.1,0.6,0.2,0.9,0.2c0.1,0,0.2,0,0.3,0s0.2,0,0.3,0v1.1c-0.1,0-0.3,0.1-0.4,0.1C52.9,108.6,52.7,108.6,52.6,108.6"/>
				<path id="Tracé_531" class="st2" d="M55,108.5V95.9h1.2v5.4l-0.3-0.1c0.2-0.6,0.6-1,1.1-1.4c0.5-0.3,1.1-0.5,1.8-0.5
					c0.6,0,1.2,0.1,1.7,0.4c0.5,0.3,0.9,0.7,1.2,1.2c0.3,0.5,0.4,1.1,0.4,1.7v5.8h-1.2v-5.3c0-0.5-0.1-1-0.3-1.4
					c-0.2-0.4-0.5-0.7-0.8-0.9c-0.4-0.2-0.8-0.3-1.2-0.3c-0.4,0-0.8,0.1-1.2,0.3c-0.4,0.2-0.6,0.5-0.8,0.9c-0.2,0.4-0.3,0.9-0.3,1.4
					v5.3L55,108.5z"/>
				<path id="Tracé_532" class="st2" d="M70,108.7c-0.8,0-1.6-0.2-2.3-0.6c-0.7-0.4-1.2-1-1.6-1.7c-0.8-1.5-0.8-3.3,0-4.8
					c0.4-0.7,0.9-1.2,1.5-1.6c0.7-0.4,1.4-0.6,2.2-0.6c0.6,0,1.2,0.1,1.7,0.4c0.5,0.2,0.9,0.6,1.3,1c0.4,0.4,0.6,0.9,0.8,1.4
					c0.2,0.5,0.3,1,0.3,1.6c0,0.1,0,0.2,0,0.4s0,0.3-0.1,0.4h-7.5v-1.2h6.8l-0.6,0.5c0.1-0.6,0-1.1-0.2-1.6c-0.2-0.5-0.6-0.9-1-1.1
					c-0.4-0.3-1-0.4-1.5-0.4c-0.5,0-1.1,0.1-1.5,0.4c-0.5,0.3-0.9,0.7-1.1,1.2c-0.3,0.6-0.4,1.2-0.3,1.8c-0.1,0.6,0,1.3,0.3,1.9
					c0.5,1,1.6,1.7,2.8,1.7c0.6,0,1.2-0.1,1.6-0.5c0.4-0.3,0.8-0.7,1.1-1.2l1.1,0.6c-0.2,0.4-0.5,0.8-0.8,1.1
					c-0.4,0.3-0.8,0.6-1.3,0.8C71.1,108.6,70.5,108.7,70,108.7"/>
				<path id="Tracé_533" class="st2" d="M75.4,108.5v-8.9h1.2v1.7l-0.2-0.3c0.2-0.5,0.6-0.9,1.1-1.2c0.5-0.3,1-0.4,1.6-0.4
					c1.4,0,2.6,0.8,3,2.1l-0.4,0c0.2-0.6,0.6-1.2,1.2-1.6c1-0.7,2.4-0.7,3.5-0.1c0.5,0.3,0.9,0.7,1.2,1.2c0.3,0.5,0.5,1.1,0.5,1.7
					v5.8h-1.2v-5.3c0-0.5-0.1-1-0.3-1.4c-0.4-0.7-1.1-1.2-1.9-1.2c-0.4,0-0.8,0.1-1.1,0.3c-0.3,0.2-0.6,0.5-0.8,0.9
					c-0.2,0.4-0.3,0.9-0.3,1.4v5.3h-1.2v-5.3c0-0.5-0.1-1-0.3-1.4c-0.4-0.7-1.1-1.2-1.9-1.2c-0.8,0-1.6,0.4-2,1.2
					c-0.2,0.4-0.3,0.9-0.3,1.4v5.3L75.4,108.5z"/>
				<path id="Tracé_534" class="st2" d="M89.8,111.8V99.5h1.2v2l-0.2-0.4c0.4-0.6,0.8-1,1.4-1.3c0.6-0.3,1.3-0.5,2-0.5
					c0.8,0,1.6,0.2,2.3,0.6c0.7,0.4,1.2,1,1.6,1.7c0.8,1.5,0.8,3.3,0,4.8c-0.4,0.7-0.9,1.3-1.6,1.7c-0.7,0.4-1.5,0.6-2.3,0.6
					c-0.7,0-1.4-0.2-2.1-0.5c-0.6-0.3-1.1-0.9-1.4-1.5l0.2-0.2v5.3H89.8z M94.3,107.4c0.6,0,1.1-0.1,1.6-0.4
					c0.5-0.3,0.9-0.7,1.1-1.2c0.5-1.1,0.5-2.4,0-3.5c-0.3-0.5-0.6-0.9-1.1-1.2c-0.5-0.3-1-0.5-1.6-0.4c-0.6,0-1.1,0.1-1.6,0.4
					c-0.5,0.3-0.9,0.7-1.1,1.2c-0.6,1.1-0.6,2.4,0,3.5c0.3,0.5,0.7,0.9,1.1,1.2C93.1,107.3,93.7,107.4,94.3,107.4"/>
				<path id="Tracé_535" class="st2" d="M104.4,108.7c-0.8,0-1.6-0.2-2.3-0.6c-0.7-0.4-1.2-1-1.6-1.7c-0.8-1.5-0.8-3.3,0-4.8
					c1.3-2.2,4.1-2.9,6.3-1.7c0.7,0.4,1.2,1,1.6,1.6c0.4,0.7,0.6,1.6,0.6,2.4c0,0.8-0.2,1.7-0.6,2.4c-0.4,0.7-1,1.3-1.6,1.7
					C106,108.5,105.2,108.7,104.4,108.7 M104.4,107.4c0.6,0,1.1-0.1,1.6-0.4c0.5-0.3,0.9-0.7,1.1-1.2c0.3-0.5,0.4-1.1,0.4-1.7
					c0-0.6-0.1-1.2-0.4-1.7c-0.3-0.5-0.7-0.9-1.1-1.2c-1-0.6-2.2-0.6-3.2,0c-0.5,0.3-0.9,0.7-1.2,1.2c-0.3,0.5-0.4,1.1-0.4,1.7
					c0,0.6,0.1,1.2,0.4,1.7c0.3,0.5,0.7,0.9,1.2,1.2C103.2,107.3,103.8,107.4,104.4,107.4"/>
				<path id="Tracé_536" class="st2" d="M112.2,108.5l-3.1-8.9h1.4l2.5,7.8h-0.5l2.4-7.8h1.2l2.4,7.8h-0.5l2.5-7.8h1.4l-3.1,8.9
					h-1.2l-2.3-7.6h0.3l-2.3,7.6H112.2z"/>
				<path id="Tracé_537" class="st2" d="M126.7,108.7c-0.8,0-1.6-0.2-2.3-0.6c-0.7-0.4-1.2-1-1.6-1.7c-0.8-1.5-0.8-3.3,0-4.8
					c0.4-0.7,0.9-1.2,1.5-1.6c0.7-0.4,1.4-0.6,2.2-0.6c0.6,0,1.2,0.1,1.7,0.4c0.5,0.2,0.9,0.6,1.3,1c0.4,0.4,0.6,0.9,0.8,1.4
					c0.2,0.5,0.3,1,0.3,1.6c0,0.1,0,0.2,0,0.4c0,0.1,0,0.3-0.1,0.4H123v-1.2h6.8l-0.6,0.5c0.1-0.6,0-1.1-0.2-1.6
					c-0.2-0.5-0.6-0.9-1-1.1c-0.4-0.3-1-0.4-1.5-0.4c-0.5,0-1.1,0.1-1.5,0.4c-0.5,0.3-0.9,0.7-1.1,1.2c-0.3,0.6-0.4,1.2-0.3,1.8
					c-0.1,0.6,0,1.3,0.3,1.9c0.5,1,1.6,1.7,2.8,1.7c0.6,0,1.2-0.1,1.7-0.5c0.4-0.3,0.8-0.7,1.1-1.2l1.1,0.6
					c-0.2,0.4-0.5,0.8-0.8,1.1c-0.4,0.3-0.8,0.6-1.3,0.8C127.8,108.6,127.2,108.7,126.7,108.7"/>
				<path id="Tracé_538" class="st2" d="M132.1,108.5v-8.9h1.2v1.5l-0.2-0.2c0.2-0.4,0.5-0.8,1-1c0.5-0.3,1-0.4,1.6-0.4h0.6v1.2
					h-0.8c-0.6,0-1.1,0.2-1.5,0.6c-0.4,0.5-0.6,1.1-0.6,1.7v5.5L132.1,108.5z"/>
				<path id="Tracé_539" class="st2" d="M137,108.5v-8.9h1.2v1.7l-0.2-0.3c0.2-0.5,0.6-0.9,1.1-1.2c0.5-0.3,1-0.4,1.6-0.4
					c1.4,0,2.6,0.8,3,2.1l-0.4,0c0.2-0.6,0.6-1.2,1.2-1.6c1-0.7,2.4-0.7,3.5-0.1c0.5,0.3,0.9,0.7,1.2,1.2c0.3,0.5,0.5,1.1,0.5,1.7
					v5.8h-1.2v-5.3c0-0.5-0.1-1-0.3-1.4c-0.4-0.7-1.1-1.2-1.9-1.2c-0.4,0-0.8,0.1-1.1,0.3c-0.3,0.2-0.6,0.5-0.8,0.9
					c-0.2,0.4-0.3,0.9-0.3,1.4v5.3h-1.2v-5.3c0-0.5-0.1-1-0.3-1.4c-0.4-0.7-1.1-1.2-1.9-1.2c-0.8,0-1.6,0.4-2,1.2
					c-0.2,0.4-0.3,0.9-0.3,1.4v5.3L137,108.5z"/>
				<path id="Tracé_540" class="st2" d="M155.5,108.7c-0.8,0-1.6-0.2-2.3-0.6c-0.7-0.4-1.2-1-1.6-1.7c-0.8-1.5-0.8-3.3,0-4.8
					c0.4-0.7,0.9-1.2,1.5-1.6c0.7-0.4,1.4-0.6,2.2-0.6c0.6,0,1.2,0.1,1.7,0.4c0.5,0.2,0.9,0.6,1.3,1c0.4,0.4,0.6,0.9,0.8,1.4
					c0.2,0.5,0.3,1,0.3,1.6c0,0.1,0,0.2,0,0.4c0,0.1,0,0.3,0,0.4h-7.5v-1.2h6.8l-0.6,0.5c0.1-0.6,0-1.1-0.2-1.6
					c-0.2-0.5-0.6-0.9-1-1.1c-0.4-0.3-1-0.4-1.5-0.4c-0.5,0-1.1,0.1-1.5,0.4c-0.5,0.3-0.9,0.7-1.1,1.2c-0.3,0.6-0.4,1.2-0.3,1.8
					c-0.1,0.6,0,1.3,0.3,1.9c0.3,0.5,0.7,0.9,1.2,1.2c0.5,0.3,1,0.4,1.6,0.4c0.6,0,1.2-0.1,1.6-0.5c0.4-0.3,0.8-0.7,1.1-1.2l1.1,0.6
					c-0.2,0.4-0.5,0.8-0.8,1.1c-0.4,0.3-0.8,0.6-1.3,0.8C156.6,108.6,156.1,108.7,155.5,108.7"/>
				<path id="Tracé_541" class="st2" d="M161,108.5v-8.9h1.2v1.7l-0.3-0.1c0.2-0.6,0.6-1,1.1-1.4c0.5-0.3,1.1-0.5,1.8-0.5
					c0.6,0,1.2,0.1,1.7,0.4c0.5,0.3,0.9,0.7,1.2,1.2c0.3,0.5,0.4,1.1,0.4,1.7v5.8h-1.2v-5.3c0-0.5-0.1-1-0.3-1.4
					c-0.2-0.4-0.5-0.7-0.8-0.9c-0.4-0.2-0.8-0.3-1.2-0.3c-0.4,0-0.8,0.1-1.2,0.3c-0.4,0.2-0.6,0.5-0.8,0.9c-0.2,0.4-0.3,0.9-0.3,1.4
					v5.3L161,108.5z"/>
				<path id="Tracé_542" class="st2" d="M173.2,108.6c-0.7,0-1.4-0.2-1.8-0.7c-0.5-0.6-0.7-1.3-0.6-2v-5.1h-1.6v-1.3h0.4
					c0.3,0,0.7-0.1,0.9-0.4c0.2-0.3,0.3-0.6,0.3-0.9v-0.7h1.2v2.1h2v1.2h-2v5.1c0,0.3,0,0.5,0.1,0.8c0.1,0.2,0.2,0.4,0.5,0.5
					c0.3,0.1,0.6,0.2,0.9,0.2c0.1,0,0.2,0,0.3,0s0.2,0,0.3,0v1.1c-0.1,0-0.3,0.1-0.4,0.1C173.4,108.6,173.3,108.6,173.2,108.6"/>
				<path id="Tracé_543" class="st2" d="M175.6,110.6V110c0.3-0.1,0.6-0.3,0.7-0.5c0.2-0.3,0.3-0.7,0.2-1.1h-0.6v-1.8h1.3v1.4
					c0,0.6-0.1,1.2-0.4,1.7C176.5,110.2,176.1,110.5,175.6,110.6"/>
				<path id="Tracé_544" class="st2" d="M184.5,108.7c-0.8,0-1.6-0.2-2.2-0.6c-0.6-0.4-1.1-1-1.4-1.8l1-0.5c0.2,0.5,0.6,1,1.1,1.3
					c0.4,0.3,1,0.5,1.5,0.5c0.5,0,1-0.1,1.3-0.4c0.3-0.2,0.6-0.6,0.5-1c0-0.3-0.1-0.5-0.3-0.7c-0.2-0.2-0.4-0.3-0.6-0.4
					c-0.2-0.1-0.4-0.2-0.6-0.2l-1.3-0.4c-0.7-0.1-1.3-0.5-1.8-1c-0.4-0.4-0.6-0.9-0.5-1.5c0-0.5,0.1-1,0.4-1.4
					c0.3-0.4,0.6-0.7,1.1-0.9c0.5-0.2,1-0.3,1.5-0.3c0.7,0,1.4,0.2,2.1,0.6c0.6,0.4,1.1,1,1.3,1.6l-1.1,0.5c-0.2-0.5-0.5-0.9-1-1.2
					c-0.4-0.3-0.9-0.4-1.4-0.4c-0.4,0-0.9,0.1-1.2,0.4c-0.3,0.2-0.5,0.6-0.4,1c0,0.3,0.1,0.5,0.2,0.7c0.1,0.2,0.3,0.3,0.5,0.4
					c0.2,0.1,0.4,0.1,0.5,0.2l1.5,0.4c0.6,0.2,1.2,0.5,1.7,1c0.7,0.8,0.8,2,0.2,2.9c-0.3,0.4-0.7,0.7-1.1,0.9
					C185.7,108.6,185.1,108.7,184.5,108.7"/>
				<path id="Tracé_545" class="st2" d="M189.2,111.8V99.5h1.2v2l-0.2-0.4c0.4-0.6,0.8-1,1.4-1.3c0.6-0.3,1.3-0.5,2-0.5
					c0.8,0,1.6,0.2,2.3,0.6c0.7,0.4,1.2,1,1.6,1.7c0.8,1.5,0.8,3.3,0,4.8c-0.4,0.7-0.9,1.3-1.6,1.7c-0.7,0.4-1.5,0.6-2.3,0.6
					c-0.7,0-1.4-0.2-2.1-0.5c-0.6-0.3-1.1-0.9-1.4-1.5l0.2-0.2v5.3H189.2z M193.6,107.4c0.6,0,1.1-0.1,1.6-0.4
					c0.5-0.3,0.9-0.7,1.1-1.2c0.5-1.1,0.5-2.4,0-3.5c-0.3-0.5-0.6-0.9-1.1-1.2c-0.5-0.3-1-0.5-1.6-0.4c-0.6,0-1.1,0.1-1.6,0.4
					c-0.5,0.3-0.9,0.7-1.1,1.2c-0.6,1.1-0.6,2.4,0,3.5c0.3,0.5,0.7,0.9,1.1,1.2C192.5,107.3,193.1,107.4,193.6,107.4"/>
				<path id="Tracé_546" class="st2" d="M203.7,108.7c-0.8,0-1.6-0.2-2.3-0.6c-0.7-0.4-1.2-1-1.6-1.7c-0.8-1.5-0.8-3.3,0-4.8
					c1.3-2.2,4.1-2.9,6.3-1.7c0.7,0.4,1.2,1,1.6,1.7c0.4,0.7,0.6,1.6,0.6,2.4c0,0.8-0.2,1.7-0.6,2.4c-0.4,0.7-1,1.3-1.6,1.7
					C205.3,108.5,204.5,108.7,203.7,108.7 M203.8,107.4c0.6,0,1.1-0.1,1.6-0.4c0.5-0.3,0.9-0.7,1.1-1.2c0.3-0.5,0.4-1.1,0.4-1.7
					c0-0.6-0.1-1.2-0.4-1.7c-0.3-0.5-0.7-0.9-1.1-1.2c-1-0.6-2.2-0.6-3.2,0c-0.5,0.3-0.9,0.7-1.2,1.2c-0.3,0.5-0.4,1.1-0.4,1.7
					c0,0.6,0.1,1.2,0.4,1.7c0.3,0.5,0.7,0.9,1.2,1.2C202.6,107.3,203.2,107.4,203.8,107.4"/>
				<path id="Tracé_547" class="st2" d="M209.8,108.5v-8.9h1.2v1.5l-0.2-0.2c0.2-0.4,0.5-0.8,1-1c0.5-0.3,1-0.4,1.6-0.4h0.6v1.2
					h-0.8c-0.6,0-1.1,0.2-1.5,0.6c-0.4,0.5-0.6,1.1-0.6,1.7v5.5L209.8,108.5z"/>
				<path id="Tracé_548" class="st2" d="M218.1,108.6c-0.7,0-1.4-0.2-1.8-0.7c-0.5-0.6-0.7-1.3-0.6-2v-5.1h-1.6v-1.3h0.4
					c0.3,0,0.7-0.1,0.9-0.4c0.2-0.3,0.3-0.6,0.3-0.9v-0.7h1.2v2.1h2v1.2h-2v5.1c0,0.3,0,0.5,0.1,0.8c0.1,0.2,0.2,0.4,0.5,0.5
					c0.3,0.1,0.6,0.2,0.9,0.2c0.1,0,0.2,0,0.3,0s0.2,0,0.3,0v1.1c-0.1,0-0.3,0.1-0.4,0.1C218.3,108.6,218.2,108.6,218.1,108.6"/>
				<path id="Tracé_549" class="st2" d="M223.5,108.7c-0.8,0-1.6-0.2-2.2-0.6c-0.6-0.4-1.1-1-1.4-1.8l1-0.5c0.2,0.5,0.6,1,1.1,1.3
					c0.4,0.3,1,0.5,1.5,0.5c0.5,0,1-0.1,1.3-0.4c0.3-0.2,0.6-0.6,0.5-1c0-0.3-0.1-0.5-0.3-0.7c-0.2-0.2-0.4-0.3-0.6-0.4
					c-0.2-0.1-0.4-0.2-0.6-0.2l-1.3-0.4c-0.7-0.1-1.3-0.5-1.8-1c-0.4-0.4-0.6-0.9-0.5-1.5c0-0.5,0.1-1,0.4-1.4
					c0.3-0.4,0.6-0.7,1.1-0.9c0.5-0.2,1-0.3,1.5-0.3c0.7,0,1.4,0.2,2.1,0.6c0.6,0.4,1.1,1,1.3,1.6l-1.1,0.5c-0.2-0.5-0.5-0.9-1-1.2
					c-0.4-0.3-0.9-0.4-1.4-0.4c-0.4,0-0.9,0.1-1.2,0.4c-0.3,0.2-0.5,0.6-0.4,1c0,0.3,0.1,0.5,0.2,0.7c0.1,0.2,0.3,0.3,0.5,0.4
					c0.2,0.1,0.4,0.1,0.5,0.2l1.5,0.4c0.6,0.2,1.2,0.5,1.7,1c0.7,0.8,0.8,2,0.2,2.9c-0.3,0.4-0.7,0.7-1.1,0.9
					C224.6,108.6,224.1,108.7,223.5,108.7"/>
				<path id="Tracé_550" class="st2" d="M234.3,108.7c-0.8,0-1.6-0.2-2.3-0.6c-0.7-0.4-1.2-1-1.6-1.7c-0.8-1.5-0.8-3.3,0-4.8
					c0.4-0.7,0.9-1.2,1.5-1.6c0.7-0.4,1.4-0.6,2.2-0.6c0.6,0,1.2,0.1,1.7,0.4c0.5,0.2,0.9,0.6,1.3,1c0.4,0.4,0.6,0.9,0.8,1.4
					c0.2,0.5,0.3,1,0.3,1.6c0,0.1,0,0.2,0,0.4s0,0.3,0,0.4h-7.5v-1.2h6.8l-0.6,0.5c0.1-0.6,0-1.1-0.2-1.6c-0.2-0.5-0.6-0.9-1-1.1
					c-0.4-0.3-1-0.4-1.5-0.4c-0.5,0-1.1,0.1-1.5,0.4c-0.5,0.3-0.9,0.7-1.1,1.2c-0.3,0.6-0.4,1.2-0.3,1.8c-0.1,0.6,0,1.3,0.3,1.9
					c0.3,0.5,0.7,0.9,1.2,1.2c0.5,0.3,1,0.4,1.6,0.4c0.6,0,1.2-0.1,1.6-0.5c0.4-0.3,0.8-0.7,1.1-1.2l1.1,0.6
					c-0.2,0.4-0.5,0.8-0.8,1.1c-0.4,0.3-0.8,0.6-1.3,0.8C235.5,108.6,234.9,108.7,234.3,108.7"/>
				<path id="Tracé_551" class="st2" d="M242,108.5l-3.5-8.9h1.4l2.9,7.8h-0.4l2.9-7.8h1.4l-3.5,8.9H242z"/>
				<path id="Tracé_552" class="st2" d="M251.5,108.7c-0.8,0-1.6-0.2-2.3-0.6c-0.7-0.4-1.2-1-1.6-1.7c-0.8-1.5-0.8-3.3,0-4.8
					c1.3-2.2,4.1-2.9,6.3-1.7c0.7,0.4,1.2,1,1.6,1.6c0.4,0.7,0.6,1.6,0.6,2.4c0,0.8-0.2,1.7-0.6,2.4c-0.4,0.7-1,1.3-1.6,1.7
					C253.1,108.5,252.3,108.7,251.5,108.7 M251.5,107.4c0.6,0,1.1-0.1,1.6-0.4c0.5-0.3,0.9-0.7,1.1-1.2c0.3-0.5,0.4-1.1,0.4-1.7
					c0-0.6-0.1-1.2-0.4-1.7c-0.3-0.5-0.7-0.9-1.1-1.2c-1-0.6-2.2-0.6-3.2,0c-0.5,0.3-0.9,0.7-1.2,1.2c-0.3,0.5-0.4,1.1-0.4,1.7
					c0,0.6,0.1,1.2,0.4,1.7c0.3,0.5,0.7,0.9,1.2,1.2C250.4,107.3,251,107.4,251.5,107.4"/>
				<rect id="Rectangle_138" x="257.6" y="95.9" class="st2" width="1.2" height="12.6"/>
				<path id="Tracé_553" class="st2" d="M263.8,108.7c-0.6,0-1.2-0.1-1.7-0.4c-0.5-0.3-0.9-0.7-1.2-1.2c-0.3-0.6-0.5-1.2-0.4-1.8
					v-5.6h1.2v5.5c0,0.4,0.1,0.9,0.3,1.3c0.2,0.4,0.5,0.6,0.8,0.8c0.8,0.4,1.7,0.4,2.4,0c0.4-0.2,0.6-0.5,0.8-0.9
					c0.2-0.4,0.3-0.9,0.3-1.4v-5.3h1.2v8.9h-1.2v-1.7l0.3,0.1c-0.2,0.6-0.6,1-1.1,1.4C265,108.5,264.4,108.7,263.8,108.7"/>
				<path id="Tracé_554" class="st2" d="M272.9,108.6c-0.7,0-1.4-0.2-1.8-0.7c-0.5-0.6-0.7-1.3-0.6-2v-5.1h-1.6v-1.3h0.4
					c0.3,0,0.7-0.1,0.9-0.4c0.2-0.3,0.3-0.6,0.3-0.9v-0.7h1.2v2.1h2v1.2h-2v5.1c0,0.3,0,0.5,0.1,0.8c0.1,0.2,0.2,0.4,0.5,0.5
					c0.3,0.1,0.6,0.2,0.9,0.2c0.1,0,0.2,0,0.3,0s0.2,0,0.3,0v1.1c-0.1,0-0.3,0.1-0.4,0.1C273.1,108.6,273,108.6,272.9,108.6"/>
				<path id="Tracé_555" class="st2" d="M275.2,96.1h1.2v1.8h-1.2V96.1z M275.2,99.5h1.2v8.9h-1.2V99.5z"/>
				<path id="Tracé_556" class="st2" d="M282.5,108.7c-0.8,0-1.6-0.2-2.3-0.6c-0.7-0.4-1.3-1-1.6-1.7c-0.8-1.5-0.8-3.3,0-4.8
					c1.3-2.2,4.1-2.9,6.3-1.7c0.7,0.4,1.2,1,1.6,1.6c0.4,0.7,0.6,1.6,0.6,2.4c0,0.8-0.2,1.7-0.6,2.4c-0.4,0.7-1,1.3-1.6,1.7
					C284.1,108.5,283.3,108.7,282.5,108.7 M282.5,107.4c0.6,0,1.1-0.1,1.6-0.4c0.5-0.3,0.9-0.7,1.1-1.2c0.3-0.5,0.4-1.1,0.4-1.7
					c0-0.6-0.1-1.2-0.4-1.7c-0.3-0.5-0.7-0.9-1.1-1.2c-1-0.6-2.2-0.6-3.2,0c-0.5,0.3-0.9,0.7-1.2,1.2c-0.3,0.5-0.4,1.1-0.4,1.7
					c0,0.6,0.1,1.2,0.4,1.7c0.3,0.5,0.7,0.9,1.2,1.2C281.4,107.3,281.9,107.4,282.5,107.4"/>
				<path id="Tracé_557" class="st2" d="M288.5,108.5v-8.9h1.2v1.7l-0.3-0.1c0.2-0.6,0.6-1,1.1-1.4c0.5-0.3,1.1-0.5,1.8-0.5
					c0.6,0,1.2,0.1,1.7,0.4c0.5,0.3,0.9,0.7,1.2,1.2c0.3,0.5,0.4,1.1,0.4,1.7v5.8h-1.2v-5.3c0-0.5-0.1-1-0.3-1.4
					c-0.2-0.4-0.5-0.7-0.8-0.9c-0.4-0.2-0.8-0.3-1.2-0.3c-0.4,0-0.8,0.1-1.2,0.3c-0.4,0.2-0.6,0.5-0.8,0.9c-0.2,0.4-0.3,0.9-0.3,1.4
					v5.3L288.5,108.5z"/>
				<path id="Tracé_558" class="st2" d="M297.4,110.6V110c0.3-0.1,0.6-0.3,0.7-0.5c0.2-0.3,0.3-0.7,0.2-1.1h-0.6v-1.8h1.3v1.4
					c0,0.6-0.1,1.2-0.4,1.7C298.3,110.2,297.9,110.5,297.4,110.6"/>
				<path id="Tracé_559" class="st2" d="M307.3,108.7c-0.8,0-1.6-0.2-2.3-0.6c-0.7-0.4-1.2-1-1.6-1.7c-0.8-1.5-0.8-3.3,0-4.8
					c0.4-0.7,0.9-1.2,1.5-1.6c0.7-0.4,1.4-0.6,2.2-0.6c0.6,0,1.2,0.1,1.7,0.4c0.5,0.2,0.9,0.6,1.3,1c0.4,0.4,0.6,0.9,0.8,1.4
					c0.2,0.5,0.3,1,0.3,1.6c0,0.1,0,0.2,0,0.4s0,0.3,0,0.4h-7.5v-1.2h6.8l-0.6,0.5c0.1-0.6,0-1.1-0.2-1.6c-0.2-0.5-0.6-0.9-1-1.1
					c-0.4-0.3-1-0.4-1.5-0.4c-0.5,0-1.1,0.1-1.5,0.4c-0.5,0.3-0.9,0.7-1.1,1.2c-0.3,0.6-0.4,1.2-0.3,1.8c-0.1,0.6,0,1.3,0.3,1.9
					c0.3,0.5,0.7,0.9,1.2,1.2c0.5,0.3,1,0.4,1.6,0.4c0.6,0,1.2-0.1,1.6-0.5c0.4-0.3,0.8-0.7,1.1-1.2l1.1,0.6
					c-0.2,0.4-0.5,0.8-0.8,1.1c-0.4,0.3-0.8,0.6-1.3,0.8C308.4,108.6,307.8,108.7,307.3,108.7"/>
				<path id="Tracé_560" class="st2" d="M312.7,108.5v-8.9h1.2v1.7l-0.3-0.1c0.2-0.6,0.6-1,1.1-1.4c0.5-0.3,1.1-0.5,1.8-0.5
					c0.6,0,1.2,0.1,1.7,0.4c0.5,0.3,0.9,0.7,1.2,1.2c0.3,0.5,0.4,1.1,0.4,1.7v5.8h-1.2v-5.3c0-0.5-0.1-1-0.3-1.4
					c-0.2-0.4-0.5-0.7-0.8-0.9c-0.4-0.2-0.8-0.3-1.2-0.3c-0.4,0-0.8,0.1-1.2,0.3c-0.4,0.2-0.6,0.5-0.8,0.9c-0.2,0.4-0.3,0.9-0.3,1.4
					v5.3L312.7,108.5z"/>
				<path id="Tracé_561" class="st2" d="M325.6,108.7c-0.8,0-1.6-0.2-2.2-0.6c-0.7-0.4-1.2-1-1.6-1.7c-0.8-1.5-0.8-3.3,0-4.8
					c0.4-0.7,0.9-1.3,1.6-1.7c0.7-0.4,1.5-0.6,2.3-0.6c0.7,0,1.4,0.2,2,0.5c0.6,0.3,1.1,0.8,1.4,1.3l-0.2,0.4v-5.7h1.2v12.6h-1.3v-2
					l0.2,0.2c-0.3,0.6-0.8,1.1-1.4,1.5C327,108.5,326.3,108.7,325.6,108.7 M325.7,107.4c0.6,0,1.1-0.1,1.6-0.4
					c0.5-0.3,0.9-0.7,1.1-1.2c0.6-1.1,0.6-2.4,0-3.5c-0.3-0.5-0.7-0.9-1.1-1.2c-0.5-0.3-1-0.5-1.6-0.4c-0.6,0-1.1,0.1-1.6,0.4
					c-0.5,0.3-0.9,0.7-1.1,1.2c-0.5,1.1-0.5,2.4,0,3.5c0.3,0.5,0.6,0.9,1.1,1.2C324.5,107.3,325.1,107.4,325.7,107.4"/>
				<rect id="Rectangle_139" x="332" y="95.9" class="st2" width="1.2" height="12.6"/>
				<path id="Tracé_562" class="st2" d="M339.1,108.7c-0.8,0-1.6-0.2-2.3-0.6c-0.7-0.4-1.2-1-1.6-1.7c-0.8-1.5-0.8-3.3,0-4.8
					c0.4-0.7,0.9-1.2,1.5-1.6c0.7-0.4,1.4-0.6,2.2-0.6c0.6,0,1.2,0.1,1.7,0.4c0.5,0.2,0.9,0.6,1.3,1c0.4,0.4,0.6,0.9,0.8,1.4
					c0.2,0.5,0.3,1,0.3,1.6c0,0.1,0,0.2,0,0.4s0,0.3,0,0.4h-7.5v-1.2h6.8l-0.6,0.5c0.1-0.6,0-1.1-0.2-1.6c-0.2-0.5-0.6-0.9-1-1.1
					c-0.4-0.3-1-0.4-1.5-0.4c-0.5,0-1.1,0.1-1.5,0.4c-0.5,0.3-0.9,0.7-1.1,1.2c-0.3,0.6-0.4,1.2-0.3,1.8c-0.1,0.6,0,1.3,0.3,1.9
					c0.3,0.5,0.7,0.9,1.2,1.2c0.5,0.3,1,0.4,1.6,0.4c0.6,0,1.2-0.1,1.6-0.5c0.4-0.3,0.8-0.7,1.1-1.2l1.1,0.6
					c-0.2,0.4-0.5,0.8-0.8,1.1c-0.4,0.3-0.8,0.6-1.3,0.8C340.2,108.6,339.7,108.7,339.1,108.7"/>
				<path id="Tracé_563" class="st2" d="M347.7,108.7c-0.8,0-1.6-0.2-2.2-0.6c-0.6-0.4-1.1-1-1.4-1.8l1-0.5c0.2,0.5,0.6,1,1.1,1.3
					c0.4,0.3,1,0.5,1.5,0.5c0.5,0,1-0.1,1.3-0.4c0.3-0.2,0.6-0.6,0.5-1c0-0.3-0.1-0.5-0.3-0.7c-0.2-0.2-0.4-0.3-0.6-0.4
					c-0.2-0.1-0.4-0.2-0.6-0.2l-1.3-0.4c-0.7-0.1-1.3-0.5-1.8-1c-0.4-0.4-0.6-0.9-0.5-1.5c0-0.5,0.1-1,0.4-1.4
					c0.3-0.4,0.6-0.7,1.1-0.9c0.5-0.2,1-0.3,1.5-0.3c0.7,0,1.4,0.2,2.1,0.6c0.6,0.4,1.1,1,1.3,1.6l-1.1,0.5c-0.2-0.5-0.5-0.9-1-1.2
					c-0.4-0.3-0.9-0.4-1.4-0.4c-0.4,0-0.9,0.1-1.2,0.4c-0.3,0.2-0.5,0.6-0.4,1c0,0.3,0.1,0.5,0.2,0.7c0.1,0.2,0.3,0.3,0.5,0.4
					c0.2,0.1,0.4,0.1,0.5,0.2l1.5,0.4c0.6,0.2,1.2,0.5,1.7,1c0.7,0.8,0.8,2,0.2,2.9c-0.3,0.4-0.7,0.7-1.1,0.9
					C348.8,108.6,348.2,108.7,347.7,108.7"/>
				<path id="Tracé_564" class="st2" d="M355.4,108.7c-0.8,0-1.6-0.2-2.2-0.6c-0.6-0.4-1.1-1-1.4-1.8l1-0.5c0.2,0.5,0.6,1,1.1,1.3
					c0.4,0.3,1,0.5,1.5,0.5c0.5,0,1-0.1,1.3-0.4c0.3-0.2,0.6-0.6,0.5-1c0-0.3-0.1-0.5-0.3-0.7c-0.2-0.2-0.4-0.3-0.6-0.4
					c-0.2-0.1-0.4-0.2-0.6-0.2l-1.3-0.4c-0.7-0.1-1.3-0.5-1.8-1c-0.4-0.4-0.6-0.9-0.5-1.5c0-0.5,0.1-1,0.4-1.4
					c0.3-0.4,0.6-0.7,1.1-0.9c0.5-0.2,1-0.3,1.5-0.3c0.7,0,1.4,0.2,2.1,0.6c0.6,0.4,1.1,1,1.3,1.6l-1.1,0.5c-0.2-0.5-0.5-0.9-1-1.2
					c-0.4-0.3-0.9-0.4-1.4-0.4c-0.4,0-0.9,0.1-1.2,0.4c-0.3,0.2-0.5,0.6-0.5,1c0,0.3,0.1,0.5,0.2,0.7c0.1,0.2,0.3,0.3,0.5,0.4
					c0.2,0.1,0.4,0.1,0.5,0.2l1.5,0.4c0.6,0.2,1.2,0.5,1.7,1c0.7,0.8,0.8,2,0.2,2.9c-0.3,0.4-0.7,0.7-1.1,0.9
					C356.6,108.6,356,108.7,355.4,108.7"/>
				<path id="Tracé_565" class="st2" d="M362.2,111.8V99.5h1.2v2l-0.2-0.4c0.4-0.6,0.8-1,1.4-1.3c0.6-0.3,1.3-0.5,2-0.5
					c0.8,0,1.6,0.2,2.3,0.6c0.7,0.4,1.2,1,1.6,1.7c0.8,1.5,0.8,3.3,0,4.8c-0.4,0.7-0.9,1.3-1.6,1.7c-0.7,0.4-1.5,0.6-2.3,0.6
					c-0.7,0-1.4-0.2-2.1-0.5c-0.6-0.3-1.1-0.9-1.4-1.5l0.2-0.2v5.3H362.2z M366.6,107.4c0.6,0,1.1-0.1,1.6-0.4
					c0.5-0.3,0.9-0.7,1.1-1.2c0.5-1.1,0.5-2.4,0-3.5c-0.3-0.5-0.6-0.9-1.1-1.2c-0.5-0.3-1-0.5-1.6-0.4c-0.6,0-1.1,0.1-1.6,0.4
					c-0.5,0.3-0.9,0.7-1.1,1.2c-0.6,1.1-0.6,2.4,0,3.5c0.3,0.5,0.7,0.9,1.1,1.2C365.5,107.3,366.1,107.4,366.6,107.4"/>
				<path id="Tracé_566" class="st2" d="M376.8,108.7c-0.8,0-1.6-0.2-2.3-0.6c-0.7-0.4-1.2-1-1.6-1.7c-0.8-1.5-0.8-3.3,0-4.8
					c1.3-2.2,4.1-2.9,6.3-1.7c0.7,0.4,1.2,1,1.6,1.6c0.4,0.7,0.6,1.6,0.6,2.4c0,0.8-0.2,1.7-0.6,2.4c-0.4,0.7-1,1.3-1.6,1.7
					C378.3,108.5,377.6,108.7,376.8,108.7 M376.8,107.4c0.6,0,1.1-0.1,1.6-0.4c0.5-0.3,0.9-0.7,1.1-1.2c0.3-0.5,0.4-1.1,0.4-1.7
					c0-0.6-0.1-1.2-0.4-1.7c-0.3-0.5-0.7-0.9-1.1-1.2c-1-0.6-2.2-0.6-3.2,0c-0.5,0.3-0.9,0.7-1.2,1.2c-0.3,0.5-0.4,1.1-0.4,1.7
					c0,0.6,0.1,1.2,0.4,1.7c0.3,0.5,0.7,0.9,1.2,1.2C375.6,107.3,376.2,107.4,376.8,107.4"/>
				<path id="Tracé_567" class="st2" d="M385.9,108.7c-0.8,0-1.6-0.2-2.2-0.6c-0.6-0.4-1.1-1-1.4-1.8l1-0.5c0.2,0.5,0.6,1,1.1,1.3
					c0.4,0.3,1,0.5,1.5,0.5c0.5,0,1-0.1,1.3-0.4c0.3-0.2,0.6-0.6,0.5-1c0-0.3-0.1-0.5-0.3-0.7c-0.2-0.2-0.4-0.3-0.6-0.4
					c-0.2-0.1-0.4-0.2-0.6-0.2l-1.3-0.4c-0.7-0.1-1.3-0.5-1.8-1c-0.4-0.4-0.6-0.9-0.5-1.5c0-0.5,0.1-1,0.4-1.4
					c0.3-0.4,0.6-0.7,1.1-0.9c0.5-0.2,1-0.3,1.5-0.3c0.7,0,1.4,0.2,2.1,0.6c0.6,0.4,1.1,1,1.3,1.6l-1.1,0.5c-0.2-0.5-0.5-0.9-1-1.2
					c-0.4-0.3-0.9-0.4-1.4-0.4c-0.4,0-0.9,0.1-1.2,0.4c-0.3,0.2-0.5,0.6-0.5,1c0,0.3,0.1,0.5,0.2,0.7c0.1,0.2,0.3,0.3,0.5,0.4
					c0.2,0.1,0.4,0.1,0.5,0.2l1.5,0.4c0.6,0.2,1.2,0.5,1.7,1c0.7,0.8,0.8,2,0.2,2.9c-0.3,0.4-0.7,0.7-1.1,0.9
					C387,108.6,386.4,108.7,385.9,108.7"/>
				<path id="Tracé_568" class="st2" d="M393.6,108.7c-0.8,0-1.6-0.2-2.2-0.6c-0.6-0.4-1.1-1-1.4-1.8l1-0.5c0.2,0.5,0.6,1,1.1,1.3
					c0.4,0.3,1,0.5,1.5,0.5c0.5,0,1-0.1,1.3-0.4c0.3-0.2,0.6-0.6,0.5-1c0-0.3-0.1-0.5-0.3-0.7c-0.2-0.2-0.4-0.3-0.6-0.4
					c-0.2-0.1-0.4-0.2-0.6-0.2l-1.3-0.4c-0.7-0.1-1.3-0.5-1.8-1c-0.4-0.4-0.6-0.9-0.5-1.5c0-0.5,0.1-1,0.4-1.4
					c0.3-0.4,0.6-0.7,1.1-0.9c0.5-0.2,1-0.3,1.5-0.3c0.7,0,1.4,0.2,2.1,0.6c0.6,0.4,1.1,1,1.3,1.6l-1.1,0.5c-0.2-0.5-0.5-0.9-1-1.2
					c-0.4-0.3-0.9-0.4-1.4-0.4c-0.4,0-0.9,0.1-1.2,0.4c-0.3,0.2-0.5,0.6-0.5,1c0,0.3,0.1,0.5,0.2,0.7c0.1,0.2,0.3,0.3,0.5,0.4
					c0.2,0.1,0.4,0.1,0.5,0.2l1.5,0.4c0.6,0.2,1.2,0.5,1.7,1c0.7,0.8,0.8,2,0.2,2.9c-0.3,0.4-0.7,0.7-1.1,0.9
					C394.8,108.6,394.2,108.7,393.6,108.7"/>
				<path id="Tracé_569" class="st2" d="M398.3,96.1h1.2v1.8h-1.2V96.1z M398.3,99.5h1.2v8.9h-1.2V99.5z"/>
				<path id="Tracé_570" class="st2" d="M405.9,108.7c-0.7,0-1.4-0.2-2.1-0.5c-0.6-0.3-1.1-0.9-1.4-1.5l0.2-0.2v2h-1.2V95.9h1.2
					v5.7l-0.2-0.4c0.4-0.6,0.8-1,1.4-1.3c0.6-0.3,1.3-0.5,2-0.5c0.8,0,1.6,0.2,2.3,0.6c0.7,0.4,1.2,1,1.6,1.7c0.8,1.5,0.8,3.3,0,4.8
					c-0.4,0.7-0.9,1.3-1.6,1.7C407.5,108.5,406.7,108.7,405.9,108.7 M405.8,107.4c0.6,0,1.1-0.1,1.6-0.4c0.5-0.3,0.9-0.7,1.1-1.2
					c0.5-1.1,0.5-2.4,0-3.5c-0.3-0.5-0.6-0.9-1.1-1.2c-0.5-0.3-1-0.5-1.6-0.4c-0.6,0-1.1,0.1-1.6,0.4c-0.5,0.3-0.9,0.7-1.1,1.2
					c-0.6,1.1-0.6,2.4,0,3.5c0.3,0.5,0.7,0.9,1.1,1.2C404.7,107.3,405.3,107.4,405.8,107.4"/>
				<path id="Tracé_571" class="st2" d="M411.8,96.1h1.2v1.8h-1.2V96.1z M411.8,99.5h1.2v8.9h-1.2V99.5z"/>
				<rect id="Rectangle_140" x="414.9" y="95.9" class="st2" width="1.2" height="12.6"/>
				<path id="Tracé_572" class="st2" d="M418,96.1h1.2v1.8H418V96.1z M418,99.5h1.2v8.9H418V99.5z"/>
				<path id="Tracé_573" class="st2" d="M424.5,108.6c-0.7,0-1.4-0.2-1.8-0.7c-0.5-0.6-0.7-1.3-0.6-2v-5.1h-1.6v-1.3h0.4
					c0.3,0,0.7-0.1,0.9-0.4c0.2-0.3,0.3-0.6,0.3-0.9v-0.7h1.2v2.1h2v1.2h-2v5.1c0,0.3,0,0.5,0.1,0.8c0.1,0.2,0.2,0.4,0.5,0.5
					c0.3,0.1,0.6,0.2,0.9,0.2c0.1,0,0.2,0,0.3,0s0.2,0,0.3,0v1.1c-0.1,0-0.3,0.1-0.5,0.1C424.7,108.6,424.6,108.6,424.5,108.6"/>
				<path id="Tracé_574" class="st2" d="M426.8,96.1h1.2v1.8h-1.2V96.1z M426.8,99.5h1.2v8.9h-1.2V99.5z"/>
				<path id="Tracé_575" class="st2" d="M434,108.7c-0.8,0-1.6-0.2-2.3-0.6c-0.7-0.4-1.2-1-1.6-1.7c-0.8-1.5-0.8-3.3,0-4.8
					c0.4-0.7,0.9-1.2,1.5-1.6c0.7-0.4,1.4-0.6,2.2-0.6c0.6,0,1.2,0.1,1.7,0.4c0.5,0.2,0.9,0.6,1.3,1c0.4,0.4,0.6,0.9,0.8,1.4
					c0.2,0.5,0.3,1,0.3,1.6c0,0.1,0,0.2,0,0.4s0,0.3,0,0.4h-7.5v-1.2h6.8l-0.6,0.5c0.1-0.6,0-1.1-0.2-1.6c-0.2-0.5-0.6-0.9-1-1.1
					c-0.4-0.3-1-0.4-1.5-0.4c-0.5,0-1.1,0.1-1.5,0.4c-0.5,0.3-0.9,0.7-1.1,1.2c-0.3,0.6-0.4,1.2-0.3,1.8c-0.1,0.6,0,1.3,0.3,1.9
					c0.3,0.5,0.7,0.9,1.2,1.2c0.5,0.3,1,0.4,1.6,0.4c0.6,0,1.2-0.1,1.6-0.5c0.4-0.3,0.8-0.7,1.1-1.2l1.1,0.6
					c-0.2,0.4-0.5,0.8-0.8,1.1c-0.4,0.3-0.8,0.6-1.3,0.8C435.1,108.6,434.5,108.7,434,108.7"/>
				<path id="Tracé_576" class="st2" d="M442.5,108.7c-0.8,0-1.6-0.2-2.2-0.6c-0.6-0.4-1.1-1-1.4-1.8l1-0.5c0.2,0.5,0.6,1,1.1,1.3
					c0.4,0.3,1,0.5,1.5,0.5c0.5,0,1-0.1,1.3-0.4c0.3-0.2,0.6-0.6,0.5-1c0-0.3-0.1-0.5-0.3-0.7c-0.2-0.2-0.4-0.3-0.6-0.4
					c-0.2-0.1-0.4-0.2-0.6-0.2l-1.3-0.4c-0.7-0.1-1.3-0.5-1.8-1c-0.4-0.4-0.6-0.9-0.5-1.5c0-0.5,0.1-1,0.4-1.4
					c0.3-0.4,0.6-0.7,1.1-0.9c0.5-0.2,1-0.3,1.5-0.3c0.7,0,1.4,0.2,2.1,0.6c0.6,0.4,1.1,1,1.3,1.6l-1.1,0.5c-0.2-0.5-0.5-0.9-1-1.2
					c-0.4-0.3-0.9-0.4-1.4-0.4c-0.4,0-0.9,0.1-1.2,0.4c-0.3,0.2-0.5,0.6-0.4,1c0,0.3,0.1,0.5,0.2,0.7c0.1,0.2,0.3,0.3,0.5,0.4
					c0.2,0.1,0.4,0.1,0.5,0.2l1.5,0.4c0.6,0.2,1.2,0.5,1.7,1c0.7,0.8,0.8,2,0.2,2.9c-0.3,0.4-0.7,0.7-1.1,0.9
					C443.6,108.6,443.1,108.7,442.5,108.7"/>
				<rect id="Rectangle_141" x="447.6" y="106.6" class="st2" width="1.3" height="1.8"/>
				<rect id="Rectangle_142" x="60.3" y="0.3" class="st6" width="35.8" height="90.3"/>
				<rect id="Rectangle_143" x="60.3" y="0.3" class="st7" width="9" height="90.3"/>
				<rect id="Rectangle_144" x="69.3" y="0.3" class="st7" width="9" height="90.3"/>
				<rect id="Rectangle_145" x="78.3" y="0.3" class="st7" width="9" height="90.3"/>
				<rect id="Rectangle_146" x="136" y="0.3" class="st7" width="9" height="90.3"/>
				<rect id="Rectangle_147" x="20.5" y="0.3" class="st7" width="9" height="90.3"/>
				<rect id="Rectangle_148" x="11.5" y="0.3" class="st7" width="9" height="90.3"/>
				<rect id="Rectangle_149" x="96.1" y="0.3" class="st7" width="9" height="90.3"/>
				<rect id="Rectangle_150" x="203.1" y="0.3" class="st7" width="9" height="90.3"/>
				<rect id="Rectangle_151" x="262.2" y="0.3" class="st7" width="9" height="90.3"/>
				<rect id="Rectangle_152" x="323.9" y="0.3" class="st7" width="9" height="90.3"/>
				<rect id="Rectangle_153" x="386.2" y="0.3" class="st7" width="9" height="90.3"/>
				<rect id="Rectangle_154" x="447.9" y="0.3" class="st7" width="9" height="90.3"/>
				<rect id="Rectangle_155" x="456.9" y="0.3" class="st7" width="9" height="90.3"/>
				<rect id="Rectangle_156" x="465.9" y="0.3" class="st7" width="9" height="90.3"/>
				<line id="Ligne_1" class="st7" x1="20.5" y1="0.3" x2="20.5" y2="90.8"/>
				<rect id="Rectangle_157" x="20.5" y="90.6" class="st8" width="454.3" height="9"/>
				<rect id="Rectangle_158" x="20.5" y="99.5" class="st8" width="454.3" height="9"/>
				<line id="Ligne_2" class="st9" x1="0" y1="32.5" x2="486" y2="32.5"/>
				<line id="Ligne_3" class="st9" x1="0" y1="23.6" x2="486" y2="23.6"/>
				<path id="Tracé_577" class="st7" d="M29.4,23.6c0,4.9-4,9-9,9c-4.9,0-9-4-9-9s4-9,9-9l0,0C25.4,14.6,29.4,18.7,29.4,23.6z"/>
				<path id="Tracé_578" class="st7" d="M105.1,23.6c0,4.9-4,9-9,9c-4.9,0-9-4-9-9s4-9,9-9S105.1,18.7,105.1,23.6
					C105.1,23.6,105.1,23.6,105.1,23.6z"/>
			</g>
		</g>
	</g>
</g>
</svg>
