<?xml version="1.0" encoding="utf-8"?>
<!-- Generator: Adobe Illustrator 23.0.1, SVG Export Plug-In . SVG Version: 6.00 Build 0)  -->
<svg version="1.1" id="Groupe_289" xmlns="http://www.w3.org/2000/svg" xmlns:xlink="http://www.w3.org/1999/xlink" x="0px" y="0px"
	 width="455.1px" height="93.7px" viewBox="0 0 455.1 93.7" style="enable-background:new 0 0 455.1 93.7;" xml:space="preserve">
<style type="text/css">
	.st0{clip-path:url(#SVGID_2_);}
	.st1{fill:#FFFFFF;}
	.st2{font-family:'ArialMT';}
	.st3{font-size:11px;}
	.st4{clip-path:url(#SVGID_4_);}
	.st5{fill:url(#Rectangle_130_1_);}
	.st6{clip-path:url(#SVGID_6_);}
</style>
<g id="Groupe_284">
	<g>
		<defs>
			<rect id="SVGID_1_" y="0" width="455.1" height="93.7"/>
		</defs>
		<clipPath id="SVGID_2_">
			<use xlink:href="#SVGID_1_"  style="overflow:visible;"/>
		</clipPath>
		<g id="Groupe_283" class="st0">
			<text transform="matrix(1 0 0 1 437.45 8.7359)" class="st1 st2 st3">T</text>
			<text transform="matrix(1 0 0 1 444.3563 8.7359)" class="st1 st2 st3">M</text>
		</g>
	</g>
</g>
<g id="Groupe_286" transform="translate(0 5.522)">
	<g>
		<defs>
			<path id="SVGID_3_" d="M84.6,0c0,4.9-4,9-9,9H25.8V0H9c0,4.9-4,9-9,9v13.9h9.8v23.4c0,6.8,1.9,12.1,5.8,15.9
				c3.9,3.8,9.3,5.7,16.4,5.7c1.3,0,2.6-0.1,3.8-0.2c1.4-0.1,2.6-0.3,3.6-0.4V53.6c-0.7,0.1-1.4,0.1-2,0.2c-0.6,0.1-1.1,0.1-1.7,0.1
				c-1.9,0.1-3.8-0.3-5.5-1c-1.4-0.6-2.6-1.6-3.3-2.9c-0.8-1.5-1.1-3.2-1.1-5V22.8h59.7v23.4c0,6.8,1.9,12.1,5.8,15.9
				c3.9,3.8,9.3,5.7,16.4,5.7c1.3,0,2.6-0.1,3.8-0.2c1.4-0.1,2.6-0.3,3.6-0.4V53.6c-0.7,0.1-1.4,0.1-2,0.2c-0.6,0.1-1.1,0.1-1.7,0.1
				c-1.9,0.1-3.8-0.3-5.5-1c-1.4-0.6-2.6-1.6-3.3-2.9c-0.8-1.5-1.1-3.2-1.1-5V22.8h14V9h-14.1V0H84.6z"/>
		</defs>
		<clipPath id="SVGID_4_">
			<use xlink:href="#SVGID_3_"  style="overflow:visible;"/>
		</clipPath>
		<g id="Groupe_285" class="st4">
			
				<linearGradient id="Rectangle_130_1_" gradientUnits="userSpaceOnUse" x1="-190.3379" y1="628.4477" x2="-190.3319" y2="628.4477" gradientTransform="matrix(115.519 0 0 -67.819 21987.6484 42654.6016)">
				<stop  offset="0" style="stop-color:#1A9F97"/>
				<stop  offset="1" style="stop-color:#1F817A"/>
			</linearGradient>
			<rect id="Rectangle_130" y="0" class="st5" width="115.5" height="67.8"/>
		</g>
	</g>
</g>
<g id="Groupe_288">
	<g>
		<defs>
			<rect id="SVGID_5_" y="0" width="455.1" height="93.7"/>
		</defs>
		<clipPath id="SVGID_6_">
			<use xlink:href="#SVGID_5_"  style="overflow:visible;"/>
		</clipPath>
		<g id="Groupe_287" class="st6">
			<path id="Tracé_465" class="st1" d="M180.7,31c-1.2-3.4-3.1-6.5-5.6-9.1c-2.5-2.7-5.6-4.8-9-6.1c-3.9-1.5-8.1-2.3-12.3-2.2
				c-5.2-0.1-10.4,1.3-14.9,3.9c-4.4,2.6-8,6.3-10.5,10.8c-2.7,4.8-4,10.1-3.9,15.6c-0.1,5.4,1.2,10.6,3.7,15.4
				c2.4,4.6,6.1,8.4,10.6,11c4.9,2.8,10.5,4.2,16.1,4.1c3.7,0,7.4-0.6,11-1.8c3.2-1.1,6.1-2.8,8.7-5c2.4-2,4.2-4.6,5.4-7.5
				l-12.8-6.1c-1.1,2-2.8,3.6-4.7,4.7c-4.8,2.4-10.6,2.3-15.3-0.4c-2.2-1.4-3.9-3.4-4.9-5.8c-0.6-1.3-0.9-2.7-1.1-4.2h40.8
				c0.3-0.9,0.5-1.9,0.6-2.8c0.1-1.1,0.2-2.2,0.2-3.4C182.7,38.4,182,34.6,180.7,31 M141.5,36.7c0.2-0.8,0.4-1.6,0.7-2.3
				c0.8-2.4,2.4-4.5,4.5-6c2.1-1.4,4.6-2.1,7.1-2c2.6-0.1,5.1,0.6,7.2,2.1c2,1.4,3.4,3.4,4.1,5.6c0.3,0.8,0.5,1.7,0.5,2.6
				L141.5,36.7z"/>
			<path id="Tracé_466" class="st1" d="M213.8,58.6l27.8-31.6V14.3H193v13.9h27.3l-28.6,31.6v12.8h50.1V58.6H213.8z"/>
			<path id="Tracé_467" class="st1" d="M300.3,23.1c-2.2-3.2-5.2-5.8-8.8-7.4c-4.1-1.8-8.5-2.8-13-2.7c-3.9,0-7.7,0.6-11.4,1.9
				c-3.3,1.2-6.4,3-9,5.4c-2.5,2.3-4.3,5.2-5.4,8.4l12.8,6.1c0.9-2.5,2.6-4.6,4.7-6.2c2.2-1.6,4.8-2.4,7.5-2.3
				c2.6-0.1,5.1,0.7,7.1,2.2c1.7,1.4,2.6,3.4,2.6,5.6v1.6l-16.1,2.6c-4,0.5-8,1.8-11.6,3.6c-2.8,1.5-5.2,3.6-6.9,6.3
				c-1.5,2.6-2.3,5.7-2.2,8.7c-0.1,3.2,0.8,6.3,2.5,9c1.7,2.6,4.2,4.6,7,5.8c3.4,1.4,7.2,2.1,10.9,2c2.9,0,5.8-0.4,8.5-1.2
				c2.5-0.8,4.9-2.1,6.9-3.7c0.7-0.6,1.4-1.2,2-1.8v5.5h14.9V34.1C303.5,30.2,302.4,26.3,300.3,23.1 M287.5,49.5
				c0,2.3-0.5,4.5-1.7,6.5c-1.1,1.9-2.7,3.5-4.6,4.6c-2.1,1.2-4.5,1.8-6.9,1.7c-1.8,0.1-3.5-0.5-5-1.5c-1.3-1-2.1-2.5-2-4.2
				c-0.1-1.7,0.6-3.3,1.8-4.4c1.5-1.2,3.3-1.9,5.2-2.2l13.2-2.4V49.5z"/>
			<path id="Tracé_468" class="st1" d="M362.9,23.5c-1.8-3.3-4.5-5.9-7.7-7.7c-3.6-1.9-7.5-2.9-11.6-2.8c-3.7-0.1-7.3,0.8-10.6,2.5
				c-2.4,1.4-4.4,3.4-5.7,5.9v-7.1h-14.9v58.2h16v-34c-0.1-2,0.4-4.1,1.3-5.9c0.9-1.6,2.2-2.9,3.8-3.8c3.5-1.8,7.7-1.8,11.1,0
				c1.6,0.9,2.9,2.2,3.7,3.8c0.9,1.8,1.4,3.8,1.3,5.9v34h16V35.1C365.8,31,364.9,27,362.9,23.5"/>
			<path id="Tracé_469" class="st1" d="M424.3,23c-2.2-3.2-5.2-5.8-8.8-7.4c-4.1-1.8-8.5-2.8-13-2.7c-3.9,0-7.7,0.6-11.4,1.9
				c-3.3,1.2-6.4,3-9,5.4c-2.5,2.3-4.3,5.2-5.4,8.4l12.8,6.1c0.9-2.5,2.6-4.6,4.8-6.2c2.2-1.6,4.8-2.4,7.5-2.3
				c2.6-0.1,5.1,0.7,7.1,2.2c1.7,1.4,2.6,3.4,2.6,5.6v1.6l-16.1,2.6c-4,0.5-8,1.8-11.6,3.6c-2.8,1.5-5.2,3.6-6.9,6.3
				c-1.5,2.6-2.3,5.7-2.2,8.7c-0.1,3.2,0.8,6.3,2.5,9c1.7,2.6,4.2,4.6,7,5.8c3.4,1.4,7.1,2.1,10.9,2c2.9,0,5.8-0.4,8.5-1.2
				c2.5-0.8,4.9-2.1,6.9-3.7c0.7-0.6,1.4-1.2,2-1.8v5.5h14.9V34.1C427.5,30.2,426.5,26.3,424.3,23 M411.5,49.5
				c0,2.3-0.5,4.5-1.7,6.5c-1.1,1.9-2.7,3.5-4.6,4.6c-2.1,1.2-4.5,1.8-6.9,1.7c-1.8,0.1-3.5-0.5-5-1.5c-1.3-1-2.1-2.5-2-4.2
				c-0.1-1.7,0.6-3.3,1.8-4.4c1.5-1.2,3.3-1.9,5.2-2.2l13.2-2.4L411.5,49.5z"/>
			<path id="Tracé_470" class="st1" d="M5,90.4v-5.8L0.6,78h1.5l3.8,5.8H5.4L9.1,78h1.5l-4.3,6.6v5.8L5,90.4z"/>
			<path id="Tracé_471" class="st1" d="M13.9,90.6c-0.8,0-1.6-0.2-2.3-0.6c-0.7-0.4-1.2-1-1.6-1.7c-0.8-1.5-0.8-3.3,0-4.8
				c1.3-2.2,4.1-2.9,6.3-1.7c0.7,0.4,1.2,1,1.6,1.6c0.4,0.7,0.6,1.6,0.6,2.4c0,0.8-0.2,1.7-0.6,2.4c-0.4,0.7-1,1.3-1.6,1.7
				C15.5,90.4,14.7,90.6,13.9,90.6 M13.9,89.3c0.6,0,1.1-0.1,1.6-0.4c0.5-0.3,0.9-0.7,1.1-1.2c0.3-0.5,0.4-1.1,0.4-1.7
				c0-0.6-0.1-1.2-0.4-1.7c-0.3-0.5-0.7-0.9-1.1-1.2c-1-0.6-2.2-0.6-3.2,0c-0.5,0.3-0.9,0.7-1.2,1.2c-0.3,0.5-0.4,1.1-0.4,1.7
				c0,0.6,0.1,1.2,0.4,1.7c0.3,0.5,0.7,0.9,1.2,1.2C12.8,89.2,13.3,89.4,13.9,89.3"/>
			<path id="Tracé_472" class="st1" d="M23.1,90.6c-0.6,0-1.2-0.1-1.7-0.4c-0.5-0.3-0.9-0.7-1.2-1.2c-0.3-0.6-0.5-1.2-0.4-1.8v-5.6
				H21v5.5c0,0.4,0.1,0.9,0.3,1.3c0.2,0.4,0.5,0.6,0.8,0.8c0.8,0.4,1.7,0.4,2.4,0c0.4-0.2,0.6-0.5,0.8-0.9c0.2-0.4,0.3-0.9,0.3-1.4
				v-5.3h1.2v8.9h-1.2v-1.7l0.3,0.1c-0.2,0.6-0.6,1-1.1,1.4C24.3,90.4,23.7,90.6,23.1,90.6"/>
			<path id="Tracé_473" class="st1" d="M32.1,90.5c-0.7,0-1.4-0.2-1.8-0.7c-0.5-0.6-0.7-1.3-0.6-2v-5.1H28v-1.2h0.4
				c0.3,0,0.7-0.1,0.9-0.4c0.2-0.3,0.3-0.6,0.3-0.9v-0.7h1.2v2.1h2v1.2h-2v5.1c0,0.3,0,0.5,0.1,0.8c0.1,0.2,0.2,0.4,0.5,0.5
				c0.3,0.1,0.6,0.2,0.9,0.2c0.1,0,0.2,0,0.3,0s0.2,0,0.3,0v1.1c-0.1,0-0.3,0.1-0.4,0.1C32.4,90.5,32.2,90.5,32.1,90.5"/>
			<path id="Tracé_474" class="st1" d="M34.5,90.4V77.8h1.2v5.4l-0.3-0.1c0.2-0.6,0.6-1,1.1-1.4c0.5-0.3,1.1-0.5,1.8-0.5
				c0.6,0,1.2,0.1,1.7,0.4c0.5,0.3,0.9,0.7,1.2,1.2c0.3,0.5,0.4,1.1,0.4,1.7v5.8h-1.2v-5.3c0-0.5-0.1-1-0.3-1.4
				c-0.2-0.4-0.5-0.7-0.8-0.9c-0.4-0.2-0.8-0.3-1.2-0.3c-0.4,0-0.8,0.1-1.2,0.3c-0.4,0.2-0.6,0.5-0.8,0.9c-0.2,0.4-0.3,0.9-0.3,1.4
				v5.3L34.5,90.4z"/>
			<path id="Tracé_475" class="st1" d="M49.5,90.6c-0.8,0-1.6-0.2-2.3-0.6c-0.7-0.4-1.2-1-1.6-1.7c-0.8-1.5-0.8-3.3,0-4.8
				c0.4-0.7,0.9-1.2,1.5-1.6c0.7-0.4,1.4-0.6,2.2-0.6c0.6,0,1.2,0.1,1.7,0.4c0.5,0.2,0.9,0.6,1.3,1c0.4,0.4,0.6,0.9,0.8,1.4
				c0.2,0.5,0.3,1,0.3,1.6c0,0.1,0,0.2,0,0.4s0,0.3-0.1,0.4h-7.5v-1.2h6.8l-0.6,0.5c0.1-0.6,0-1.1-0.2-1.6c-0.2-0.5-0.6-0.9-1-1.1
				c-0.4-0.3-1-0.4-1.5-0.4c-0.5,0-1.1,0.1-1.5,0.4c-0.5,0.3-0.9,0.7-1.1,1.2c-0.3,0.6-0.4,1.2-0.3,1.8c-0.1,0.6,0,1.3,0.3,1.9
				c0.3,0.5,0.7,0.9,1.2,1.2c0.5,0.3,1,0.4,1.6,0.4c0.6,0,1.2-0.1,1.6-0.5c0.4-0.3,0.8-0.7,1.1-1.2l1.1,0.6
				c-0.2,0.4-0.5,0.8-0.8,1.1c-0.4,0.3-0.8,0.6-1.3,0.8C50.6,90.5,50,90.6,49.5,90.6"/>
			<path id="Tracé_476" class="st1" d="M54.9,90.4v-8.9h1.2v1.7L56,82.9c0.2-0.5,0.6-0.9,1.1-1.2c0.5-0.3,1-0.4,1.6-0.4
				c1.4,0,2.6,0.8,3,2.1l-0.3,0c0.2-0.6,0.6-1.2,1.2-1.6c1-0.7,2.4-0.7,3.5-0.1c0.5,0.3,0.9,0.7,1.2,1.2c0.3,0.5,0.5,1.1,0.5,1.7
				v5.8h-1.2v-5.3c0-0.5-0.1-1-0.3-1.4c-0.4-0.7-1.1-1.2-1.9-1.2c-0.4,0-0.8,0.1-1.1,0.3c-0.3,0.2-0.6,0.5-0.8,0.9
				c-0.2,0.4-0.3,0.9-0.3,1.4v5.3h-1.2v-5.3c0-0.5-0.1-1-0.3-1.4c-0.4-0.7-1.1-1.2-1.9-1.2c-0.8,0-1.6,0.4-2,1.2
				c-0.2,0.4-0.3,0.9-0.3,1.4v5.3L54.9,90.4z"/>
			<path id="Tracé_477" class="st1" d="M69.3,93.7V81.5h1.2v2l-0.2-0.4c0.4-0.6,0.8-1,1.4-1.3c0.6-0.3,1.3-0.5,2-0.5
				c0.8,0,1.6,0.2,2.3,0.6c0.7,0.4,1.2,1,1.6,1.7c0.8,1.5,0.8,3.3,0,4.8c-0.4,0.7-0.9,1.3-1.6,1.7c-0.7,0.4-1.5,0.6-2.3,0.6
				c-0.7,0-1.4-0.2-2.1-0.5c-0.6-0.3-1.1-0.9-1.4-1.5l0.2-0.2v5.3L69.3,93.7z M73.8,89.3c0.6,0,1.1-0.1,1.6-0.4
				c0.5-0.3,0.9-0.7,1.1-1.2c0.5-1.1,0.5-2.4,0-3.5c-0.3-0.5-0.6-0.9-1.1-1.2c-0.5-0.3-1-0.5-1.6-0.4c-0.6,0-1.1,0.1-1.6,0.4
				c-0.5,0.3-0.9,0.7-1.1,1.2c-0.6,1.1-0.6,2.4,0,3.5c0.3,0.5,0.7,0.9,1.1,1.2C72.6,89.2,73.2,89.4,73.8,89.3"/>
			<path id="Tracé_478" class="st1" d="M83.9,90.6c-0.8,0-1.6-0.2-2.3-0.6c-0.7-0.4-1.2-1-1.6-1.7c-0.8-1.5-0.8-3.3,0-4.8
				c1.3-2.2,4.1-2.9,6.3-1.7c0.7,0.4,1.2,1,1.6,1.6c0.4,0.7,0.6,1.6,0.6,2.4c0,0.8-0.2,1.7-0.6,2.4c-0.4,0.7-1,1.3-1.6,1.7
				C85.5,90.4,84.7,90.6,83.9,90.6 M83.9,89.3c0.6,0,1.1-0.1,1.6-0.4c0.5-0.3,0.9-0.7,1.1-1.2c0.3-0.5,0.4-1.1,0.4-1.7
				c0-0.6-0.1-1.2-0.4-1.7c-0.3-0.5-0.7-0.9-1.1-1.2c-1-0.6-2.2-0.6-3.2,0c-0.5,0.3-0.9,0.7-1.2,1.2c-0.3,0.5-0.4,1.1-0.4,1.7
				c0,0.6,0.1,1.2,0.4,1.7c0.3,0.5,0.7,0.9,1.2,1.2C82.8,89.2,83.3,89.4,83.9,89.3"/>
			<path id="Tracé_479" class="st1" d="M91.7,90.4l-3.1-8.9h1.4l2.5,7.8h-0.5l2.4-7.8h1.2l2.4,7.8h-0.5l2.5-7.8h1.4l-3.1,8.9h-1.2
				l-2.3-7.6h0.3l-2.3,7.6H91.7z"/>
			<path id="Tracé_480" class="st1" d="M106.2,90.6c-0.8,0-1.6-0.2-2.3-0.6c-0.7-0.4-1.2-1-1.6-1.7c-0.8-1.5-0.8-3.3,0-4.8
				c0.4-0.7,0.9-1.2,1.5-1.6c0.7-0.4,1.4-0.6,2.2-0.6c0.6,0,1.2,0.1,1.7,0.4c0.5,0.2,0.9,0.6,1.3,1c0.4,0.4,0.6,0.9,0.8,1.4
				c0.2,0.5,0.3,1,0.3,1.6c0,0.1,0,0.2,0,0.4s0,0.3-0.1,0.4h-7.5v-1.2h6.8l-0.6,0.5c0.1-0.6,0-1.1-0.2-1.6c-0.2-0.5-0.6-0.9-1-1.1
				c-0.4-0.3-1-0.4-1.5-0.4c-0.5,0-1.1,0.1-1.5,0.4c-0.5,0.3-0.9,0.7-1.1,1.2c-0.3,0.6-0.4,1.2-0.3,1.8c-0.1,0.6,0,1.3,0.3,1.9
				c0.3,0.5,0.7,0.9,1.2,1.2c0.5,0.3,1,0.4,1.6,0.4c0.6,0,1.2-0.1,1.6-0.5c0.4-0.3,0.8-0.7,1.1-1.2l1.1,0.6
				c-0.2,0.4-0.5,0.8-0.8,1.1c-0.4,0.3-0.8,0.6-1.3,0.8C107.3,90.5,106.8,90.6,106.2,90.6"/>
			<path id="Tracé_481" class="st1" d="M111.6,90.4v-8.9h1.2v1.5l-0.2-0.2c0.2-0.4,0.5-0.8,1-1c0.5-0.3,1-0.4,1.6-0.4h0.6v1.2H115
				c-0.6,0-1.1,0.2-1.5,0.6c-0.4,0.5-0.6,1.1-0.6,1.7v5.5L111.6,90.4z"/>
			<path id="Tracé_482" class="st1" d="M116.6,90.4v-8.9h1.2v1.7l-0.2-0.3c0.2-0.5,0.6-0.9,1.1-1.2c0.5-0.3,1-0.4,1.6-0.4
				c1.4,0,2.6,0.8,3,2.1l-0.4,0c0.2-0.6,0.6-1.2,1.2-1.6c1-0.7,2.4-0.7,3.5-0.1c0.5,0.3,0.9,0.7,1.2,1.2c0.3,0.5,0.5,1.1,0.5,1.7
				v5.8H128v-5.3c0-0.5-0.1-1-0.3-1.4c-0.4-0.7-1.1-1.2-1.9-1.2c-0.4,0-0.8,0.1-1.1,0.3c-0.3,0.2-0.6,0.5-0.8,0.9
				c-0.2,0.4-0.3,0.9-0.3,1.4v5.3h-1.2v-5.3c0-0.5-0.1-1-0.3-1.4c-0.4-0.7-1.1-1.2-1.9-1.2c-0.8,0-1.6,0.4-2,1.2
				c-0.2,0.4-0.3,0.9-0.3,1.4v5.3L116.6,90.4z"/>
			<path id="Tracé_483" class="st1" d="M135,90.6c-0.8,0-1.6-0.2-2.3-0.6c-0.7-0.4-1.2-1-1.6-1.7c-0.8-1.5-0.8-3.3,0-4.8
				c0.4-0.7,0.9-1.2,1.5-1.6c0.7-0.4,1.4-0.6,2.2-0.6c0.6,0,1.2,0.1,1.7,0.4c0.5,0.2,0.9,0.6,1.3,1c0.4,0.4,0.6,0.9,0.8,1.4
				c0.2,0.5,0.3,1,0.3,1.6c0,0.1,0,0.2,0,0.4c0,0.1,0,0.3-0.1,0.4h-7.5v-1.2h6.8l-0.6,0.5c0.1-0.6,0-1.1-0.2-1.6
				c-0.2-0.5-0.6-0.9-1-1.1c-0.4-0.3-1-0.4-1.5-0.4c-0.5,0-1.1,0.1-1.5,0.4c-0.5,0.3-0.9,0.7-1.1,1.2c-0.3,0.6-0.4,1.2-0.3,1.8
				c-0.1,0.6,0,1.3,0.3,1.9c0.3,0.5,0.7,0.9,1.2,1.2c0.5,0.3,1,0.4,1.6,0.4c0.6,0,1.2-0.1,1.6-0.5c0.4-0.3,0.8-0.7,1.1-1.2l1.1,0.6
				c-0.2,0.4-0.5,0.8-0.8,1.1c-0.4,0.3-0.8,0.6-1.3,0.8C136.2,90.5,135.6,90.6,135,90.6"/>
			<path id="Tracé_484" class="st1" d="M140.5,90.4v-8.9h1.2v1.7l-0.3-0.1c0.2-0.6,0.6-1,1.1-1.4c0.5-0.3,1.1-0.5,1.8-0.5
				c0.6,0,1.2,0.1,1.7,0.4c0.5,0.3,0.9,0.7,1.2,1.2c0.3,0.5,0.4,1.1,0.4,1.7v5.8h-1.2v-5.3c0-0.5-0.1-1-0.3-1.4
				c-0.2-0.4-0.5-0.7-0.8-0.9c-0.4-0.2-0.8-0.3-1.2-0.3c-0.4,0-0.8,0.1-1.2,0.3c-0.4,0.2-0.6,0.5-0.8,0.9c-0.2,0.4-0.3,0.9-0.3,1.4
				v5.3L140.5,90.4z"/>
			<path id="Tracé_485" class="st1" d="M152.7,90.5c-0.7,0-1.4-0.2-1.8-0.7c-0.5-0.6-0.7-1.3-0.6-2v-5.1h-1.6v-1.2h0.4
				c0.3,0,0.7-0.1,0.9-0.4c0.2-0.3,0.3-0.6,0.3-0.9v-0.7h1.2v2.1h2v1.2h-2v5.1c0,0.3,0,0.5,0.1,0.8c0.1,0.2,0.2,0.4,0.5,0.5
				c0.3,0.1,0.6,0.2,0.9,0.2c0.1,0,0.2,0,0.3,0s0.2,0,0.3,0v1.1c-0.1,0-0.3,0.1-0.4,0.1C153,90.5,152.8,90.5,152.7,90.5"/>
			<path id="Tracé_486" class="st1" d="M155.1,92.6V92c0.3-0.1,0.6-0.3,0.7-0.5c0.2-0.3,0.3-0.7,0.2-1.1h-0.6v-1.8h1.3V90
				c0,0.6-0.1,1.2-0.4,1.7C156.1,92.1,155.6,92.5,155.1,92.6"/>
			<path id="Tracé_487" class="st1" d="M164,90.6c-0.8,0-1.6-0.2-2.2-0.6c-0.6-0.4-1.1-1-1.4-1.8l1-0.5c0.2,0.5,0.6,1,1.1,1.3
				c0.4,0.3,1,0.5,1.5,0.5c0.5,0,1-0.1,1.3-0.4c0.3-0.2,0.6-0.6,0.5-1c0-0.3-0.1-0.5-0.3-0.7c-0.2-0.2-0.4-0.3-0.6-0.4
				c-0.2-0.1-0.4-0.2-0.6-0.2l-1.3-0.4c-0.7-0.1-1.3-0.5-1.8-1c-0.4-0.4-0.6-0.9-0.5-1.5c0-0.5,0.1-1,0.4-1.4
				c0.3-0.4,0.6-0.7,1.1-0.9c0.5-0.2,1-0.3,1.5-0.3c0.7,0,1.4,0.2,2.1,0.6c0.6,0.4,1.1,1,1.3,1.6l-1.1,0.5c-0.2-0.5-0.5-0.9-1-1.2
				c-0.4-0.3-0.9-0.4-1.4-0.4c-0.4,0-0.9,0.1-1.2,0.4c-0.3,0.2-0.5,0.6-0.4,1c0,0.3,0.1,0.5,0.2,0.7c0.1,0.2,0.3,0.3,0.5,0.4
				c0.2,0.1,0.4,0.1,0.5,0.2l1.5,0.4c0.6,0.2,1.2,0.5,1.7,1c0.7,0.8,0.8,2,0.2,2.9c-0.3,0.4-0.7,0.7-1.1,0.9
				C165.2,90.5,164.6,90.6,164,90.6"/>
			<path id="Tracé_488" class="st1" d="M168.7,93.7V81.5h1.2v2l-0.2-0.4c0.4-0.6,0.8-1,1.4-1.3c0.6-0.3,1.3-0.5,2-0.5
				c0.8,0,1.6,0.2,2.3,0.6c0.7,0.4,1.2,1,1.6,1.7c0.8,1.5,0.8,3.3,0,4.8c-0.4,0.7-0.9,1.3-1.6,1.7c-0.7,0.4-1.5,0.6-2.3,0.6
				c-0.7,0-1.4-0.2-2.1-0.5c-0.6-0.3-1.1-0.9-1.4-1.5l0.2-0.2v5.3L168.7,93.7z M173.1,89.3c0.6,0,1.1-0.1,1.6-0.4
				c0.5-0.3,0.9-0.7,1.1-1.2c0.5-1.1,0.5-2.4,0-3.5c-0.3-0.5-0.6-0.9-1.1-1.2c-0.5-0.3-1-0.5-1.6-0.4c-0.6,0-1.1,0.1-1.6,0.4
				c-0.5,0.3-0.9,0.7-1.1,1.2c-0.6,1.1-0.6,2.4,0,3.5c0.3,0.5,0.7,0.9,1.1,1.2C172,89.2,172.6,89.4,173.1,89.3"/>
			<path id="Tracé_489" class="st1" d="M183.3,90.6c-0.8,0-1.6-0.2-2.3-0.6c-0.7-0.4-1.2-1-1.6-1.7c-0.8-1.5-0.8-3.3,0-4.8
				c1.3-2.2,4.1-2.9,6.3-1.7c0.7,0.4,1.2,1,1.6,1.6c0.4,0.7,0.6,1.6,0.6,2.4c0,0.8-0.2,1.7-0.6,2.4c-0.4,0.7-1,1.3-1.6,1.7
				C184.8,90.4,184.1,90.6,183.3,90.6 M183.3,89.3c0.6,0,1.1-0.1,1.6-0.4c0.5-0.3,0.9-0.7,1.1-1.2c0.3-0.5,0.4-1.1,0.4-1.7
				c0-0.6-0.1-1.2-0.4-1.7c-0.3-0.5-0.7-0.9-1.1-1.2c-1-0.6-2.2-0.6-3.2,0c-0.5,0.3-0.9,0.7-1.2,1.2c-0.3,0.5-0.4,1.1-0.4,1.7
				c0,0.6,0.1,1.2,0.4,1.7c0.3,0.5,0.7,0.9,1.2,1.2C182.1,89.2,182.7,89.4,183.3,89.3"/>
			<path id="Tracé_490" class="st1" d="M189.3,90.4v-8.9h1.2v1.5l-0.2-0.2c0.2-0.4,0.5-0.8,1-1c0.5-0.3,1-0.4,1.6-0.4h0.6v1.2h-0.8
				c-0.6,0-1.1,0.2-1.5,0.6c-0.4,0.5-0.6,1.1-0.6,1.7v5.5L189.3,90.4z"/>
			<path id="Tracé_491" class="st1" d="M197.6,90.5c-0.7,0-1.4-0.2-1.8-0.7c-0.5-0.6-0.7-1.3-0.6-2v-5.1h-1.6v-1.2h0.4
				c0.3,0,0.7-0.1,0.9-0.4c0.2-0.3,0.3-0.6,0.3-0.9v-0.7h1.2v2.1h2v1.2h-2v5.1c0,0.3,0,0.5,0.1,0.8c0.1,0.2,0.2,0.4,0.5,0.5
				c0.3,0.1,0.6,0.2,0.9,0.2c0.1,0,0.2,0,0.3,0s0.2,0,0.3,0v1.1c-0.1,0-0.3,0.1-0.4,0.1C197.8,90.5,197.7,90.5,197.6,90.5"/>
			<path id="Tracé_492" class="st1" d="M203,90.6c-0.8,0-1.6-0.2-2.2-0.6c-0.6-0.4-1.1-1-1.4-1.8l1-0.5c0.2,0.5,0.6,1,1.1,1.3
				c0.4,0.3,1,0.5,1.5,0.5c0.5,0,1-0.1,1.3-0.4c0.3-0.2,0.6-0.6,0.5-1c0-0.3-0.1-0.5-0.3-0.7c-0.2-0.2-0.4-0.3-0.6-0.4
				c-0.2-0.1-0.4-0.2-0.6-0.2l-1.3-0.4c-0.7-0.1-1.3-0.5-1.8-1c-0.4-0.4-0.6-0.9-0.5-1.5c0-0.5,0.1-1,0.4-1.4
				c0.3-0.4,0.6-0.7,1.1-0.9c0.5-0.2,1-0.3,1.5-0.3c0.7,0,1.4,0.2,2.1,0.6c0.6,0.4,1.1,1,1.3,1.6l-1.1,0.5c-0.2-0.5-0.5-0.9-1-1.2
				c-0.4-0.3-0.9-0.4-1.4-0.4c-0.4,0-0.9,0.1-1.2,0.4c-0.3,0.2-0.5,0.6-0.4,1c0,0.3,0.1,0.5,0.2,0.7c0.1,0.2,0.3,0.3,0.5,0.4
				c0.2,0.1,0.4,0.1,0.5,0.2l1.5,0.4c0.6,0.2,1.2,0.5,1.7,1c0.7,0.8,0.8,2,0.2,2.9c-0.3,0.4-0.7,0.7-1.1,0.9
				C204.2,90.5,203.6,90.6,203,90.6"/>
			<path id="Tracé_493" class="st1" d="M213.9,90.6c-0.8,0-1.6-0.2-2.3-0.6c-0.7-0.4-1.2-1-1.6-1.7c-0.8-1.5-0.8-3.3,0-4.8
				c0.4-0.7,0.9-1.2,1.5-1.6c0.7-0.4,1.4-0.6,2.2-0.6c0.6,0,1.2,0.1,1.7,0.4c0.5,0.2,0.9,0.6,1.3,1c0.4,0.4,0.6,0.9,0.8,1.4
				c0.2,0.5,0.3,1,0.3,1.6c0,0.1,0,0.2,0,0.4s0,0.3,0,0.4h-7.5v-1.2h6.8l-0.6,0.5c0.1-0.6,0-1.1-0.2-1.6c-0.2-0.5-0.6-0.9-1-1.1
				c-0.4-0.3-1-0.4-1.5-0.4c-0.5,0-1.1,0.1-1.5,0.4c-0.5,0.3-0.9,0.7-1.1,1.2c-0.3,0.6-0.4,1.2-0.3,1.8c-0.1,0.6,0,1.3,0.3,1.9
				c0.3,0.5,0.7,0.9,1.2,1.2c0.5,0.3,1,0.4,1.6,0.4c0.6,0,1.2-0.1,1.6-0.5c0.4-0.3,0.8-0.7,1.1-1.2l1.1,0.6
				c-0.2,0.4-0.5,0.8-0.8,1.1c-0.4,0.3-0.8,0.6-1.3,0.8C215,90.5,214.4,90.6,213.9,90.6"/>
			<path id="Tracé_494" class="st1" d="M221.5,90.4l-3.5-8.9h1.4l2.9,7.8h-0.4l2.9-7.8h1.4l-3.5,8.9H221.5z"/>
			<path id="Tracé_495" class="st1" d="M231.1,90.6c-0.8,0-1.6-0.2-2.3-0.6c-0.7-0.4-1.2-1-1.6-1.7c-0.8-1.5-0.8-3.3,0-4.8
				c1.3-2.2,4.1-2.9,6.3-1.7c0.7,0.4,1.2,1,1.6,1.6c0.4,0.7,0.6,1.6,0.6,2.4c0,0.8-0.2,1.7-0.6,2.4c-0.4,0.7-1,1.3-1.6,1.7
				C232.6,90.4,231.9,90.6,231.1,90.6 M231.1,89.3c0.6,0,1.1-0.1,1.6-0.4c0.5-0.3,0.9-0.7,1.1-1.2c0.3-0.5,0.4-1.1,0.4-1.7
				c0-0.6-0.1-1.2-0.4-1.7c-0.3-0.5-0.7-0.9-1.1-1.2c-1-0.6-2.2-0.6-3.2,0c-0.5,0.3-0.9,0.7-1.2,1.2c-0.3,0.5-0.4,1.1-0.4,1.7
				c0,0.6,0.1,1.2,0.4,1.7c0.3,0.5,0.7,0.9,1.2,1.2C229.9,89.2,230.5,89.4,231.1,89.3"/>
			<rect id="Rectangle_131" x="237.1" y="77.8" class="st1" width="1.2" height="12.6"/>
			<path id="Tracé_496" class="st1" d="M243.3,90.6c-0.6,0-1.2-0.1-1.7-0.4c-0.5-0.3-0.9-0.7-1.2-1.2c-0.3-0.6-0.5-1.2-0.4-1.8
				v-5.6h1.2v5.5c0,0.4,0.1,0.9,0.3,1.3c0.2,0.4,0.5,0.6,0.8,0.8c0.8,0.4,1.7,0.4,2.4,0c0.4-0.2,0.6-0.5,0.8-0.9
				c0.2-0.4,0.3-0.9,0.3-1.4v-5.3h1.2v8.9h-1.2v-1.7l0.3,0.1c-0.2,0.6-0.6,1-1.1,1.4C244.6,90.4,243.9,90.6,243.3,90.6"/>
			<path id="Tracé_497" class="st1" d="M252.4,90.5c-0.7,0-1.4-0.2-1.8-0.7c-0.5-0.6-0.7-1.3-0.6-2v-5.1h-1.6v-1.2h0.4
				c0.3,0,0.7-0.1,0.9-0.4c0.2-0.3,0.3-0.6,0.3-0.9v-0.7h1.2v2.1h2v1.2h-2v5.1c0,0.3,0,0.5,0.1,0.8c0.1,0.2,0.2,0.4,0.5,0.5
				c0.3,0.1,0.6,0.2,0.9,0.2c0.1,0,0.2,0,0.3,0s0.2,0,0.3,0v1.1c-0.1,0-0.3,0.1-0.4,0.1C252.6,90.5,252.5,90.5,252.4,90.5"/>
			<path id="Tracé_498" class="st1" d="M254.7,78h1.2v1.8h-1.2V78z M254.7,81.5h1.2v8.9h-1.2V81.5z"/>
			<path id="Tracé_499" class="st1" d="M262,90.6c-0.8,0-1.6-0.2-2.3-0.6c-0.7-0.4-1.2-1-1.6-1.7c-0.8-1.5-0.8-3.3,0-4.8
				c1.3-2.2,4.1-2.9,6.3-1.7c0.7,0.4,1.2,1,1.6,1.6c0.4,0.7,0.6,1.6,0.6,2.4c0,0.8-0.2,1.7-0.6,2.4c-0.4,0.7-1,1.3-1.6,1.7
				C263.6,90.4,262.8,90.6,262,90.6 M262,89.3c0.6,0,1.1-0.1,1.6-0.4c0.5-0.3,0.9-0.7,1.1-1.2c0.3-0.5,0.4-1.1,0.4-1.7
				c0-0.6-0.1-1.2-0.4-1.7c-0.3-0.5-0.7-0.9-1.1-1.2c-1-0.6-2.2-0.6-3.2,0c-0.5,0.3-0.9,0.7-1.2,1.2c-0.3,0.5-0.4,1.1-0.4,1.7
				c0,0.6,0.1,1.2,0.4,1.7c0.3,0.5,0.7,0.9,1.2,1.2C260.9,89.2,261.4,89.4,262,89.3"/>
			<path id="Tracé_500" class="st1" d="M268,90.4v-8.9h1.2v1.7l-0.3-0.1c0.2-0.6,0.6-1,1.1-1.4c0.5-0.3,1.1-0.5,1.8-0.5
				c0.6,0,1.2,0.1,1.7,0.4c0.5,0.3,0.9,0.7,1.2,1.2c0.3,0.5,0.4,1.1,0.4,1.7v5.8h-1.2v-5.3c0-0.5-0.1-1-0.3-1.4
				c-0.2-0.4-0.5-0.7-0.8-0.9c-0.4-0.2-0.8-0.3-1.2-0.3c-0.4,0-0.8,0.1-1.2,0.3c-0.4,0.2-0.6,0.5-0.8,0.9c-0.2,0.4-0.3,0.9-0.3,1.4
				v5.3L268,90.4z"/>
			<path id="Tracé_501" class="st1" d="M276.9,92.6V92c0.3-0.1,0.6-0.3,0.7-0.5c0.2-0.3,0.3-0.7,0.2-1.1h-0.6v-1.8h1.3V90
				c0,0.6-0.1,1.2-0.4,1.7C277.9,92.1,277.4,92.5,276.9,92.6"/>
			<path id="Tracé_502" class="st1" d="M286.8,90.6c-0.8,0-1.6-0.2-2.3-0.6c-0.7-0.4-1.2-1-1.6-1.7c-0.8-1.5-0.8-3.3,0-4.8
				c0.4-0.7,0.9-1.2,1.5-1.6c0.7-0.4,1.4-0.6,2.2-0.6c0.6,0,1.2,0.1,1.7,0.4c0.5,0.2,0.9,0.6,1.3,1c0.4,0.4,0.6,0.9,0.8,1.4
				c0.2,0.5,0.3,1,0.3,1.6c0,0.1,0,0.2,0,0.4s0,0.3,0,0.4h-7.5v-1.2h6.8l-0.6,0.5c0.1-0.6,0-1.1-0.2-1.6c-0.2-0.5-0.6-0.9-1-1.1
				c-0.4-0.3-1-0.4-1.5-0.4c-0.5,0-1.1,0.1-1.5,0.4c-0.5,0.3-0.9,0.7-1.1,1.2c-0.3,0.6-0.4,1.2-0.3,1.8c-0.1,0.6,0,1.3,0.3,1.9
				c0.3,0.5,0.7,0.9,1.2,1.2c0.5,0.3,1,0.4,1.6,0.4c0.6,0,1.2-0.1,1.6-0.5c0.4-0.3,0.8-0.7,1.1-1.2l1.1,0.6
				c-0.2,0.4-0.5,0.8-0.8,1.1c-0.4,0.3-0.8,0.6-1.3,0.8C287.9,90.5,287.4,90.6,286.8,90.6"/>
			<path id="Tracé_503" class="st1" d="M292.3,90.4v-8.9h1.2v1.7l-0.3-0.1c0.2-0.6,0.6-1,1.1-1.4c0.5-0.3,1.1-0.5,1.8-0.5
				c0.6,0,1.2,0.1,1.7,0.4c0.5,0.3,0.9,0.7,1.2,1.2c0.3,0.5,0.4,1.1,0.4,1.7v5.8h-1.2v-5.3c0-0.5-0.1-1-0.3-1.4
				c-0.2-0.4-0.5-0.7-0.8-0.9c-0.4-0.2-0.8-0.3-1.2-0.3c-0.4,0-0.8,0.1-1.2,0.3c-0.4,0.2-0.6,0.5-0.8,0.9c-0.2,0.4-0.3,0.9-0.3,1.4
				v5.3L292.3,90.4z"/>
			<path id="Tracé_504" class="st1" d="M305.1,90.6c-0.8,0-1.6-0.2-2.2-0.6c-0.7-0.4-1.2-1-1.6-1.7c-0.8-1.5-0.8-3.3,0-4.8
				c0.4-0.7,0.9-1.3,1.6-1.7c0.7-0.4,1.5-0.6,2.3-0.6c0.7,0,1.4,0.2,2,0.5c0.6,0.3,1.1,0.8,1.4,1.3l-0.2,0.3v-5.7h1.2v12.6h-1.3v-2
				l0.2,0.2c-0.3,0.6-0.8,1.1-1.4,1.5C306.5,90.4,305.8,90.6,305.1,90.6 M305.2,89.3c0.6,0,1.1-0.1,1.6-0.4c0.5-0.3,0.9-0.7,1.1-1.2
				c0.6-1.1,0.6-2.4,0-3.5c-0.3-0.5-0.7-0.9-1.1-1.2c-0.5-0.3-1-0.5-1.6-0.4c-0.6,0-1.1,0.1-1.6,0.4c-0.5,0.3-0.9,0.7-1.1,1.2
				c-0.5,1.1-0.5,2.4,0,3.5c0.3,0.5,0.6,0.9,1.1,1.2C304,89.2,304.6,89.3,305.2,89.3"/>
			<rect id="Rectangle_132" x="311.5" y="77.8" class="st1" width="1.2" height="12.6"/>
			<path id="Tracé_505" class="st1" d="M318.6,90.6c-0.8,0-1.6-0.2-2.3-0.6c-0.7-0.4-1.2-1-1.6-1.7c-0.8-1.5-0.8-3.3,0-4.8
				c0.4-0.7,0.9-1.2,1.5-1.6c0.7-0.4,1.4-0.6,2.2-0.6c0.6,0,1.2,0.1,1.7,0.4c0.5,0.2,0.9,0.6,1.3,1c0.4,0.4,0.6,0.9,0.8,1.4
				c0.2,0.5,0.3,1,0.3,1.6c0,0.1,0,0.2,0,0.4s0,0.3,0,0.4H315v-1.2h6.8l-0.6,0.5c0.1-0.6,0-1.1-0.2-1.6c-0.2-0.5-0.6-0.9-1-1.1
				c-0.4-0.3-1-0.4-1.5-0.4c-0.5,0-1.1,0.1-1.5,0.4c-0.5,0.3-0.9,0.7-1.1,1.2c-0.3,0.6-0.4,1.2-0.3,1.8c-0.1,0.6,0,1.3,0.3,1.9
				c0.3,0.5,0.7,0.9,1.2,1.2c0.5,0.3,1,0.4,1.6,0.4c0.6,0,1.2-0.1,1.6-0.5c0.4-0.3,0.8-0.7,1.1-1.2l1.1,0.6
				c-0.2,0.4-0.5,0.8-0.8,1.1c-0.4,0.3-0.8,0.6-1.3,0.8C319.8,90.5,319.2,90.6,318.6,90.6"/>
			<path id="Tracé_506" class="st1" d="M327.2,90.6c-0.8,0-1.6-0.2-2.2-0.6c-0.6-0.4-1.1-1-1.4-1.8l1-0.5c0.2,0.5,0.6,1,1.1,1.3
				c0.4,0.3,1,0.5,1.5,0.5c0.5,0,1-0.1,1.3-0.4c0.3-0.2,0.6-0.6,0.5-1c0-0.3-0.1-0.5-0.3-0.7c-0.2-0.2-0.4-0.3-0.6-0.4
				c-0.2-0.1-0.4-0.2-0.6-0.2l-1.3-0.4c-0.7-0.1-1.3-0.5-1.8-1c-0.4-0.4-0.6-0.9-0.5-1.5c0-0.5,0.1-1,0.4-1.4
				c0.3-0.4,0.6-0.7,1.1-0.9c0.5-0.2,1-0.3,1.5-0.3c0.7,0,1.4,0.2,2.1,0.6c0.6,0.4,1.1,1,1.3,1.6l-1.1,0.5c-0.2-0.5-0.5-0.9-1-1.2
				c-0.4-0.3-0.9-0.4-1.4-0.4c-0.4,0-0.9,0.1-1.2,0.4c-0.3,0.2-0.5,0.6-0.4,1c0,0.3,0.1,0.5,0.2,0.7c0.1,0.2,0.3,0.3,0.5,0.4
				c0.2,0.1,0.4,0.1,0.5,0.2l1.5,0.4c0.6,0.2,1.2,0.5,1.7,1c0.7,0.8,0.8,2,0.2,2.9c-0.3,0.4-0.7,0.7-1.1,0.9
				C328.3,90.5,327.7,90.6,327.2,90.6"/>
			<path id="Tracé_507" class="st1" d="M334.9,90.6c-0.8,0-1.6-0.2-2.2-0.6c-0.6-0.4-1.1-1-1.4-1.8l1-0.5c0.2,0.5,0.6,1,1.1,1.3
				c0.4,0.3,1,0.5,1.5,0.5c0.5,0,1-0.1,1.3-0.4c0.3-0.2,0.6-0.6,0.5-1c0-0.3-0.1-0.5-0.3-0.7c-0.2-0.2-0.4-0.3-0.6-0.4
				c-0.2-0.1-0.4-0.2-0.6-0.2l-1.3-0.4c-0.7-0.1-1.3-0.5-1.8-1c-0.4-0.4-0.6-0.9-0.5-1.5c0-0.5,0.1-1,0.4-1.4
				c0.3-0.4,0.6-0.7,1.1-0.9c0.5-0.2,1-0.3,1.5-0.3c0.7,0,1.4,0.2,2.1,0.6c0.6,0.4,1.1,1,1.3,1.6L337,84c-0.2-0.5-0.5-0.9-1-1.2
				c-0.4-0.3-0.9-0.4-1.4-0.4c-0.4,0-0.9,0.1-1.2,0.4c-0.3,0.2-0.5,0.6-0.4,1c0,0.3,0.1,0.5,0.2,0.7c0.1,0.2,0.3,0.3,0.5,0.4
				c0.2,0.1,0.4,0.1,0.5,0.2l1.5,0.4c0.6,0.2,1.2,0.5,1.7,1c0.7,0.8,0.8,2,0.2,2.9c-0.3,0.4-0.7,0.7-1.1,0.9
				C336.1,90.5,335.5,90.6,334.9,90.6"/>
			<path id="Tracé_508" class="st1" d="M341.7,93.7V81.5h1.2v2l-0.2-0.4c0.4-0.6,0.8-1,1.4-1.3c0.6-0.3,1.3-0.5,2-0.5
				c0.8,0,1.6,0.2,2.3,0.6c0.7,0.4,1.2,1,1.6,1.7c0.8,1.5,0.8,3.3,0,4.8c-0.4,0.7-0.9,1.3-1.6,1.7c-0.7,0.4-1.5,0.6-2.3,0.6
				c-0.7,0-1.4-0.2-2.1-0.5c-0.6-0.3-1.1-0.9-1.4-1.5l0.2-0.2v5.3L341.7,93.7z M346.2,89.3c0.6,0,1.1-0.1,1.6-0.4
				c0.5-0.3,0.9-0.7,1.1-1.2c0.5-1.1,0.5-2.4,0-3.5c-0.3-0.5-0.6-0.9-1.1-1.2c-0.5-0.3-1-0.5-1.6-0.4c-0.6,0-1.1,0.1-1.6,0.4
				c-0.5,0.3-0.9,0.7-1.1,1.2c-0.6,1.1-0.6,2.4,0,3.5c0.3,0.5,0.7,0.9,1.1,1.2C345,89.2,345.6,89.4,346.2,89.3"/>
			<path id="Tracé_509" class="st1" d="M356.3,90.6c-0.8,0-1.6-0.2-2.3-0.6c-0.7-0.4-1.2-1-1.6-1.7c-0.8-1.5-0.8-3.3,0-4.8
				c1.3-2.2,4.1-2.9,6.3-1.7c0.7,0.4,1.2,1,1.6,1.6c0.4,0.7,0.6,1.6,0.6,2.4c0,0.8-0.2,1.7-0.6,2.4c-0.4,0.7-1,1.3-1.6,1.7
				C357.9,90.4,357.1,90.6,356.3,90.6 M356.3,89.3c0.6,0,1.1-0.1,1.6-0.4c0.5-0.3,0.9-0.7,1.1-1.2c0.3-0.5,0.4-1.1,0.4-1.7
				c0-0.6-0.1-1.2-0.4-1.7c-0.3-0.5-0.7-0.9-1.1-1.2c-1-0.6-2.2-0.6-3.2,0c-0.5,0.3-0.9,0.7-1.2,1.2c-0.3,0.5-0.4,1.1-0.4,1.7
				c0,0.6,0.1,1.2,0.4,1.7c0.3,0.5,0.7,0.9,1.2,1.2C355.1,89.2,355.7,89.4,356.3,89.3"/>
			<path id="Tracé_510" class="st1" d="M365.4,90.6c-0.8,0-1.6-0.2-2.2-0.6c-0.6-0.4-1.1-1-1.4-1.8l1-0.5c0.2,0.5,0.6,1,1.1,1.3
				c0.4,0.3,1,0.5,1.5,0.5c0.5,0,1-0.1,1.3-0.4c0.3-0.2,0.6-0.6,0.5-1c0-0.3-0.1-0.5-0.3-0.7c-0.2-0.2-0.4-0.3-0.6-0.4
				c-0.2-0.1-0.4-0.2-0.6-0.2l-1.3-0.4c-0.7-0.1-1.3-0.5-1.8-1c-0.4-0.4-0.6-0.9-0.5-1.5c0-0.5,0.1-1,0.4-1.4
				c0.3-0.4,0.6-0.7,1.1-0.9c0.5-0.2,1-0.3,1.5-0.3c0.7,0,1.4,0.2,2.1,0.6c0.6,0.4,1.1,1,1.3,1.6l-1.1,0.5c-0.2-0.5-0.5-0.9-1-1.2
				c-0.4-0.3-0.9-0.4-1.4-0.4c-0.4,0-0.9,0.1-1.2,0.4c-0.3,0.2-0.5,0.6-0.4,1c0,0.3,0.1,0.5,0.2,0.7c0.1,0.2,0.3,0.3,0.5,0.4
				c0.2,0.1,0.4,0.1,0.5,0.2l1.5,0.4c0.6,0.2,1.2,0.5,1.7,1c0.7,0.8,0.8,2,0.2,2.9c-0.3,0.4-0.7,0.7-1.1,0.9
				C366.5,90.5,366,90.6,365.4,90.6"/>
			<path id="Tracé_511" class="st1" d="M373.1,90.6c-0.8,0-1.6-0.2-2.2-0.6c-0.6-0.4-1.1-1-1.4-1.8l1-0.5c0.2,0.5,0.6,1,1.1,1.3
				c0.4,0.3,1,0.5,1.5,0.5c0.5,0,1-0.1,1.3-0.4c0.3-0.2,0.6-0.6,0.5-1c0-0.3-0.1-0.5-0.3-0.7c-0.2-0.2-0.4-0.3-0.6-0.4
				c-0.2-0.1-0.4-0.2-0.6-0.2l-1.3-0.4c-0.7-0.1-1.3-0.5-1.8-1c-0.4-0.4-0.6-0.9-0.5-1.5c0-0.5,0.1-1,0.4-1.4
				c0.3-0.4,0.6-0.7,1.1-0.9c0.5-0.2,1-0.3,1.5-0.3c0.7,0,1.4,0.2,2.1,0.6c0.6,0.4,1.1,1,1.3,1.6l-1.1,0.5c-0.2-0.5-0.5-0.9-1-1.2
				c-0.4-0.3-0.9-0.4-1.4-0.4c-0.4,0-0.9,0.1-1.2,0.4c-0.3,0.2-0.5,0.6-0.4,1c0,0.3,0.1,0.5,0.2,0.7c0.1,0.2,0.3,0.3,0.5,0.4
				c0.2,0.1,0.4,0.1,0.5,0.2l1.5,0.4c0.6,0.2,1.2,0.5,1.7,1c0.7,0.8,0.8,2,0.2,2.9c-0.3,0.4-0.7,0.7-1.1,0.9
				C374.3,90.5,373.7,90.6,373.1,90.6"/>
			<path id="Tracé_512" class="st1" d="M377.8,78h1.3v1.8h-1.3V78z M377.8,81.5h1.3v8.9h-1.3V81.5z"/>
			<path id="Tracé_513" class="st1" d="M385.4,90.6c-0.7,0-1.4-0.2-2.1-0.5c-0.6-0.3-1.1-0.9-1.4-1.5l0.2-0.2v2h-1.2V77.8h1.2v5.7
				l-0.2-0.3c0.4-0.6,0.8-1,1.4-1.3c0.6-0.3,1.3-0.5,2-0.5c0.8,0,1.6,0.2,2.3,0.6c0.7,0.4,1.2,1,1.6,1.7c0.8,1.5,0.8,3.3,0,4.8
				c-0.4,0.7-0.9,1.3-1.6,1.7C387,90.4,386.2,90.6,385.4,90.6 M385.3,89.3c0.6,0,1.1-0.1,1.6-0.4c0.5-0.3,0.9-0.7,1.1-1.2
				c0.5-1.1,0.5-2.4,0-3.5c-0.3-0.5-0.6-0.9-1.1-1.2c-0.5-0.3-1-0.5-1.6-0.4c-0.6,0-1.1,0.1-1.6,0.4c-0.5,0.3-0.9,0.7-1.1,1.2
				c-0.6,1.1-0.6,2.4,0,3.5c0.3,0.5,0.7,0.9,1.1,1.2C384.2,89.2,384.8,89.4,385.3,89.3"/>
			<path id="Tracé_514" class="st1" d="M391.3,78h1.2v1.8h-1.2V78z M391.3,81.5h1.2v8.9h-1.2V81.5z"/>
			<rect id="Rectangle_133" x="394.4" y="77.8" class="st1" width="1.2" height="12.6"/>
			<path id="Tracé_515" class="st1" d="M397.5,78h1.2v1.8h-1.2V78z M397.5,81.5h1.2v8.9h-1.2V81.5z"/>
			<path id="Tracé_516" class="st1" d="M404,90.5c-0.7,0-1.4-0.2-1.8-0.7c-0.5-0.6-0.7-1.3-0.6-2v-5.1h-1.6v-1.2h0.4
				c0.3,0,0.7-0.1,0.9-0.4c0.2-0.3,0.3-0.6,0.3-0.9v-0.7h1.2v2.1h2v1.2h-2v5.1c0,0.3,0,0.5,0.1,0.8c0.1,0.2,0.2,0.4,0.5,0.5
				c0.3,0.1,0.6,0.2,0.9,0.2c0.1,0,0.2,0,0.3,0s0.2,0,0.3,0v1.1c-0.1,0-0.3,0.1-0.4,0.1C404.2,90.5,404.1,90.5,404,90.5"/>
			<path id="Tracé_517" class="st1" d="M406.3,78h1.2v1.8h-1.2V78z M406.3,81.5h1.2v8.9h-1.2V81.5z"/>
			<path id="Tracé_518" class="st1" d="M413.5,90.6c-0.8,0-1.6-0.2-2.3-0.6c-0.7-0.4-1.2-1-1.6-1.7c-0.8-1.5-0.8-3.3,0-4.8
				c0.4-0.7,0.9-1.2,1.5-1.6c0.7-0.4,1.4-0.6,2.2-0.6c0.6,0,1.2,0.1,1.7,0.4c0.5,0.2,0.9,0.6,1.3,1c0.4,0.4,0.6,0.9,0.8,1.4
				c0.2,0.5,0.3,1,0.3,1.6c0,0.1,0,0.2,0,0.4s0,0.3,0,0.4h-7.5v-1.2h6.8l-0.6,0.5c0.1-0.6,0-1.1-0.2-1.6c-0.2-0.5-0.6-0.9-1-1.1
				c-0.4-0.3-1-0.4-1.5-0.4c-0.5,0-1.1,0.1-1.5,0.4c-0.5,0.3-0.9,0.7-1.1,1.2c-0.3,0.6-0.4,1.2-0.3,1.8c-0.1,0.6,0,1.3,0.3,1.9
				c0.3,0.5,0.7,0.9,1.2,1.2c0.5,0.3,1,0.4,1.6,0.4c0.6,0,1.2-0.1,1.6-0.5c0.4-0.3,0.8-0.7,1.1-1.2l1.1,0.6
				c-0.2,0.4-0.5,0.8-0.8,1.1c-0.4,0.3-0.8,0.6-1.3,0.8C414.6,90.5,414,90.6,413.5,90.6"/>
			<path id="Tracé_519" class="st1" d="M422,90.6c-0.8,0-1.6-0.2-2.2-0.6c-0.6-0.4-1.1-1-1.4-1.8l1-0.5c0.2,0.5,0.6,1,1.1,1.3
				c0.4,0.3,1,0.5,1.5,0.5c0.5,0,1-0.1,1.3-0.4c0.3-0.2,0.6-0.6,0.5-1c0-0.3-0.1-0.5-0.3-0.7c-0.2-0.2-0.4-0.3-0.6-0.4
				c-0.2-0.1-0.4-0.2-0.6-0.2l-1.3-0.4c-0.7-0.1-1.3-0.5-1.8-1c-0.4-0.4-0.6-0.9-0.5-1.5c0-0.5,0.1-1,0.4-1.4
				c0.3-0.4,0.6-0.7,1.1-0.9c0.5-0.2,1-0.3,1.5-0.3c0.7,0,1.4,0.2,2.1,0.6c0.6,0.4,1.1,1,1.3,1.6l-1.1,0.5c-0.2-0.5-0.5-0.9-1-1.2
				c-0.4-0.3-0.9-0.4-1.4-0.4c-0.4,0-0.9,0.1-1.2,0.4c-0.3,0.2-0.5,0.6-0.4,1c0,0.3,0.1,0.5,0.2,0.7c0.1,0.2,0.3,0.3,0.5,0.4
				c0.2,0.1,0.4,0.1,0.5,0.2l1.5,0.4c0.6,0.2,1.2,0.5,1.7,1c0.7,0.8,0.8,2,0.2,2.9c-0.3,0.4-0.7,0.7-1.1,0.9
				C423.2,90.5,422.6,90.6,422,90.6"/>
			<rect id="Rectangle_134" x="427.1" y="88.6" class="st1" width="1.3" height="1.8"/>
		</g>
	</g>
</g>
</svg>
