<svg xmlns="http://www.w3.org/2000/svg" width="128.122" height="136.99" viewBox="0 0 128.122 136.99">
  <g id="Groupe_146" data-name="Groupe 146" transform="translate(1647 -1760)">
    <path id="Tracé_220" data-name="Tracé 220" d="M62.825,5.743a2.21,2.21,0,0,0-3.978,0l-3.779,7.69-8.486,1.215a2.2,2.2,0,0,0-1.238,3.735l6.143,5.989-1.436,8.442a2.21,2.21,0,0,0,3.2,2.32l7.58-3.934,7.58,3.978a2.21,2.21,0,0,0,3.2-2.32l-1.436-8.442,6.121-5.989a2.2,2.2,0,0,0-1.238-3.735l-8.486-1.215Zm3.447,16.309a2.21,2.21,0,0,0-.641,1.967l.884,5.171-4.663-2.431a2.077,2.077,0,0,0-2.033,0l-4.663,2.431.884-5.171a2.21,2.21,0,0,0-.641-1.967l-3.757-3.668,5.193-.751a2.21,2.21,0,0,0,1.79-1.215l2.21-4.707,2.21,4.707a2.21,2.21,0,0,0,1.68,1.215l5.193.751Z" transform="translate(-1603.972 1763.23)" fill="#fff"/>
    <path id="Tracé_221" data-name="Tracé 221" d="M108.864,1a24.309,24.309,0,0,0-7.8,47.313l-3.58,7.933H93.395a2.21,2.21,0,0,0-2.21,2.21V78.346H79.34L73.9,66.677a2.21,2.21,0,0,0-.707-.862L64.357,59.3l-2.895-8.2,14.762-10.32a6.874,6.874,0,0,0-7.668-11.4l-47.623,30.1A6.851,6.851,0,0,0,28,71.186l11.4-6.63,1.238,5.215L33.728,102.19h0a2.607,2.607,0,0,0,0,.442V118.1H7.21A2.21,2.21,0,0,0,5,120.311V135.78a2.21,2.21,0,0,0,2.21,2.21H122.123a2.21,2.21,0,0,0,2.21-2.21V58.457a2.21,2.21,0,0,0-2.21-2.21h-1.878l-3.58-7.933A24.309,24.309,0,0,0,108.864,1ZM33.728,133.592H9.42V122.543H33.728Zm28.728,0H38.148V104.864H62.457Zm0-53.037v19.889H49.927l7.381-25.9,3.735,1.238,2.21,3.182A2.21,2.21,0,0,0,62.457,80.555Zm1.834-7.845a2.21,2.21,0,0,0-1.127-.884l-6.63-2.21a2.21,2.21,0,0,0-1.746.155,2.077,2.077,0,0,0-1.083,1.348L45.33,100.444H38.7L45.109,70.28a2.055,2.055,0,0,0,0-.972l-2.077-8.641a2.21,2.21,0,0,0-1.26-1.525,2.32,2.32,0,0,0-1.989.11L25.795,67.3a2.453,2.453,0,0,1-3.381-.994,2.409,2.409,0,0,1,.884-3.16L71.009,33.087a2.425,2.425,0,0,1,2.674,4.044L57.507,48.424a2.21,2.21,0,0,0-.818,2.541L60.379,61.4a2.21,2.21,0,0,0,.773,1.061l8.972,6.63,4.42,9.3H68.07Zm26.894,60.882H66.876V82.765H91.185Zm27.623-72.926h1.1v72.926H95.6V60.667Zm-16.464-4.42,3.094-6.895a22.253,22.253,0,0,0,6.851,0l3.2,6.895Zm6.63-11.049a20.024,20.024,0,1,0-.11,0Z" transform="translate(-1652 1759)" fill="#fff"/>
    <path id="Tracé_222" data-name="Tracé 222" d="M16.6,20.839A8.839,8.839,0,1,0,25.439,12,8.839,8.839,0,0,0,16.6,20.839Zm13.259,0a4.42,4.42,0,1,1-4.42-4.42A4.42,4.42,0,0,1,29.859,20.839Z" transform="translate(-1637.965 1772.309)" fill="#fff"/>
  </g>
</svg>
