<?xml version="1.0" encoding="utf-8"?>
<!-- Generator: Adobe Illustrator 21.1.0, SVG Export Plug-In . SVG Version: 6.00 Build 0)  -->
<svg version="1.1" id="Layer_1" xmlns="http://www.w3.org/2000/svg" xmlns:xlink="http://www.w3.org/1999/xlink" x="0px" y="0px"
	 width="269.9px" height="97px" viewBox="0 0 269.9 97" style="enable-background:new 0 0 269.9 97;" xml:space="preserve">
<style type="text/css">
	.st0{clip-path:url(#SVGID_2_);}
	.st1{fill:url(#SVGID_3_);}
	.st2{clip-path:url(#SVGID_5_);}
	.st3{fill:#272727;}
	.st4{enable-background:new    ;}
	.st5{fill:#F4A700;}
</style>
<g transform="translate(308 4601.461)">
	<g transform="translate(0 1.084)">
		<g>
			<defs>
				<path id="SVGID_1_" d="M-256.6-4601.5c0,3-2.4,5.4-5.4,5.4h-30.3v-5.4h-10.2c0,3-2.4,5.4-5.4,5.4v8.4h6v14.2
					c0,4.1,1.2,7.4,3.5,9.7c2.4,2.3,5.7,3.5,9.9,3.5c0.8,0,1.6,0,2.3-0.1c0.8-0.1,1.6-0.2,2.2-0.3v-8.2c-0.4,0-0.8,0.1-1.2,0.1
					c-0.3,0-0.7,0.1-1,0.1c-1.2,0-2.3-0.2-3.4-0.6c-0.9-0.3-1.6-1-2-1.8c-0.5-0.9-0.7-2-0.6-3v-13.5h36.3v14.2
					c0,4.1,1.2,7.4,3.5,9.7c2.4,2.3,5.7,3.5,9.9,3.5c0.8,0,1.6,0,2.3-0.1c0.8-0.1,1.6-0.2,2.2-0.3v-8.2c-0.4,0-0.8,0.1-1.2,0.1
					c-0.3,0-0.7,0.1-1,0.1c-1.2,0-2.3-0.2-3.4-0.6c-0.9-0.3-1.6-1-2-1.8c-0.5-0.9-0.7-2-0.7-3v-13.5h8.5v-8.4h-8.5v-5.4H-256.6z"/>
			</defs>
			<clipPath id="SVGID_2_">
				<use xlink:href="#SVGID_1_"  style="overflow:visible;"/>
			</clipPath>
			<g class="st0">
				
					<linearGradient id="SVGID_3_" gradientUnits="userSpaceOnUse" x1="-468.6774" y1="-4139.1108" x2="-468.6714" y2="-4139.1108" gradientTransform="matrix(70.181 0 0 -41.202 32584.25 -175120.5)">
					<stop  offset="0" style="stop-color:#1A9F97"/>
					<stop  offset="1" style="stop-color:#1F817A"/>
				</linearGradient>
				<rect x="-308" y="-4601.5" class="st1" width="70.2" height="41.2"/>
			</g>
		</g>
	</g>
	<g>
		<defs>
			<rect id="SVGID_4_" x="-308" y="-4601.5" width="266.6" height="54.7"/>
		</defs>
		<clipPath id="SVGID_5_">
			<use xlink:href="#SVGID_4_"  style="overflow:visible;"/>
		</clipPath>
		<g class="st2">
			<path class="st3" d="M-198.2-4584.9c-0.8-2.1-1.9-3.9-3.4-5.5c-1.5-1.6-3.4-2.9-5.5-3.7c-2.4-0.9-4.9-1.4-7.5-1.3
				c-3.2,0-6.3,0.8-9.1,2.4c-2.7,1.6-4.9,3.8-6.4,6.5c-1.6,2.9-2.4,6.2-2.4,9.5c0,3.3,0.7,6.5,2.3,9.3c1.5,2.8,3.7,5.1,6.4,6.7
				c3,1.7,6.4,2.6,9.8,2.5c2.3,0,4.5-0.3,6.7-1.1c1.9-0.7,3.7-1.7,5.3-3c1.4-1.2,2.6-2.8,3.3-4.5l-7.8-3.7c-0.7,1.2-1.7,2.2-2.9,2.9
				c-2.9,1.5-6.4,1.4-9.3-0.2c-1.3-0.8-2.4-2.1-3-3.5c-0.3-0.8-0.6-1.7-0.7-2.5h24.8c0.2-0.6,0.3-1.1,0.4-1.7c0.1-0.7,0.1-1.4,0.1-2
				C-197-4580.4-197.4-4582.7-198.2-4584.9 M-222-4581.4c0.1-0.5,0.2-1,0.4-1.4c0.5-1.5,1.5-2.7,2.7-3.6c1.3-0.8,2.8-1.3,4.3-1.2
				c1.6-0.1,3.1,0.4,4.4,1.3c1.2,0.8,2.1,2,2.5,3.4c0.2,0.5,0.3,1,0.3,1.6H-222z"/>
			<path class="st3" d="M-178.1-4568.1l16.9-19.2v-7.8h-29.5v8.4h16.6l-17.4,19.2v7.8h30.5v-8.4H-178.1z"/>
			<path class="st3" d="M-125.6-4589.7c-1.3-2-3.2-3.5-5.3-4.5c-2.5-1.1-5.2-1.7-7.9-1.6c-2.4,0-4.7,0.4-6.9,1.2
				c-2,0.7-3.9,1.8-5.4,3.3c-1.5,1.4-2.6,3.2-3.3,5.1l7.8,3.7c0.6-1.5,1.6-2.8,2.9-3.8c1.3-1,2.9-1.5,4.6-1.4
				c1.6-0.1,3.1,0.4,4.3,1.4c1,0.8,1.6,2.1,1.6,3.4v0.9l-9.8,1.6c-2.5,0.3-4.8,1.1-7,2.2c-1.7,0.9-3.2,2.2-4.2,3.9
				c-0.9,1.6-1.4,3.4-1.4,5.3c-0.1,1.9,0.5,3.8,1.5,5.5c1,1.6,2.5,2.8,4.3,3.5c2.1,0.9,4.3,1.3,6.6,1.2c1.8,0,3.5-0.2,5.2-0.7
				c1.5-0.5,3-1.3,4.2-2.3c0.4-0.4,0.8-0.7,1.2-1.1v3.4h9.1v-23.3C-123.6-4585.4-124.3-4587.7-125.6-4589.7 M-133.4-4573.7
				c0,1.4-0.3,2.7-1,3.9c-0.7,1.2-1.6,2.2-2.8,2.8c-1.3,0.7-2.7,1.1-4.2,1c-1.1,0-2.2-0.3-3-0.9c-0.8-0.6-1.3-1.5-1.2-2.5
				c-0.1-1,0.3-2,1.1-2.7c0.9-0.7,2-1.2,3.2-1.3l8-1.4L-133.4-4573.7z"/>
			<path class="st3" d="M-87.5-4589.5c-1.1-2-2.7-3.6-4.7-4.7c-2.2-1.2-4.6-1.7-7-1.7c-2.2-0.1-4.5,0.5-6.4,1.5
				c-1.5,0.8-2.7,2.1-3.5,3.6v-4.3h-9.1v35.4h9.7v-20.7c0-1.2,0.2-2.5,0.8-3.6c0.5-1,1.3-1.8,2.3-2.3c2.1-1.1,4.7-1.1,6.8,0
				c1,0.5,1.7,1.4,2.3,2.3c0.6,1.1,0.8,2.3,0.8,3.6v20.7h9.7v-22.7C-85.8-4584.9-86.3-4587.3-87.5-4589.5"/>
			<path class="st3" d="M-50.2-4589.7c-1.3-2-3.2-3.5-5.3-4.5c-2.5-1.1-5.2-1.7-7.9-1.6c-2.4,0-4.7,0.4-6.9,1.2
				c-2,0.7-3.9,1.8-5.4,3.3c-1.5,1.4-2.6,3.2-3.3,5.1l7.8,3.7c0.6-1.5,1.6-2.8,2.9-3.8c1.3-1,2.9-1.5,4.6-1.4
				c1.6-0.1,3.1,0.4,4.3,1.4c1,0.8,1.6,2.1,1.6,3.4v0.9l-9.8,1.6c-2.5,0.3-4.8,1.1-7,2.2c-1.7,0.9-3.2,2.2-4.2,3.9
				c-0.9,1.6-1.4,3.4-1.4,5.3c-0.1,1.9,0.5,3.8,1.5,5.5c1,1.6,2.5,2.8,4.3,3.5c2.1,0.9,4.3,1.3,6.6,1.2c1.8,0,3.5-0.2,5.2-0.7
				c1.5-0.5,3-1.3,4.2-2.3c0.4-0.4,0.8-0.7,1.2-1.1v3.4h9.1v-23.3C-48.3-4585.4-48.9-4587.7-50.2-4589.7 M-58-4573.7
				c0,1.4-0.3,2.7-1,3.9c-0.7,1.2-1.6,2.2-2.8,2.8c-1.3,0.7-2.7,1.1-4.2,1c-1.1,0-2.2-0.3-3-0.9c-0.8-0.6-1.3-1.5-1.2-2.5
				c-0.1-1,0.3-2,1.1-2.7c0.9-0.7,2-1.2,3.2-1.3l8-1.4L-58-4573.7z"/>
			<path class="st3" d="M-44.5-4599.3v-1.9h-0.6v-0.2h1.4v0.2h-0.6v2L-44.5-4599.3z"/>
			<path class="st3" d="M-43.3-4599.3v-2.2h0.2l0.8,1.2h-0.1l0.8-1.2h0.2v2.2h-0.2v-1.9l0.1,0l-0.8,1.2h0l-0.8-1.2l0.1,0v1.9H-43.3z
				"/>
			<path class="st3" d="M-305-4548.8v-3.5l-2.6-4h0.9l2.3,3.5h-0.3l2.3-3.5h0.9l-2.6,4v3.5H-305z"/>
			<path class="st3" d="M-299.6-4548.7c-0.5,0-1-0.1-1.4-0.4c-0.4-0.2-0.8-0.6-1-1c-0.5-0.9-0.5-2,0-2.9c0.8-1.3,2.5-1.8,3.8-1
				c0.4,0.2,0.8,0.6,1,1c0.2,0.4,0.4,0.9,0.4,1.5c0,0.5-0.1,1-0.4,1.5c-0.2,0.4-0.6,0.8-1,1
				C-298.6-4548.8-299.1-4548.7-299.6-4548.7 M-299.6-4549.5c0.3,0,0.7-0.1,1-0.3c0.3-0.2,0.5-0.4,0.7-0.7c0.2-0.3,0.3-0.7,0.3-1.1
				c0-0.4-0.1-0.7-0.3-1.1c-0.2-0.3-0.4-0.6-0.7-0.7c-0.6-0.4-1.4-0.4-2,0c-0.3,0.2-0.5,0.4-0.7,0.7c-0.2,0.3-0.3,0.7-0.3,1.1
				c0,0.4,0.1,0.7,0.3,1.1c0.2,0.3,0.4,0.6,0.7,0.7C-300.3-4549.5-299.9-4549.5-299.6-4549.5"/>
			<path class="st3" d="M-294-4548.7c-0.4,0-0.7-0.1-1-0.3c-0.3-0.2-0.6-0.4-0.7-0.7c-0.2-0.3-0.3-0.7-0.3-1.1v-3.4h0.8v3.3
				c0,0.3,0.1,0.5,0.2,0.8c0.1,0.2,0.3,0.4,0.5,0.5c0.5,0.2,1,0.2,1.5,0c0.2-0.1,0.4-0.3,0.5-0.5c0.1-0.3,0.2-0.5,0.2-0.8v-3.2h0.8
				v5.4h-0.8v-1.1l0.2,0c-0.1,0.3-0.4,0.6-0.7,0.8C-293.2-4548.8-293.6-4548.7-294-4548.7"/>
			<path class="st3" d="M-288.5-4548.8c-0.4,0-0.8-0.1-1.1-0.4c-0.3-0.3-0.4-0.8-0.4-1.2v-3.1h-1v-0.8h0.3c0.2,0,0.4-0.1,0.5-0.2
				c0.1-0.2,0.2-0.4,0.2-0.6v-0.5h0.8v1.3h1.2v0.8h-1.2v3.1c0,0.2,0,0.3,0.1,0.5c0.1,0.1,0.2,0.3,0.3,0.3c0.2,0.1,0.3,0.1,0.5,0.1
				c0.1,0,0.1,0,0.2,0c0.1,0,0.1,0,0.2,0v0.7c-0.1,0-0.2,0-0.3,0C-288.3-4548.8-288.4-4548.8-288.5-4548.8"/>
			<path class="st3" d="M-287.1-4548.8v-7.7h0.8v3.3l-0.2,0c0.1-0.3,0.4-0.6,0.7-0.8c0.3-0.2,0.7-0.3,1.1-0.3c0.4,0,0.7,0.1,1,0.3
				c0.3,0.2,0.6,0.4,0.7,0.7c0.2,0.3,0.3,0.7,0.3,1v3.5h-0.8v-3.2c0-0.3-0.1-0.6-0.2-0.8c-0.1-0.2-0.3-0.4-0.5-0.5
				c-0.2-0.1-0.5-0.2-0.7-0.2c-0.3,0-0.5,0.1-0.7,0.2c-0.2,0.1-0.4,0.3-0.5,0.5c-0.1,0.3-0.2,0.5-0.2,0.8v3.2L-287.1-4548.8z"/>
			<path class="st3" d="M-277.9-4548.7c-0.5,0-1-0.1-1.4-0.4c-0.4-0.2-0.7-0.6-1-1c-0.5-0.9-0.5-2,0-2.9c0.2-0.4,0.5-0.8,0.9-1
				c0.4-0.2,0.9-0.4,1.3-0.4c0.4,0,0.7,0.1,1,0.2c0.3,0.1,0.6,0.3,0.8,0.6c0.2,0.2,0.4,0.5,0.5,0.8c0.1,0.3,0.2,0.6,0.2,0.9
				c0,0.1,0,0.1,0,0.2c0,0.1,0,0.2,0,0.3h-4.6v-0.7h4.1l-0.4,0.3c0.1-0.3,0-0.7-0.1-1c-0.1-0.3-0.4-0.5-0.6-0.7
				c-0.3-0.2-0.6-0.3-0.9-0.3c-0.3,0-0.7,0.1-0.9,0.3c-0.3,0.2-0.5,0.4-0.7,0.7c-0.2,0.3-0.2,0.7-0.2,1.1c0,0.4,0,0.8,0.2,1.1
				c0.2,0.3,0.4,0.6,0.7,0.7c0.3,0.2,0.6,0.3,1,0.3c0.4,0,0.7-0.1,1-0.3c0.3-0.2,0.5-0.4,0.7-0.7l0.6,0.3c-0.1,0.3-0.3,0.5-0.5,0.7
				c-0.2,0.2-0.5,0.4-0.8,0.5C-277.3-4548.8-277.6-4548.7-277.9-4548.7"/>
			<path class="st3" d="M-274.6-4548.8v-5.4h0.8v1l-0.1-0.2c0.1-0.3,0.4-0.6,0.7-0.7c0.3-0.2,0.6-0.3,1-0.3c0.8,0,1.6,0.5,1.9,1.3
				l-0.2,0c0.1-0.4,0.4-0.7,0.7-1c0.6-0.4,1.5-0.4,2.1-0.1c0.3,0.2,0.6,0.4,0.7,0.7c0.2,0.3,0.3,0.7,0.3,1v3.5h-0.8v-3.2
				c0-0.3-0.1-0.6-0.2-0.8c-0.2-0.5-0.7-0.7-1.2-0.7c-0.2,0-0.5,0.1-0.7,0.2c-0.2,0.1-0.4,0.3-0.5,0.5c-0.1,0.3-0.2,0.5-0.2,0.8v3.2
				h-0.8v-3.2c0-0.3-0.1-0.6-0.2-0.8c-0.2-0.5-0.7-0.7-1.2-0.7c-0.5,0-1,0.3-1.2,0.7c-0.1,0.3-0.2,0.5-0.2,0.8v3.2L-274.6-4548.8z"
				/>
			<path class="st3" d="M-265.9-4546.8v-7.4h0.8v1.2l-0.1-0.2c0.2-0.3,0.5-0.6,0.9-0.8c0.4-0.2,0.8-0.3,1.2-0.3c0.5,0,1,0.1,1.4,0.4
				c0.4,0.2,0.7,0.6,0.9,1c0.5,0.9,0.5,2,0,2.9c-0.2,0.4-0.5,0.8-0.9,1c-0.4,0.2-0.9,0.4-1.4,0.4c-0.4,0-0.9-0.1-1.3-0.3
				c-0.4-0.2-0.7-0.5-0.8-0.9l0.1-0.1v3.2L-265.9-4546.8z M-263.2-4549.5c0.3,0,0.7-0.1,1-0.3c0.3-0.2,0.5-0.4,0.7-0.7
				c0.3-0.7,0.3-1.5,0-2.1c-0.2-0.3-0.4-0.6-0.7-0.7c-0.3-0.2-0.6-0.3-1-0.3c-0.3,0-0.7,0.1-1,0.3c-0.3,0.2-0.5,0.4-0.7,0.7
				c-0.3,0.7-0.3,1.5,0,2.1c0.2,0.3,0.4,0.6,0.7,0.7C-263.9-4549.5-263.5-4549.5-263.2-4549.5"/>
			<path class="st3" d="M-257-4548.7c-0.5,0-1-0.1-1.4-0.4c-0.4-0.2-0.8-0.6-1-1c-0.5-0.9-0.5-2,0-2.9c0.8-1.3,2.5-1.8,3.8-1
				c0.4,0.2,0.8,0.6,1,1c0.2,0.4,0.4,0.9,0.4,1.5c0,0.5-0.1,1-0.4,1.5c-0.2,0.4-0.6,0.8-1,1C-256.1-4548.8-256.6-4548.7-257-4548.7
				 M-257-4549.5c0.3,0,0.7-0.1,1-0.3c0.3-0.2,0.5-0.4,0.7-0.7c0.2-0.3,0.3-0.7,0.3-1.1c0-0.4-0.1-0.7-0.3-1.1
				c-0.2-0.3-0.4-0.6-0.7-0.7c-0.6-0.4-1.4-0.4-2,0c-0.3,0.2-0.5,0.4-0.7,0.7c-0.2,0.3-0.3,0.7-0.3,1.1c0,0.4,0.1,0.7,0.3,1.1
				c0.2,0.3,0.4,0.6,0.7,0.7C-257.7-4549.5-257.4-4549.5-257-4549.5"/>
			<path class="st3" d="M-252.3-4548.8l-1.9-5.4h0.9l1.5,4.7h-0.3l1.4-4.7h0.8l1.4,4.7h-0.3l1.5-4.7h0.8l-1.9,5.4h-0.8l-1.4-4.6h0.2
				l-1.4,4.6H-252.3z"/>
			<path class="st3" d="M-243.5-4548.7c-0.5,0-1-0.1-1.4-0.4c-0.4-0.2-0.7-0.6-1-1c-0.5-0.9-0.5-2,0-2.9c0.2-0.4,0.5-0.8,0.9-1
				c0.4-0.2,0.9-0.4,1.3-0.4c0.4,0,0.7,0.1,1,0.2c0.3,0.1,0.6,0.3,0.8,0.6c0.2,0.2,0.4,0.5,0.5,0.8c0.1,0.3,0.2,0.6,0.2,0.9
				c0,0.1,0,0.1,0,0.2c0,0.1,0,0.2,0,0.3h-4.6v-0.7h4.1l-0.4,0.3c0.1-0.3,0-0.7-0.1-1c-0.1-0.3-0.4-0.5-0.6-0.7
				c-0.3-0.2-0.6-0.3-0.9-0.3c-0.3,0-0.7,0.1-0.9,0.3c-0.3,0.2-0.5,0.4-0.7,0.7c-0.2,0.3-0.2,0.7-0.2,1.1c0,0.4,0,0.8,0.2,1.1
				c0.2,0.3,0.4,0.6,0.7,0.7c0.3,0.2,0.6,0.3,1,0.3c0.4,0,0.7-0.1,1-0.3c0.3-0.2,0.5-0.4,0.7-0.7l0.6,0.3c-0.1,0.3-0.3,0.5-0.5,0.7
				c-0.2,0.2-0.5,0.4-0.8,0.5C-242.8-4548.8-243.1-4548.7-243.5-4548.7"/>
			<path class="st3" d="M-240.2-4548.8v-5.4h0.8v0.9l-0.1-0.1c0.1-0.3,0.3-0.5,0.6-0.6c0.3-0.2,0.6-0.2,0.9-0.2h0.3v0.8h-0.5
				c-0.4,0-0.7,0.1-0.9,0.4c-0.3,0.3-0.4,0.7-0.4,1v3.3L-240.2-4548.8z"/>
			<path class="st3" d="M-237.2-4548.8v-5.4h0.8v1l-0.1-0.2c0.1-0.3,0.4-0.6,0.7-0.7c0.3-0.2,0.6-0.3,1-0.3c0.8,0,1.6,0.5,1.9,1.3
				l-0.2,0c0.1-0.4,0.4-0.7,0.7-1c0.6-0.4,1.5-0.4,2.1-0.1c0.3,0.2,0.6,0.4,0.7,0.7c0.2,0.3,0.3,0.7,0.3,1v3.5h-0.8v-3.2
				c0-0.3-0.1-0.6-0.2-0.8c-0.2-0.5-0.7-0.7-1.2-0.7c-0.2,0-0.5,0.1-0.7,0.2c-0.2,0.1-0.4,0.3-0.5,0.5c-0.1,0.3-0.2,0.5-0.2,0.8v3.2
				h-0.8v-3.2c0-0.3-0.1-0.6-0.2-0.8c-0.2-0.5-0.7-0.7-1.2-0.7c-0.5,0-1,0.3-1.2,0.7c-0.1,0.3-0.2,0.5-0.2,0.8v3.2L-237.2-4548.8z"
				/>
			<path class="st3" d="M-226-4548.7c-0.5,0-1-0.1-1.4-0.4c-0.4-0.2-0.7-0.6-1-1c-0.5-0.9-0.5-2,0-2.9c0.2-0.4,0.5-0.8,0.9-1
				c0.4-0.2,0.9-0.4,1.3-0.4c0.4,0,0.7,0.1,1,0.2c0.3,0.1,0.6,0.3,0.8,0.6c0.2,0.2,0.4,0.5,0.5,0.8c0.1,0.3,0.2,0.6,0.2,0.9
				c0,0.1,0,0.1,0,0.2s0,0.2,0,0.3h-4.6v-0.7h4.1l-0.4,0.3c0.1-0.3,0-0.7-0.1-1c-0.1-0.3-0.4-0.5-0.6-0.7c-0.3-0.2-0.6-0.3-0.9-0.3
				c-0.3,0-0.7,0.1-0.9,0.3c-0.3,0.2-0.5,0.4-0.7,0.7c-0.2,0.3-0.2,0.7-0.2,1.1c0,0.4,0,0.8,0.2,1.1c0.2,0.3,0.4,0.6,0.7,0.7
				c0.3,0.2,0.6,0.3,1,0.3c0.4,0,0.7-0.1,1-0.3c0.3-0.2,0.5-0.4,0.7-0.7l0.6,0.3c-0.1,0.3-0.3,0.5-0.5,0.7c-0.2,0.2-0.5,0.4-0.8,0.5
				C-225.3-4548.8-225.6-4548.7-226-4548.7"/>
			<path class="st3" d="M-222.7-4548.8v-5.4h0.8v1.1l-0.2,0c0.1-0.3,0.4-0.6,0.7-0.8c0.3-0.2,0.7-0.3,1.1-0.3c0.4,0,0.7,0.1,1,0.3
				c0.3,0.2,0.6,0.4,0.7,0.7c0.2,0.3,0.3,0.7,0.3,1v3.5h-0.8v-3.2c0-0.3-0.1-0.6-0.2-0.8c-0.1-0.2-0.3-0.4-0.5-0.5
				c-0.2-0.1-0.5-0.2-0.7-0.2c-0.3,0-0.5,0.1-0.7,0.2c-0.2,0.1-0.4,0.3-0.5,0.5c-0.1,0.3-0.2,0.5-0.2,0.8v3.2L-222.7-4548.8z"/>
			<path class="st3" d="M-215.2-4548.8c-0.4,0-0.8-0.1-1.1-0.4c-0.3-0.3-0.4-0.8-0.4-1.2v-3.1h-1v-0.8h0.3c0.2,0,0.4-0.1,0.5-0.2
				c0.1-0.2,0.2-0.4,0.2-0.6v-0.5h0.8v1.3h1.2v0.8h-1.2v3.1c0,0.2,0,0.3,0.1,0.5c0.1,0.1,0.2,0.3,0.3,0.3c0.2,0.1,0.3,0.1,0.5,0.1
				c0.1,0,0.1,0,0.2,0c0.1,0,0.1,0,0.2,0v0.7c-0.1,0-0.2,0-0.3,0C-215.1-4548.8-215.2-4548.8-215.2-4548.8"/>
			<path class="st3" d="M-213.8-4547.5v-0.4c0.2,0,0.3-0.2,0.4-0.3c0.1-0.2,0.2-0.4,0.1-0.6h-0.4v-1.1h0.8v0.9
				c0,0.4-0.1,0.7-0.3,1.1C-213.2-4547.8-213.5-4547.6-213.8-4547.5"/>
			<path class="st3" d="M-208.3-4548.7c-0.5,0-1-0.1-1.4-0.4c-0.4-0.3-0.7-0.6-0.9-1.1l0.6-0.3c0.1,0.3,0.4,0.6,0.7,0.8
				c0.3,0.2,0.6,0.3,0.9,0.3c0.3,0,0.6-0.1,0.8-0.2c0.2-0.1,0.3-0.4,0.3-0.6c0-0.2,0-0.3-0.2-0.5c-0.1-0.1-0.2-0.2-0.4-0.3
				c-0.1-0.1-0.2-0.1-0.4-0.1l-0.8-0.2c-0.4-0.1-0.8-0.3-1.1-0.6c-0.2-0.2-0.3-0.6-0.3-0.9c0-0.3,0.1-0.6,0.2-0.8
				c0.2-0.2,0.4-0.4,0.7-0.5c0.3-0.1,0.6-0.2,0.9-0.2c0.4,0,0.9,0.1,1.2,0.4c0.4,0.2,0.6,0.6,0.8,1l-0.6,0.3
				c-0.1-0.3-0.3-0.5-0.6-0.7c-0.2-0.2-0.5-0.3-0.8-0.3c-0.3,0-0.5,0.1-0.7,0.2c-0.2,0.1-0.3,0.4-0.3,0.6c0,0.2,0,0.3,0.1,0.4
				c0.1,0.1,0.2,0.2,0.3,0.2c0.1,0,0.2,0.1,0.3,0.1l0.9,0.3c0.4,0.1,0.7,0.3,1,0.6c0.4,0.5,0.5,1.2,0.1,1.8
				c-0.2,0.2-0.4,0.4-0.7,0.6C-207.7-4548.8-208-4548.7-208.3-4548.7"/>
			<path class="st3" d="M-205.5-4546.8v-7.4h0.8v1.2l-0.1-0.2c0.2-0.3,0.5-0.6,0.9-0.8c0.4-0.2,0.8-0.3,1.2-0.3c0.5,0,1,0.1,1.4,0.4
				c0.4,0.2,0.7,0.6,1,1c0.5,0.9,0.5,2,0,2.9c-0.2,0.4-0.5,0.8-1,1c-0.4,0.2-0.9,0.4-1.4,0.4c-0.4,0-0.9-0.1-1.3-0.3
				c-0.4-0.2-0.7-0.5-0.8-0.9l0.1-0.1v3.2L-205.5-4546.8z M-202.8-4549.5c0.3,0,0.7-0.1,1-0.3c0.3-0.2,0.5-0.4,0.7-0.7
				c0.3-0.7,0.3-1.5,0-2.1c-0.2-0.3-0.4-0.6-0.7-0.7c-0.3-0.2-0.6-0.3-1-0.3c-0.3,0-0.7,0.1-1,0.3c-0.3,0.2-0.5,0.4-0.7,0.7
				c-0.3,0.7-0.3,1.5,0,2.1c0.2,0.3,0.4,0.6,0.7,0.7C-203.5-4549.5-203.2-4549.5-202.8-4549.5"/>
			<path class="st3" d="M-196.7-4548.7c-0.5,0-1-0.1-1.4-0.4c-0.4-0.2-0.8-0.6-1-1c-0.5-0.9-0.5-2,0-2.9c0.8-1.3,2.5-1.8,3.8-1
				c0.4,0.2,0.8,0.6,1,1c0.2,0.4,0.4,0.9,0.4,1.5c0,0.5-0.1,1-0.4,1.5c-0.2,0.4-0.6,0.8-1,1
				C-195.7-4548.8-196.2-4548.7-196.7-4548.7 M-196.7-4549.5c0.3,0,0.7-0.1,1-0.3c0.3-0.2,0.5-0.4,0.7-0.7c0.2-0.3,0.3-0.7,0.3-1.1
				c0-0.4-0.1-0.7-0.3-1.1c-0.2-0.3-0.4-0.6-0.7-0.7c-0.6-0.4-1.4-0.4-2,0c-0.3,0.2-0.5,0.4-0.7,0.7c-0.2,0.3-0.3,0.7-0.3,1.1
				c0,0.4,0.1,0.7,0.3,1.1c0.2,0.3,0.4,0.6,0.7,0.7C-197.4-4549.5-197-4549.5-196.7-4549.5"/>
			<path class="st3" d="M-193-4548.8v-5.4h0.8v0.9l-0.1-0.1c0.1-0.3,0.3-0.5,0.6-0.6c0.3-0.2,0.6-0.2,0.9-0.2h0.3v0.8h-0.5
				c-0.4,0-0.7,0.1-0.9,0.4c-0.3,0.3-0.4,0.7-0.4,1v3.3L-193-4548.8z"/>
			<path class="st3" d="M-188-4548.8c-0.4,0-0.8-0.1-1.1-0.4c-0.3-0.3-0.4-0.8-0.4-1.2v-3.1h-1v-0.8h0.3c0.2,0,0.4-0.1,0.5-0.2
				c0.1-0.2,0.2-0.4,0.2-0.6v-0.5h0.8v1.3h1.2v0.8h-1.2v3.1c0,0.2,0,0.3,0.1,0.5c0.1,0.1,0.2,0.3,0.3,0.3c0.2,0.1,0.3,0.1,0.5,0.1
				c0.1,0,0.1,0,0.2,0c0.1,0,0.1,0,0.2,0v0.7c-0.1,0-0.2,0-0.3,0C-187.8-4548.8-187.9-4548.8-188-4548.8"/>
			<path class="st3" d="M-184.7-4548.7c-0.5,0-1-0.1-1.4-0.4c-0.4-0.3-0.7-0.6-0.9-1.1l0.6-0.3c0.1,0.3,0.4,0.6,0.7,0.8
				c0.3,0.2,0.6,0.3,0.9,0.3c0.3,0,0.6-0.1,0.8-0.2c0.2-0.1,0.3-0.4,0.3-0.6c0-0.2,0-0.3-0.2-0.5c-0.1-0.1-0.2-0.2-0.4-0.3
				c-0.1-0.1-0.2-0.1-0.4-0.1l-0.8-0.2c-0.4-0.1-0.8-0.3-1.1-0.6c-0.2-0.2-0.3-0.6-0.3-0.9c0-0.3,0.1-0.6,0.2-0.8
				c0.2-0.2,0.4-0.4,0.7-0.5c0.3-0.1,0.6-0.2,0.9-0.2c0.4,0,0.9,0.1,1.2,0.4c0.4,0.2,0.6,0.6,0.8,1l-0.6,0.3
				c-0.1-0.3-0.3-0.5-0.6-0.7c-0.2-0.2-0.5-0.3-0.8-0.3c-0.3,0-0.5,0.1-0.7,0.2c-0.2,0.1-0.3,0.4-0.3,0.6c0,0.2,0,0.3,0.1,0.4
				c0.1,0.1,0.2,0.2,0.3,0.2c0.1,0,0.2,0.1,0.3,0.1l0.9,0.3c0.4,0.1,0.7,0.3,1,0.6c0.4,0.5,0.5,1.2,0.1,1.8
				c-0.2,0.2-0.4,0.4-0.7,0.6C-184-4548.8-184.3-4548.7-184.7-4548.7"/>
			<path class="st3" d="M-178.1-4548.7c-0.5,0-1-0.1-1.4-0.4c-0.4-0.2-0.7-0.6-1-1c-0.5-0.9-0.5-2,0-2.9c0.2-0.4,0.5-0.8,0.9-1
				c0.4-0.2,0.9-0.4,1.3-0.4c0.4,0,0.7,0.1,1,0.2c0.3,0.1,0.6,0.3,0.8,0.6c0.2,0.2,0.4,0.5,0.5,0.8c0.1,0.3,0.2,0.6,0.2,0.9
				c0,0.1,0,0.1,0,0.2s0,0.2,0,0.3h-4.6v-0.7h4.1l-0.4,0.3c0.1-0.3,0-0.7-0.1-1c-0.1-0.3-0.4-0.5-0.6-0.7c-0.3-0.2-0.6-0.3-0.9-0.3
				c-0.3,0-0.7,0.1-0.9,0.3c-0.3,0.2-0.5,0.4-0.7,0.7c-0.2,0.3-0.2,0.7-0.2,1.1c0,0.4,0,0.8,0.2,1.1c0.2,0.3,0.4,0.6,0.7,0.7
				c0.3,0.2,0.6,0.3,1,0.3c0.4,0,0.7-0.1,1-0.3c0.3-0.2,0.5-0.4,0.7-0.7l0.6,0.3c-0.1,0.3-0.3,0.5-0.5,0.7c-0.2,0.2-0.5,0.4-0.8,0.5
				C-177.4-4548.8-177.7-4548.7-178.1-4548.7"/>
			<path class="st3" d="M-173.4-4548.8l-2.1-5.4h0.9l1.8,4.8h-0.3l1.8-4.8h0.9l-2.1,5.4H-173.4z"/>
			<path class="st3" d="M-167.6-4548.7c-0.5,0-1-0.1-1.4-0.4c-0.4-0.2-0.8-0.6-1-1c-0.5-0.9-0.5-2,0-2.9c0.8-1.3,2.5-1.8,3.8-1
				c0.4,0.2,0.8,0.6,1,1c0.2,0.4,0.4,0.9,0.4,1.5c0,0.5-0.1,1-0.4,1.5c-0.2,0.4-0.6,0.8-1,1
				C-166.7-4548.8-167.2-4548.7-167.6-4548.7 M-167.6-4549.5c0.3,0,0.7-0.1,1-0.3c0.3-0.2,0.5-0.4,0.7-0.7c0.2-0.3,0.3-0.7,0.3-1.1
				c0-0.4-0.1-0.7-0.3-1.1c-0.2-0.3-0.4-0.6-0.7-0.7c-0.6-0.4-1.4-0.4-2,0c-0.3,0.2-0.5,0.4-0.7,0.7c-0.2,0.3-0.3,0.7-0.3,1.1
				c0,0.4,0.1,0.7,0.3,1.1c0.2,0.3,0.4,0.6,0.7,0.7C-168.3-4549.5-168-4549.5-167.6-4549.5"/>
			<rect x="-164" y="-4556.5" class="st3" width="0.8" height="7.7"/>
			<path class="st3" d="M-160.2-4548.7c-0.4,0-0.7-0.1-1-0.3c-0.3-0.2-0.6-0.4-0.7-0.7c-0.2-0.3-0.3-0.7-0.3-1.1v-3.4h0.8v3.3
				c0,0.3,0.1,0.5,0.2,0.8c0.1,0.2,0.3,0.4,0.5,0.5c0.5,0.2,1,0.2,1.5,0c0.2-0.1,0.4-0.3,0.5-0.5c0.1-0.3,0.2-0.5,0.2-0.8v-3.2h0.8
				v5.4h-0.8v-1.1l0.2,0c-0.1,0.3-0.4,0.6-0.7,0.8C-159.4-4548.8-159.8-4548.7-160.2-4548.7"/>
			<path class="st3" d="M-154.7-4548.8c-0.4,0-0.8-0.1-1.1-0.4c-0.3-0.3-0.4-0.8-0.4-1.2v-3.1h-1v-0.8h0.3c0.2,0,0.4-0.1,0.5-0.2
				c0.1-0.2,0.2-0.4,0.2-0.6v-0.5h0.8v1.3h1.2v0.8h-1.2v3.1c0,0.2,0,0.3,0.1,0.5c0.1,0.1,0.2,0.3,0.3,0.3c0.2,0.1,0.3,0.1,0.5,0.1
				c0.1,0,0.1,0,0.2,0c0.1,0,0.1,0,0.2,0v0.7c-0.1,0-0.2,0-0.3,0C-154.5-4548.8-154.6-4548.8-154.7-4548.8"/>
			<path class="st3" d="M-153.2-4556.4h0.8v1.1h-0.8V-4556.4z M-153.2-4554.2h0.8v5.4h-0.8V-4554.2z"/>
			<path class="st3" d="M-148.8-4548.7c-0.5,0-1-0.1-1.4-0.4c-0.4-0.2-0.8-0.6-1-1c-0.5-0.9-0.5-2,0-2.9c0.8-1.3,2.5-1.8,3.8-1
				c0.4,0.2,0.8,0.6,1,1c0.2,0.4,0.4,0.9,0.4,1.5c0,0.5-0.1,1-0.4,1.5c-0.2,0.4-0.6,0.8-1,1
				C-147.9-4548.8-148.4-4548.7-148.8-4548.7 M-148.8-4549.5c0.3,0,0.7-0.1,1-0.3c0.3-0.2,0.5-0.4,0.7-0.7c0.2-0.3,0.3-0.7,0.3-1.1
				c0-0.4-0.1-0.7-0.3-1.1c-0.2-0.3-0.4-0.6-0.7-0.7c-0.6-0.4-1.4-0.4-2,0c-0.3,0.2-0.5,0.4-0.7,0.7c-0.2,0.3-0.3,0.7-0.3,1.1
				c0,0.4,0.1,0.7,0.3,1.1c0.2,0.3,0.4,0.6,0.7,0.7C-149.5-4549.5-149.2-4549.5-148.8-4549.5"/>
			<path class="st3" d="M-145.2-4548.8v-5.4h0.8v1.1l-0.2,0c0.1-0.3,0.4-0.6,0.7-0.8c0.3-0.2,0.7-0.3,1.1-0.3c0.4,0,0.7,0.1,1,0.3
				c0.3,0.2,0.6,0.4,0.7,0.7c0.2,0.3,0.3,0.7,0.3,1v3.5h-0.8v-3.2c0-0.3-0.1-0.6-0.2-0.8c-0.1-0.2-0.3-0.4-0.5-0.5
				c-0.2-0.1-0.5-0.2-0.7-0.2c-0.3,0-0.5,0.1-0.7,0.2c-0.2,0.1-0.4,0.3-0.5,0.5c-0.1,0.3-0.2,0.5-0.2,0.8v3.2L-145.2-4548.8z"/>
			<path class="st3" d="M-139.8-4547.5v-0.4c0.2,0,0.3-0.2,0.4-0.3c0.1-0.2,0.2-0.4,0.1-0.6h-0.4v-1.1h0.8v0.9
				c0,0.4-0.1,0.7-0.3,1.1C-139.2-4547.8-139.5-4547.6-139.8-4547.5"/>
			<path class="st3" d="M-133.8-4548.7c-0.5,0-1-0.1-1.4-0.4c-0.4-0.2-0.7-0.6-1-1c-0.5-0.9-0.5-2,0-2.9c0.2-0.4,0.5-0.8,0.9-1
				c0.4-0.2,0.9-0.4,1.3-0.4c0.4,0,0.7,0.1,1,0.2c0.3,0.1,0.6,0.3,0.8,0.6c0.2,0.2,0.4,0.5,0.5,0.8c0.1,0.3,0.2,0.6,0.2,0.9
				c0,0.1,0,0.1,0,0.2s0,0.2,0,0.3h-4.6v-0.7h4.1l-0.4,0.3c0.1-0.3,0-0.7-0.1-1c-0.1-0.3-0.4-0.5-0.6-0.7c-0.3-0.2-0.6-0.3-0.9-0.3
				c-0.3,0-0.7,0.1-0.9,0.3c-0.3,0.2-0.5,0.4-0.7,0.7c-0.2,0.3-0.2,0.7-0.2,1.1c0,0.4,0,0.8,0.2,1.1c0.2,0.3,0.4,0.6,0.7,0.7
				c0.3,0.2,0.6,0.3,1,0.3c0.4,0,0.7-0.1,1-0.3c0.3-0.2,0.5-0.4,0.7-0.7l0.6,0.3c-0.1,0.3-0.3,0.5-0.5,0.7c-0.2,0.2-0.5,0.4-0.8,0.5
				C-133.1-4548.8-133.4-4548.7-133.8-4548.7"/>
			<path class="st3" d="M-130.4-4548.8v-5.4h0.8v1.1l-0.2,0c0.1-0.3,0.4-0.6,0.7-0.8c0.3-0.2,0.7-0.3,1.1-0.3c0.4,0,0.7,0.1,1,0.3
				c0.3,0.2,0.6,0.4,0.7,0.7c0.2,0.3,0.3,0.7,0.3,1v3.5h-0.8v-3.2c0-0.3-0.1-0.6-0.2-0.8c-0.1-0.2-0.3-0.4-0.5-0.5
				c-0.2-0.1-0.5-0.2-0.7-0.2c-0.3,0-0.5,0.1-0.7,0.2c-0.2,0.1-0.4,0.3-0.5,0.5c-0.1,0.3-0.2,0.5-0.2,0.8v3.2L-130.4-4548.8z"/>
			<path class="st3" d="M-122.6-4548.7c-0.5,0-1-0.1-1.4-0.4c-0.4-0.2-0.7-0.6-1-1c-0.5-0.9-0.5-2,0-2.9c0.2-0.4,0.6-0.8,1-1
				c0.4-0.2,0.9-0.4,1.4-0.4c0.4,0,0.9,0.1,1.2,0.3c0.4,0.2,0.7,0.5,0.9,0.8l-0.1,0.2v-3.4h0.8v7.7h-0.8v-1.2l0.1,0.1
				c-0.2,0.4-0.5,0.7-0.8,0.9C-121.8-4548.8-122.2-4548.7-122.6-4548.7 M-122.6-4549.5c0.3,0,0.7-0.1,1-0.3c0.3-0.2,0.5-0.4,0.7-0.7
				c0.3-0.7,0.3-1.5,0-2.1c-0.2-0.3-0.4-0.6-0.7-0.7c-0.3-0.2-0.6-0.3-1-0.3c-0.3,0-0.7,0.1-1,0.3c-0.3,0.2-0.5,0.4-0.7,0.7
				c-0.3,0.7-0.3,1.5,0,2.1c0.2,0.3,0.4,0.6,0.7,0.7C-123.3-4549.5-122.9-4549.5-122.6-4549.5"/>
			<rect x="-118.8" y="-4556.5" class="st3" width="0.8" height="7.7"/>
			<path class="st3" d="M-114.4-4548.7c-0.5,0-1-0.1-1.4-0.4c-0.4-0.2-0.7-0.6-1-1c-0.5-0.9-0.5-2,0-2.9c0.2-0.4,0.5-0.8,0.9-1
				c0.4-0.2,0.9-0.4,1.3-0.4c0.4,0,0.7,0.1,1,0.2c0.3,0.1,0.6,0.3,0.8,0.6c0.2,0.2,0.4,0.5,0.5,0.8c0.1,0.3,0.2,0.6,0.2,0.9
				c0,0.1,0,0.1,0,0.2s0,0.2,0,0.3h-4.6v-0.7h4.1l-0.4,0.3c0.1-0.3,0-0.7-0.1-1c-0.1-0.3-0.4-0.5-0.6-0.7c-0.3-0.2-0.6-0.3-0.9-0.3
				c-0.3,0-0.7,0.1-0.9,0.3c-0.3,0.2-0.5,0.4-0.7,0.7c-0.2,0.3-0.2,0.7-0.2,1.1c0,0.4,0,0.8,0.2,1.1c0.2,0.3,0.4,0.6,0.7,0.7
				c0.3,0.2,0.6,0.3,1,0.3c0.4,0,0.7-0.1,1-0.3c0.3-0.2,0.5-0.4,0.7-0.7l0.6,0.3c-0.1,0.3-0.3,0.5-0.5,0.7c-0.2,0.2-0.5,0.4-0.8,0.5
				C-113.7-4548.8-114.1-4548.7-114.4-4548.7"/>
			<path class="st3" d="M-109.2-4548.7c-0.5,0-1-0.1-1.4-0.4c-0.4-0.3-0.7-0.6-0.9-1.1l0.6-0.3c0.1,0.3,0.4,0.6,0.7,0.8
				c0.3,0.2,0.6,0.3,0.9,0.3c0.3,0,0.6-0.1,0.8-0.2c0.2-0.1,0.3-0.4,0.3-0.6c0-0.2,0-0.3-0.2-0.5c-0.1-0.1-0.2-0.2-0.4-0.3
				c-0.1-0.1-0.2-0.1-0.4-0.1l-0.8-0.2c-0.4-0.1-0.8-0.3-1.1-0.6c-0.2-0.2-0.3-0.6-0.3-0.9c0-0.3,0.1-0.6,0.2-0.8
				c0.2-0.2,0.4-0.4,0.7-0.5c0.3-0.1,0.6-0.2,0.9-0.2c0.4,0,0.9,0.1,1.2,0.4c0.4,0.2,0.6,0.6,0.8,1l-0.6,0.3
				c-0.1-0.3-0.3-0.5-0.6-0.7c-0.2-0.2-0.5-0.3-0.8-0.3c-0.3,0-0.5,0.1-0.7,0.2c-0.2,0.1-0.3,0.4-0.3,0.6c0,0.2,0,0.3,0.1,0.4
				c0.1,0.1,0.2,0.2,0.3,0.2c0.1,0,0.2,0.1,0.3,0.1l0.9,0.3c0.4,0.1,0.7,0.3,1,0.6c0.4,0.5,0.5,1.2,0.1,1.8
				c-0.2,0.2-0.4,0.4-0.7,0.6C-108.5-4548.8-108.9-4548.7-109.2-4548.7"/>
			<path class="st3" d="M-104.5-4548.7c-0.5,0-1-0.1-1.4-0.4c-0.4-0.3-0.7-0.6-0.8-1.1l0.6-0.3c0.1,0.3,0.4,0.6,0.7,0.8
				c0.3,0.2,0.6,0.3,0.9,0.3c0.3,0,0.6-0.1,0.8-0.2c0.2-0.1,0.3-0.4,0.3-0.6c0-0.2,0-0.3-0.2-0.5c-0.1-0.1-0.2-0.2-0.4-0.3
				c-0.1-0.1-0.2-0.1-0.4-0.1l-0.8-0.2c-0.4-0.1-0.8-0.3-1.1-0.6c-0.2-0.2-0.3-0.6-0.3-0.9c0-0.3,0.1-0.6,0.2-0.8
				c0.2-0.2,0.4-0.4,0.7-0.5c0.3-0.1,0.6-0.2,0.9-0.2c0.4,0,0.9,0.1,1.2,0.4c0.4,0.2,0.6,0.6,0.8,1l-0.6,0.3
				c-0.1-0.3-0.3-0.5-0.6-0.7c-0.2-0.2-0.5-0.3-0.8-0.3c-0.3,0-0.5,0.1-0.7,0.2c-0.2,0.1-0.3,0.4-0.3,0.6c0,0.2,0,0.3,0.1,0.4
				c0.1,0.1,0.2,0.2,0.3,0.2c0.1,0,0.2,0.1,0.3,0.1l0.9,0.3c0.4,0.1,0.7,0.3,1,0.6c0.4,0.5,0.5,1.2,0.1,1.8
				c-0.2,0.2-0.4,0.4-0.7,0.6C-103.8-4548.8-104.2-4548.7-104.5-4548.7"/>
			<path class="st3" d="M-100.4-4546.8v-7.4h0.8v1.2l-0.1-0.2c0.2-0.3,0.5-0.6,0.9-0.8c0.4-0.2,0.8-0.3,1.2-0.3c0.5,0,1,0.1,1.4,0.4
				c0.4,0.2,0.7,0.6,1,1c0.5,0.9,0.5,2,0,2.9c-0.2,0.4-0.5,0.8-1,1c-0.4,0.2-0.9,0.4-1.4,0.4c-0.4,0-0.9-0.1-1.3-0.3
				c-0.4-0.2-0.7-0.5-0.8-0.9l0.1-0.1v3.2L-100.4-4546.8z M-97.7-4549.5c0.3,0,0.7-0.1,1-0.3c0.3-0.2,0.5-0.4,0.7-0.7
				c0.3-0.7,0.3-1.5,0-2.1c-0.2-0.3-0.4-0.6-0.7-0.7c-0.3-0.2-0.6-0.3-1-0.3c-0.3,0-0.7,0.1-1,0.3c-0.3,0.2-0.5,0.4-0.7,0.7
				c-0.3,0.7-0.3,1.5,0,2.1c0.2,0.3,0.4,0.6,0.7,0.7C-98.4-4549.5-98-4549.5-97.7-4549.5"/>
			<path class="st3" d="M-91.5-4548.7c-0.5,0-1-0.1-1.4-0.4c-0.4-0.2-0.8-0.6-1-1c-0.5-0.9-0.5-2,0-2.9c0.8-1.3,2.5-1.8,3.8-1
				c0.4,0.2,0.8,0.6,1,1c0.2,0.4,0.4,0.9,0.4,1.5c0,0.5-0.1,1-0.4,1.5c-0.2,0.4-0.6,0.8-1,1C-90.6-4548.8-91.1-4548.7-91.5-4548.7
				 M-91.6-4549.5c0.3,0,0.7-0.1,1-0.3c0.3-0.2,0.5-0.4,0.7-0.7c0.2-0.3,0.3-0.7,0.3-1.1c0-0.4-0.1-0.7-0.3-1.1
				c-0.2-0.3-0.4-0.6-0.7-0.7c-0.6-0.4-1.4-0.4-2,0c-0.3,0.2-0.5,0.4-0.7,0.7c-0.2,0.3-0.3,0.7-0.3,1.1c0,0.4,0.1,0.7,0.3,1.1
				c0.2,0.3,0.4,0.6,0.7,0.7C-92.2-4549.5-91.9-4549.5-91.6-4549.5"/>
			<path class="st3" d="M-86-4548.7c-0.5,0-1-0.1-1.4-0.4c-0.4-0.3-0.7-0.6-0.8-1.1l0.6-0.3c0.1,0.3,0.4,0.6,0.7,0.8
				c0.3,0.2,0.6,0.3,0.9,0.3c0.3,0,0.6-0.1,0.8-0.2c0.2-0.1,0.3-0.4,0.3-0.6c0-0.2,0-0.3-0.2-0.5c-0.1-0.1-0.2-0.2-0.4-0.3
				c-0.1-0.1-0.2-0.1-0.4-0.1l-0.8-0.2c-0.4-0.1-0.8-0.3-1.1-0.6c-0.2-0.2-0.3-0.6-0.3-0.9c0-0.3,0.1-0.6,0.2-0.8
				c0.2-0.2,0.4-0.4,0.7-0.5c0.3-0.1,0.6-0.2,0.9-0.2c0.4,0,0.9,0.1,1.2,0.4c0.4,0.2,0.6,0.6,0.8,1l-0.6,0.3
				c-0.1-0.3-0.3-0.5-0.6-0.7c-0.2-0.2-0.5-0.3-0.8-0.3c-0.3,0-0.5,0.1-0.7,0.2c-0.2,0.1-0.3,0.4-0.3,0.6c0,0.2,0,0.3,0.1,0.4
				c0.1,0.1,0.2,0.2,0.3,0.2c0.1,0,0.2,0.1,0.3,0.1l0.9,0.3c0.4,0.1,0.7,0.3,1,0.6c0.4,0.5,0.5,1.2,0.1,1.8
				c-0.2,0.2-0.4,0.4-0.7,0.6C-85.3-4548.8-85.7-4548.7-86-4548.7"/>
			<path class="st3" d="M-81.3-4548.7c-0.5,0-1-0.1-1.4-0.4c-0.4-0.3-0.7-0.6-0.8-1.1l0.6-0.3c0.1,0.3,0.4,0.6,0.7,0.8
				c0.3,0.2,0.6,0.3,0.9,0.3c0.3,0,0.6-0.1,0.8-0.2c0.2-0.1,0.3-0.4,0.3-0.6c0-0.2,0-0.3-0.2-0.5c-0.1-0.1-0.2-0.2-0.4-0.3
				c-0.1-0.1-0.2-0.1-0.4-0.1l-0.8-0.2c-0.4-0.1-0.8-0.3-1.1-0.6c-0.2-0.2-0.3-0.6-0.3-0.9c0-0.3,0.1-0.6,0.2-0.8
				c0.2-0.2,0.4-0.4,0.7-0.5c0.3-0.1,0.6-0.2,0.9-0.2c0.4,0,0.9,0.1,1.2,0.4c0.4,0.2,0.6,0.6,0.8,1l-0.6,0.3
				c-0.1-0.3-0.3-0.5-0.6-0.7c-0.2-0.2-0.5-0.3-0.8-0.3c-0.3,0-0.5,0.1-0.7,0.2c-0.2,0.1-0.3,0.4-0.3,0.6c0,0.2,0,0.3,0.1,0.4
				c0.1,0.1,0.2,0.2,0.3,0.2c0.1,0,0.2,0.1,0.3,0.1l0.9,0.3c0.4,0.1,0.7,0.3,1,0.6c0.4,0.5,0.5,1.2,0.1,1.8
				c-0.2,0.2-0.4,0.4-0.7,0.6C-80.6-4548.8-81-4548.7-81.3-4548.7"/>
			<path class="st3" d="M-78.5-4556.4h0.8v1.1h-0.8V-4556.4z M-78.5-4554.2h0.8v5.4h-0.8V-4554.2z"/>
			<path class="st3" d="M-73.9-4548.7c-0.4,0-0.9-0.1-1.3-0.3c-0.4-0.2-0.7-0.5-0.8-0.9l0.1-0.1v1.2h-0.8v-7.7h0.8v3.4l-0.1-0.2
				c0.2-0.3,0.5-0.6,0.9-0.8c0.4-0.2,0.8-0.3,1.2-0.3c0.5,0,1,0.1,1.4,0.4c0.4,0.2,0.7,0.6,1,1c0.5,0.9,0.5,2,0,2.9
				c-0.2,0.4-0.5,0.8-1,1C-72.9-4548.8-73.4-4548.7-73.9-4548.7 M-73.9-4549.4c0.3,0,0.7-0.1,1-0.3c0.3-0.2,0.5-0.4,0.7-0.7
				c0.3-0.7,0.3-1.5,0-2.1c-0.2-0.3-0.4-0.6-0.7-0.7c-0.3-0.2-0.6-0.3-1-0.3c-0.3,0-0.7,0.1-1,0.3c-0.3,0.2-0.5,0.4-0.7,0.7
				c-0.3,0.7-0.3,1.5,0,2.1c0.2,0.3,0.4,0.6,0.7,0.7C-74.6-4549.5-74.2-4549.4-73.9-4549.4"/>
			<path class="st3" d="M-70.3-4556.4h0.8v1.1h-0.8V-4556.4z M-70.3-4554.2h0.8v5.4h-0.8V-4554.2z"/>
			<rect x="-68.4" y="-4556.5" class="st3" width="0.8" height="7.7"/>
			<path class="st3" d="M-66.5-4556.4h0.8v1.1h-0.8V-4556.4z M-66.5-4554.2h0.8v5.4h-0.8V-4554.2z"/>
			<path class="st3" d="M-62.6-4548.8c-0.4,0-0.8-0.1-1.1-0.4c-0.3-0.3-0.4-0.8-0.4-1.2v-3.1h-1v-0.8h0.3c0.2,0,0.4-0.1,0.5-0.2
				c0.1-0.2,0.2-0.4,0.2-0.6v-0.5h0.8v1.3h1.2v0.8h-1.2v3.1c0,0.2,0,0.3,0.1,0.5c0.1,0.1,0.2,0.3,0.3,0.3c0.2,0.1,0.3,0.1,0.5,0.1
				c0.1,0,0.1,0,0.2,0c0.1,0,0.1,0,0.2,0v0.7c-0.1,0-0.2,0-0.3,0C-62.4-4548.8-62.5-4548.8-62.6-4548.8"/>
			<path class="st3" d="M-61.1-4556.4h0.8v1.1h-0.8V-4556.4z M-61.1-4554.2h0.8v5.4h-0.8V-4554.2z"/>
			<path class="st3" d="M-56.8-4548.7c-0.5,0-1-0.1-1.4-0.4c-0.4-0.2-0.7-0.6-1-1c-0.5-0.9-0.5-2,0-2.9c0.2-0.4,0.5-0.8,0.9-1
				c0.4-0.2,0.9-0.4,1.3-0.4c0.4,0,0.7,0.1,1,0.2c0.3,0.1,0.6,0.3,0.8,0.6c0.2,0.2,0.4,0.5,0.5,0.8c0.1,0.3,0.2,0.6,0.2,0.9
				c0,0.1,0,0.1,0,0.2s0,0.2,0,0.3H-59v-0.7h4.1l-0.4,0.3c0.1-0.3,0-0.7-0.1-1c-0.1-0.3-0.4-0.5-0.6-0.7c-0.3-0.2-0.6-0.3-0.9-0.3
				c-0.3,0-0.7,0.1-0.9,0.3c-0.3,0.2-0.5,0.4-0.7,0.7c-0.2,0.3-0.2,0.7-0.2,1.1c0,0.4,0,0.8,0.2,1.1c0.2,0.3,0.4,0.6,0.7,0.7
				c0.3,0.2,0.6,0.3,1,0.3c0.4,0,0.7-0.1,1-0.3c0.3-0.2,0.5-0.4,0.7-0.7l0.6,0.3c-0.1,0.3-0.3,0.5-0.5,0.7c-0.2,0.2-0.5,0.4-0.8,0.5
				C-56.1-4548.8-56.5-4548.7-56.8-4548.7"/>
			<path class="st3" d="M-51.6-4548.7c-0.5,0-1-0.1-1.4-0.4c-0.4-0.3-0.7-0.6-0.8-1.1l0.6-0.3c0.1,0.3,0.4,0.6,0.7,0.8
				c0.3,0.2,0.6,0.3,0.9,0.3c0.3,0,0.6-0.1,0.8-0.2c0.2-0.1,0.3-0.4,0.3-0.6c0-0.2,0-0.3-0.2-0.5c-0.1-0.1-0.2-0.2-0.4-0.3
				c-0.1-0.1-0.2-0.1-0.4-0.1l-0.8-0.2c-0.4-0.1-0.8-0.3-1.1-0.6c-0.2-0.2-0.3-0.6-0.3-0.9c0-0.3,0.1-0.6,0.2-0.8
				c0.2-0.2,0.4-0.4,0.7-0.5c0.3-0.1,0.6-0.2,0.9-0.2c0.4,0,0.9,0.1,1.2,0.4c0.4,0.2,0.6,0.6,0.8,1l-0.6,0.3
				c-0.1-0.3-0.3-0.5-0.6-0.7c-0.2-0.2-0.5-0.3-0.8-0.3c-0.3,0-0.5,0.1-0.7,0.2c-0.2,0.1-0.3,0.4-0.3,0.6c0,0.2,0,0.3,0.1,0.4
				c0.1,0.1,0.2,0.2,0.3,0.2c0.1,0,0.2,0.1,0.3,0.1l0.9,0.3c0.4,0.1,0.7,0.3,1,0.6c0.4,0.5,0.5,1.2,0.1,1.8
				c-0.2,0.2-0.4,0.4-0.7,0.6C-50.9-4548.8-51.3-4548.7-51.6-4548.7"/>
			<rect x="-48.5" y="-4549.9" class="st3" width="0.8" height="1.1"/>
		</g>
	</g>
</g>
<g class="st4">
	<path class="st5" d="M211.4,96.5h-5.6l4.8-22.7h-8l0.9-4.5h21.4l-0.9,4.5h-7.9L211.4,96.5z"/>
	<path class="st5" d="M227.2,82.4L222,82c0.6-1.8,1.6-3.1,3.1-4.1c1.5-1,3.4-1.5,5.9-1.5c2.5,0,4.4,0.5,5.6,1.5
		c1.2,1,1.8,2.3,1.8,3.7c0,0.6-0.1,1.2-0.2,1.9s-0.5,2.4-1.1,5.3c-0.5,2.4-0.8,4-0.8,4.9c0,0.8,0.1,1.8,0.4,2.8h-5.2
		c-0.2-0.7-0.3-1.5-0.4-2.2c-0.8,0.9-1.7,1.5-2.7,2c-1,0.5-2,0.7-3.1,0.7c-1.6,0-3-0.5-4-1.6c-1.1-1.1-1.6-2.4-1.6-4.1
		c0-1.9,0.6-3.4,1.8-4.5c1.2-1.1,3.3-1.8,6.3-2c2.5-0.2,4.2-0.5,5.1-0.8c0.2-0.7,0.3-1.3,0.3-1.8c0-0.6-0.2-1-0.7-1.4
		c-0.5-0.4-1.1-0.6-2-0.6c-1,0-1.7,0.2-2.3,0.6C227.8,81.1,227.4,81.7,227.2,82.4z M232.3,87.4c-0.3,0.1-0.7,0.2-1.3,0.2
		c-2.7,0.3-4.4,0.8-5.2,1.4c-0.6,0.4-0.9,1-0.9,1.8c0,0.6,0.2,1.1,0.7,1.6c0.4,0.4,1,0.6,1.8,0.6c0.8,0,1.6-0.2,2.3-0.6
		c0.7-0.4,1.2-0.9,1.6-1.5c0.4-0.6,0.7-1.6,0.9-2.9L232.3,87.4z"/>
	<path class="st5" d="M239.2,96.5l5.7-27.2h5.3l-5.7,27.2H239.2z"/>
	<path class="st5" d="M248,96.5l5.7-27.2h5.3l-3,14.2l6.9-6.7h6.9L262,84l4.2,12.5h-5.3l-2.7-9.1l-3.6,3.2l-1.2,5.9H248z"/>
</g>
</svg>
