<svg xmlns="http://www.w3.org/2000/svg" width="34.418" height="27.963" viewBox="0 0 34.418 27.963">
  <path id="Twitter" d="M278.73,76.687a14.158,14.158,0,0,1-4.056,1.113,7.081,7.081,0,0,0,3.1-3.905,14.105,14.105,0,0,1-4.485,1.715,7.065,7.065,0,0,0-12.032,6.437A20.043,20.043,0,0,1,246.71,74.67a7.067,7.067,0,0,0,2.185,9.425,7,7,0,0,1-3.2-.883V83.3a7.063,7.063,0,0,0,5.663,6.922,7.068,7.068,0,0,1-1.861.248,6.935,6.935,0,0,1-1.329-.128,7.071,7.071,0,0,0,6.6,4.9,14.283,14.283,0,0,1-10.456,2.922,19.983,19.983,0,0,0,10.825,3.173c12.987,0,20.087-10.758,20.087-20.088,0-.308-.008-.61-.02-.913a14.345,14.345,0,0,0,3.526-3.654Z" transform="translate(-244.312 -73.379)" fill="#fff"/>
</svg>
